<?xml version="1.0" encoding="UTF-8" standalone="no"?>
<!DOCTYPE svg PUBLIC "-//W3C//DTD SVG 1.1//EN" "http://www.w3.org/Graphics/SVG/1.1/DTD/svg11.dtd">
<svg width="100%" height="100%" viewBox="0 0 9750 4911" version="1.1" xmlns="http://www.w3.org/2000/svg" xmlns:xlink="http://www.w3.org/1999/xlink" xml:space="preserve" xmlns:serif="http://www.serif.com/" style="fill-rule:evenodd;clip-rule:evenodd;stroke-linejoin:round;stroke-miterlimit:2;">
    <g id="RESPONSIVE" transform="matrix(1.249554,0,0,0.5,5481.996585,0)">
        <rect x="-2450" y="0" width="2400" height="2400" style="fill:none;"/>
        <g id="path14" transform="matrix(1.989093,0,0,4.970959,-2979.648826,-515.260622)">
            <path d="M507.699,180.199C510.301,177.602 511.801,177.5 514.699,179.5C515.898,180.398 526,194.398 537.199,210.801C548.301,227.102 577.199,269.5 601.398,305C646.699,371.5 718.102,476.398 730.801,495.102C738,505.801 739.102,508.5 736.801,510.801C735.898,511.699 708.898,512 621.301,512C513.602,512 506.898,511.898 505.199,510.199C503.801,508.801 502.602,500.199 498.199,459C493.301,412.801 492.801,409.398 490.602,406.5C486.199,400.801 463.301,375.602 457.699,370.199C454.602,367.398 451.199,365 450.102,365C447.5,365 447,365.5 417.898,396C396.199,418.801 343.5,473.898 319.602,498.699C308.602,510.199 304.801,512.199 294.801,511.801L287.5,511.5L287.199,508.5C287,505.898 290.398,500.301 307.602,475C318.898,458.199 333.398,436.801 339.699,427.5C346,418.102 356.602,402.398 363.301,392.5C374.801,375.602 416.801,313.5 444.801,272C487.398,208.898 505.699,182.199 507.699,180.199ZM519.5,253.898C509.898,249.5 499.699,253.801 495,264.199C493.199,268.102 493,271 493,294.5C493,308.801 493.5,324.301 494,329C494.602,333.699 497.699,363.602 501,395.5C510.699,490 512.301,503.801 513.102,500.5C513.5,498.801 516.199,472.699 519,442.5C521.801,412.199 525.801,372.602 527.699,354.5C530.898,325.801 531.301,318.102 531.398,295.5C531.5,267.398 531.102,264.699 526.199,258.801C524.801,257.102 521.801,254.898 519.5,253.898ZM507.102,270.602C510.5,266.301 515.898,267.5 517.898,273.102C518.602,275.102 519,284.898 519,298.699L519,321.102L516.5,323.5C515.199,324.898 513.199,326 512,326C510.898,326 508.801,324.898 507.5,323.5L505,321.102L505,297.199C505,274.5 505.102,273.102 507.102,270.602ZM1279.762,222.772L1279.762,191.784L1316.488,191.784L1316.488,222.772L1279.762,222.772ZM1340.59,222.772L1340.59,191.784L1378.464,191.784L1378.464,222.772L1340.59,222.772ZM1000.296,386.893L1000.296,192.931L1044.483,192.931L1044.483,386.893L1000.296,386.893ZM851.897,202.341L855.34,194.079L902.741,194.079L941.992,289.11C963.57,341.33 981.587,384.826 981.933,385.745C982.507,387.239 979.52,387.35 958.288,386.893L934.075,386.319L926.269,366.808L918.581,347.297L878.868,346.952L839.272,346.724L832.849,363.02C829.405,372.09 825.845,381.155 825.154,383.105L823.895,386.893L775.92,386.893L776.951,384.252C777.987,381.728 845.128,218.755 851.897,202.341ZM891.955,278.09C885.069,260.763 879.213,246.528 878.985,246.3C878.757,246.071 857.981,298.063 854.538,307.702C854.081,309.195 857.407,309.423 879.213,309.88C893.103,309.997 904.463,309.997 904.463,309.88C904.463,309.652 898.842,295.305 891.955,278.09ZM1306.387,239.987C1316.945,237.235 1336.918,237.001 1347.359,239.413C1366.296,243.887 1385.579,259.727 1394.304,277.861C1400.616,291.06 1405.09,314.705 1403.14,323.769L1402.338,327.213L1294.682,327.213L1294.682,329.736C1294.682,334.216 1299.847,343.737 1304.437,347.754C1312.817,355.103 1326.935,359.003 1338.412,357.17C1347.248,355.677 1354.591,352.005 1361.822,345.347L1367.906,339.837L1383.172,348.902L1398.432,358.083L1388.676,367.728C1380.877,375.533 1377.199,378.285 1369.283,382.074C1354.708,389.071 1351.376,389.645 1330.835,389.762C1314.65,389.762 1311.552,389.417 1304.437,387.122C1284.353,380.352 1268.976,367.499 1260.368,350.167C1245.331,319.635 1251.415,282.107 1275.054,258.467C1284.926,248.478 1293.763,243.313 1306.387,239.987ZM1338.066,271.549C1334.734,270.63 1330.261,269.827 1328.082,269.945C1312.588,270.401 1300.075,280.385 1295.373,295.879L1294.565,298.52L1361.249,298.52L1360.558,295.305C1358.151,284.748 1348.624,274.764 1338.066,271.549ZM1143.531,240.561C1147.776,239.296 1153.632,238.957 1163.844,239.296C1181.059,239.759 1188.519,242.054 1201.372,250.662C1215.373,260.072 1225.591,275.338 1230.411,294.386C1233.163,305.523 1233.508,325.491 1230.984,336.166C1227.196,352.005 1215.262,368.875 1200.799,378.402C1197.244,380.809 1189.895,384.252 1184.502,386.202C1175.778,389.306 1173.371,389.645 1161.548,389.645C1150.991,389.534 1146.857,389.071 1140.89,387.01C1132.054,383.907 1123.674,378.859 1119.657,374.04L1116.788,370.597L1116.788,435.097L1073.175,435.097L1073.175,241.135L1117.016,241.135L1116.56,249.052L1116.214,256.974L1121.033,252.612C1126.543,247.447 1135.034,242.973 1143.531,240.561ZM1167.515,276.714C1156.038,272.351 1140.661,274.535 1131.134,281.761C1108.982,298.637 1111.049,337.542 1134.806,350.395C1145.826,356.479 1159.944,356.824 1170.502,351.431C1176.468,348.445 1184.157,339.837 1187.6,332.26C1192.882,320.672 1192.191,302.994 1185.996,292.899C1181.862,286.241 1173.599,279.009 1167.515,276.714ZM797.802,457.156C797.339,456.125 798.95,455.779 803.423,455.779L809.624,455.779L815.246,474.717C818.343,485.163 821.213,493.08 821.441,492.278C821.787,491.475 824.427,482.979 827.297,473.569L832.69,456.353L837.854,456.008L843.136,455.662L846.579,466.911C848.529,473.112 851.17,481.948 852.663,486.65L855.187,495.258L856.68,489.408C857.482,486.311 860.123,477.469 862.53,470.009L867.009,456.353L873.088,456.008C877.678,455.779 879.06,456.008 878.598,457.156C878.369,457.958 874.235,470.354 869.645,484.7L861.154,510.869L849.448,510.869L843.938,492.389C840.841,482.294 837.971,474.717 837.626,475.519C837.169,476.321 834.528,484.589 831.77,493.882L826.723,510.869L814.9,510.869L813.067,505.359C812.148,502.379 808.36,490.667 804.799,479.307C801.245,467.947 798.03,457.958 797.802,457.156ZM909.24,457.958C912.344,456.582 916.589,455.779 921.982,455.779C931.966,455.779 937.822,458.303 943.443,464.844C945.738,467.485 948.151,471.964 948.953,474.834C951.822,484.929 948.608,498.473 941.839,504.785C934.952,511.215 922.21,513.738 912.11,510.752C898.337,506.624 890.537,489.637 895.239,474.026C896.961,468.059 903.619,460.599 909.24,457.958ZM931.047,468.287C918.539,461.29 905.34,469.435 905.34,484.127C905.34,497.671 919.915,506.278 930.707,499.047C941.036,492.161 941.265,474.026 931.047,468.287ZM973.055,455.897C973.055,455.662 979.367,455.662 987.173,456.008C1002.093,456.582 1005.764,457.729 1010.812,463.122C1012.996,465.418 1013.798,467.713 1014.144,472.878C1014.718,480.801 1012.534,485.848 1007.486,488.489C1005.536,489.52 1004.043,490.556 1004.043,490.784C1004.043,491.13 1006.912,495.375 1010.355,500.423C1013.798,505.476 1016.668,509.839 1016.668,510.178C1016.668,510.524 1013.915,510.869 1010.472,510.869L1004.271,510.869L998.076,501.114C992.22,491.704 991.875,491.358 987.747,491.358L983.384,491.358L983.384,510.869L972.481,510.869L972.709,483.67C972.938,468.633 973.055,456.125 973.055,455.897ZM1001.291,468.978C1000.026,467.257 997.848,466.683 991.535,466.337L983.384,465.88L983.384,482.177L990.616,482.177C999.569,482.177 1002.895,480.227 1002.895,474.834C1002.895,472.767 1002.204,470.126 1001.291,468.978ZM1039.622,510.869L1039.622,455.662L1045.132,456.008L1050.525,456.353L1050.525,468.176C1050.525,474.6 1050.753,479.881 1051.099,479.764C1051.444,479.764 1056.035,474.371 1061.428,467.713L1071.183,455.779L1077.841,455.779C1081.396,455.779 1084.382,456.008 1084.382,456.353C1084.382,456.699 1079.791,462.437 1074.053,469.095C1068.431,475.636 1063.723,481.374 1063.723,481.72C1063.723,482.06 1068.431,488.372 1074.281,495.721C1080.02,503.181 1085.184,509.604 1085.647,510.295C1086.221,510.986 1083.925,511.326 1079.217,511.098L1071.874,510.641L1061.773,497.554C1056.263,490.328 1051.444,484.472 1051.099,484.472C1050.753,484.472 1050.642,490.439 1050.87,497.671L1051.216,510.869L1039.622,510.869ZM1102.171,458.303C1101.598,455.779 1101.715,455.662 1107.564,456.008L1113.531,456.353L1119.27,475.519L1125.008,494.573L1130.29,477.24C1137.405,453.712 1136.257,455.779 1142.224,455.779C1146.932,455.779 1147.389,456.008 1148.536,459.451C1149.11,461.518 1151.868,470.243 1154.509,478.734L1159.211,494.228L1165.067,474.945L1171.034,455.779L1177.118,455.779C1182.628,455.779 1183.202,456.008 1182.511,457.729C1182.054,458.877 1178.037,471.273 1173.557,485.274L1165.295,510.869L1159.328,510.869C1153.361,510.869 1153.361,510.869 1152.096,506.507C1151.523,504.211 1148.999,495.604 1146.586,487.57L1142.224,472.878L1136.603,491.932L1130.864,510.986L1124.78,510.641L1118.585,510.295L1110.779,485.62C1106.417,472.076 1102.517,459.796 1102.171,458.303ZM1203.743,456.008C1203.743,455.897 1212.696,455.897 1223.6,456.008L1243.339,456.353L1243.684,461.173L1244.03,466.109L1214.072,466.109L1214.072,478.734L1241.617,478.734L1241.617,489.063L1214.072,489.063L1214.072,501.688L1243.913,501.688L1243.913,510.869L1203.169,510.869L1203.398,483.67C1203.626,468.633 1203.743,456.236 1203.743,456.008ZM1282.818,463.468L1286.378,455.662L1296.016,456.353L1307.727,483.553L1319.433,510.869L1306.463,510.869L1303.939,505.014L1301.415,499.275L1290.278,499.621L1279.263,499.966L1277.196,505.131C1275.246,510.295 1275.129,510.295 1268.705,510.869C1265.145,511.215 1262.276,511.326 1262.276,510.986C1262.276,510.524 1277.653,474.834 1282.818,463.468ZM1292.116,472.193C1292.116,468.633 1290.166,471.273 1287.642,478.388C1286.149,482.75 1284.656,486.885 1284.311,487.57C1283.965,488.717 1285.687,489.063 1290.851,489.063C1294.757,489.063 1297.855,488.834 1297.855,488.489C1297.855,488.144 1296.59,484.7 1294.985,480.801C1293.381,476.895 1292.116,473.112 1292.116,472.193ZM1339.172,510.641L1339.172,455.434L1353.401,456.008C1369.703,456.81 1374.868,458.532 1378.996,464.844C1384.05,472.421 1381.865,484.818 1374.751,488.489C1372.801,489.52 1371.308,490.556 1371.308,490.784C1371.308,491.13 1374.177,495.375 1377.62,500.423C1381.063,505.476 1383.932,509.839 1383.932,510.178C1383.932,510.524 1381.18,510.869 1377.737,510.869L1371.536,510.869L1365.341,501.114C1359.485,491.704 1359.14,491.358 1355.011,491.358L1350.649,491.358L1350.649,511.443L1344.911,511.098L1339.172,510.641ZM1368.556,468.978C1367.291,467.257 1365.112,466.683 1358.8,466.337L1350.649,465.88L1350.649,482.405L1358.8,481.948C1367.748,481.486 1370.16,479.764 1370.16,474.143C1370.16,472.538 1369.469,470.126 1368.556,468.978Z" style="fill:rgb(107,135,156);"/>
        </g>
    </g>
    <g id="PRINCIPALE" transform="matrix(1,0,0,2.666667,2450,-2533.333333)">
        <rect x="-2450" y="950" width="2400" height="900" style="fill:none;"/>
        <g id="VERTICAL" transform="matrix(2.949554,0,0,1.106083,-2758.552223,836.396839)">
            <path id="VERTICAL1" serif:id="VERTICAL" d="M507.699,180.199C510.301,177.602 511.801,177.5 514.699,179.5C515.898,180.398 526,194.398 537.199,210.801C548.301,227.102 577.199,269.5 601.398,305C646.699,371.5 718.102,476.398 730.801,495.102C738,505.801 739.102,508.5 736.801,510.801C735.898,511.699 708.898,512 621.301,512C513.602,512 506.898,511.898 505.199,510.199C503.801,508.801 502.602,500.199 498.199,459C493.301,412.801 492.801,409.398 490.602,406.5C486.199,400.801 463.301,375.602 457.699,370.199C454.602,367.398 451.199,365 450.102,365C447.5,365 447,365.5 417.898,396C396.199,418.801 343.5,473.898 319.602,498.699C308.602,510.199 304.801,512.199 294.801,511.801L287.5,511.5L287.199,508.5C287,505.898 290.398,500.301 307.602,475C318.898,458.199 333.398,436.801 339.699,427.5C346,418.102 356.602,402.398 363.301,392.5C374.801,375.602 416.801,313.5 444.801,272C487.398,208.898 505.699,182.199 507.699,180.199ZM519.5,253.898C509.898,249.5 499.699,253.801 495,264.199C493.199,268.102 493,271 493,294.5C493,308.801 493.5,324.301 494,329C494.602,333.699 497.699,363.602 501,395.5C510.699,490 512.301,503.801 513.102,500.5C513.5,498.801 516.199,472.699 519,442.5C521.801,412.199 525.801,372.602 527.699,354.5C530.898,325.801 531.301,318.102 531.398,295.5C531.5,267.398 531.102,264.699 526.199,258.801C524.801,257.102 521.801,254.898 519.5,253.898ZM507.102,270.602C510.5,266.301 515.898,267.5 517.898,273.102C518.602,275.102 519,284.898 519,298.699L519,321.102L516.5,323.5C515.199,324.898 513.199,326 512,326C510.898,326 508.801,324.898 507.5,323.5L505,321.102L505,297.199C505,274.5 505.102,273.102 507.102,270.602ZM677,585L677,558L709,558L709,585L677,585ZM730,585L730,558L763,558L763,585L730,585ZM433.5,728L433.5,559L472,559L472,728L433.5,728ZM304.199,567.199L307.199,560L348.5,560L382.699,642.801C401.5,688.301 417.199,726.199 417.5,727C418,728.301 415.398,728.398 396.898,728L375.801,727.5L369,710.5L362.301,693.5L327.699,693.199L293.199,693L287.602,707.199C284.602,715.102 281.5,723 280.898,724.699L279.801,728L238,728L238.898,725.699C239.801,723.5 298.301,581.5 304.199,567.199ZM339.102,633.199C333.102,618.102 328,605.699 327.801,605.5C327.602,605.301 309.5,650.602 306.5,659C306.102,660.301 309,660.5 328,660.898C340.102,661 350,661 350,660.898C350,660.699 345.102,648.199 339.102,633.199ZM700.199,600C709.398,597.602 726.801,597.398 735.898,599.5C752.398,603.398 769.199,617.199 776.801,633C782.301,644.5 786.199,665.102 784.5,673L783.801,676L690,676L690,678.199C690,682.102 694.5,690.398 698.5,693.898C705.801,700.301 718.102,703.699 728.102,702.102C735.801,700.801 742.199,697.602 748.5,691.801L753.801,687L767.102,694.898L780.398,702.898L771.898,711.301C765.102,718.102 761.898,720.5 755,723.801C742.301,729.898 739.398,730.398 721.5,730.5C707.398,730.5 704.699,730.199 698.5,728.199C681,722.301 667.602,711.102 660.102,696C647,669.398 652.301,636.699 672.898,616.102C681.5,607.398 689.199,602.898 700.199,600ZM727.801,627.5C724.898,626.699 721,626 719.102,626.102C705.602,626.5 694.699,635.199 690.602,648.699L689.898,651L748,651L747.398,648.199C745.301,639 737,630.301 727.801,627.5ZM558.301,600.5C562,599.398 567.102,599.102 576,599.398C591,599.801 597.5,601.801 608.699,609.301C620.898,617.5 629.801,630.801 634,647.398C636.398,657.102 636.699,674.5 634.5,683.801C631.199,697.602 620.801,712.301 608.199,720.602C605.102,722.699 598.699,725.699 594,727.398C586.398,730.102 584.301,730.398 574,730.398C564.801,730.301 561.199,729.898 556,728.102C548.301,725.398 541,721 537.5,716.801L535,713.801L535,770L497,770L497,601L535.199,601L534.801,607.898L534.5,614.801L538.699,611C543.5,606.5 550.898,602.602 558.301,600.5ZM579.199,632C569.199,628.199 555.801,630.102 547.5,636.398C528.199,651.102 530,685 550.699,696.199C560.301,701.5 572.602,701.801 581.801,697.102C587,694.5 593.699,687 596.699,680.398C601.301,670.301 600.699,654.898 595.301,646.102C591.699,640.301 584.5,634 579.199,632ZM256.301,793.199C255.898,792.301 257.301,792 261.199,792L266.602,792L271.5,808.5C274.199,817.602 276.699,824.5 276.898,823.801C277.199,823.102 279.5,815.699 282,807.5L286.699,792.5L291.199,792.199L295.801,791.898L298.801,801.699C300.5,807.102 302.801,814.801 304.102,818.898L306.301,826.398L307.602,821.301C308.301,818.602 310.602,810.898 312.699,804.398L316.602,792.5L321.898,792.199C325.898,792 327.102,792.199 326.699,793.199C326.5,793.898 322.898,804.699 318.898,817.199L311.5,840L301.301,840L296.5,823.898C293.801,815.102 291.301,808.5 291,809.199C290.602,809.898 288.301,817.102 285.898,825.199L281.5,840L271.199,840L269.602,835.199C268.801,832.602 265.5,822.398 262.398,812.5C259.301,802.602 256.5,793.898 256.301,793.199ZM353.398,793.898C356.102,792.699 359.801,792 364.5,792C373.199,792 378.301,794.199 383.199,799.898C385.199,802.199 387.301,806.102 388,808.602C390.5,817.398 387.699,829.199 381.801,834.699C375.801,840.301 364.699,842.5 355.898,839.898C343.898,836.301 337.102,821.5 341.199,807.898C342.699,802.699 348.5,796.199 353.398,793.898ZM372.398,802.898C361.5,796.801 350,803.898 350,816.699C350,828.5 362.699,836 372.102,829.699C381.102,823.699 381.301,807.898 372.398,802.898ZM409,792.102C409,791.898 414.5,791.898 421.301,792.199C434.301,792.699 437.5,793.699 441.898,798.398C443.801,800.398 444.5,802.398 444.801,806.898C445.301,813.801 443.398,818.199 439,820.5C437.301,821.398 436,822.301 436,822.5C436,822.801 438.5,826.5 441.5,830.898C444.5,835.301 447,839.102 447,839.398C447,839.699 444.602,840 441.602,840L436.199,840L430.801,831.5C425.699,823.301 425.398,823 421.801,823L418,823L418,840L408.5,840L408.699,816.301C408.898,803.199 409,792.301 409,792.102ZM433.602,803.5C432.5,802 430.602,801.5 425.102,801.199L418,800.801L418,815L424.301,815C432.102,815 435,813.301 435,808.602C435,806.801 434.398,804.5 433.602,803.5ZM467,840L467,791.898L471.801,792.199L476.5,792.5L476.5,802.801C476.5,808.398 476.699,813 477,812.898C477.301,812.898 481.301,808.199 486,802.398L494.5,792L500.301,792C503.398,792 506,792.199 506,792.5C506,792.801 502,797.801 497,803.602C492.102,809.301 488,814.301 488,814.602C488,814.898 492.102,820.398 497.199,826.801C502.199,833.301 506.699,838.898 507.102,839.5C507.602,840.102 505.602,840.398 501.5,840.199L495.102,839.801L486.301,828.398C481.5,822.102 477.301,817 477,817C476.699,817 476.602,822.199 476.801,828.5L477.102,840L467,840ZM521.5,794.199C521,792 521.102,791.898 526.199,792.199L531.398,792.5L536.398,809.199L541.398,825.801L546,810.699C552.199,790.199 551.199,792 556.398,792C560.5,792 560.898,792.199 561.898,795.199C562.398,797 564.801,804.602 567.102,812L571.199,825.5L576.301,808.699L581.5,792L586.801,792C591.602,792 592.102,792.199 591.5,793.699C591.102,794.699 587.602,805.5 583.699,817.699L576.5,840L571.301,840C566.102,840 566.102,840 565,836.199C564.5,834.199 562.301,826.699 560.199,819.699L556.398,806.898L551.5,823.5L546.5,840.102L541.199,839.801L535.801,839.5L529,818C525.199,806.199 521.801,795.5 521.5,794.199ZM610,792.199C610,792.102 617.801,792.102 627.301,792.199L644.5,792.5L644.801,796.699L645.102,801L619,801L619,812L643,812L643,821L619,821L619,832L645,832L645,840L609.5,840L609.699,816.301C609.898,803.199 610,792.398 610,792.199ZM678.898,798.699L682,791.898L690.398,792.5L700.602,816.199L710.801,840L699.5,840L697.301,834.898L695.102,829.898L685.398,830.199L675.801,830.5L674,835C672.301,839.5 672.199,839.5 666.602,840C663.5,840.301 661,840.398 661,840.102C661,839.699 674.398,808.602 678.898,798.699ZM687,806.301C687,803.199 685.301,805.5 683.102,811.699C681.801,815.5 680.5,819.102 680.199,819.699C679.898,820.699 681.398,821 685.898,821C689.301,821 692,820.801 692,820.5C692,820.199 690.898,817.199 689.5,813.801C688.102,810.398 687,807.102 687,806.301ZM728,839.801L728,791.699L740.398,792.199C754.602,792.898 759.102,794.398 762.699,799.898C767.102,806.5 765.199,817.301 759,820.5C757.301,821.398 756,822.301 756,822.5C756,822.801 758.5,826.5 761.5,830.898C764.5,835.301 767,839.102 767,839.398C767,839.699 764.602,840 761.602,840L756.199,840L750.801,831.5C745.699,823.301 745.398,823 741.801,823L738,823L738,840.5L733,840.199L728,839.801ZM753.602,803.5C752.5,802 750.602,801.5 745.102,801.199L738,800.801L738,815.199L745.102,814.801C752.898,814.398 755,812.898 755,808C755,806.602 754.398,804.5 753.602,803.5Z" style="fill:rgb(107,135,156);"/>
        </g>
    </g>
    <g id="COULEURINVERSEE" transform="matrix(1,0,0,2.666667,9800,-22.999439)">
        <rect x="-2450" y="950" width="2400" height="900"/>
        <g id="COULEURINVERSEE1" serif:id="COULEURINVERSEE" transform="matrix(2.949554,0,0,1.106083,-2758.552223,836.396839)">
            <g id="g12">
                <path id="path141" serif:id="path14" d="M507.699,180.199C510.301,177.602 511.801,177.5 514.699,179.5C515.898,180.398 526,194.398 537.199,210.801C548.301,227.102 577.199,269.5 601.398,305C646.699,371.5 718.102,476.398 730.801,495.102C738,505.801 739.102,508.5 736.801,510.801C735.898,511.699 708.898,512 621.301,512C513.602,512 506.898,511.898 505.199,510.199C503.801,508.801 502.602,500.199 498.199,459C493.301,412.801 492.801,409.398 490.602,406.5C486.199,400.801 463.301,375.602 457.699,370.199C454.602,367.398 451.199,365 450.102,365C447.5,365 447,365.5 417.898,396C396.199,418.801 343.5,473.898 319.602,498.699C308.602,510.199 304.801,512.199 294.801,511.801L287.5,511.5L287.199,508.5C287,505.898 290.398,500.301 307.602,475C318.898,458.199 333.398,436.801 339.699,427.5C346,418.102 356.602,402.398 363.301,392.5C374.801,375.602 416.801,313.5 444.801,272C487.398,208.898 505.699,182.199 507.699,180.199ZM519.5,253.898C509.898,249.5 499.699,253.801 495,264.199C493.199,268.102 493,271 493,294.5C493,308.801 493.5,324.301 494,329C494.602,333.699 497.699,363.602 501,395.5C510.699,490 512.301,503.801 513.102,500.5C513.5,498.801 516.199,472.699 519,442.5C521.801,412.199 525.801,372.602 527.699,354.5C530.898,325.801 531.301,318.102 531.398,295.5C531.5,267.398 531.102,264.699 526.199,258.801C524.801,257.102 521.801,254.898 519.5,253.898ZM507.102,270.602C510.5,266.301 515.898,267.5 517.898,273.102C518.602,275.102 519,284.898 519,298.699L519,321.102L516.5,323.5C515.199,324.898 513.199,326 512,326C510.898,326 508.801,324.898 507.5,323.5L505,321.102L505,297.199C505,274.5 505.102,273.102 507.102,270.602ZM677,585L677,558L709,558L709,585L677,585ZM730,585L730,558L763,558L763,585L730,585ZM433.5,728L433.5,559L472,559L472,728L433.5,728ZM304.199,567.199L307.199,560L348.5,560L382.699,642.801C401.5,688.301 417.199,726.199 417.5,727C418,728.301 415.398,728.398 396.898,728L375.801,727.5L369,710.5L362.301,693.5L327.699,693.199L293.199,693L287.602,707.199C284.602,715.102 281.5,723 280.898,724.699L279.801,728L238,728L238.898,725.699C239.801,723.5 298.301,581.5 304.199,567.199ZM339.102,633.199C333.102,618.102 328,605.699 327.801,605.5C327.602,605.301 309.5,650.602 306.5,659C306.102,660.301 309,660.5 328,660.898C340.102,661 350,661 350,660.898C350,660.699 345.102,648.199 339.102,633.199ZM700.199,600C709.398,597.602 726.801,597.398 735.898,599.5C752.398,603.398 769.199,617.199 776.801,633C782.301,644.5 786.199,665.102 784.5,673L783.801,676L690,676L690,678.199C690,682.102 694.5,690.398 698.5,693.898C705.801,700.301 718.102,703.699 728.102,702.102C735.801,700.801 742.199,697.602 748.5,691.801L753.801,687L767.102,694.898L780.398,702.898L771.898,711.301C765.102,718.102 761.898,720.5 755,723.801C742.301,729.898 739.398,730.398 721.5,730.5C707.398,730.5 704.699,730.199 698.5,728.199C681,722.301 667.602,711.102 660.102,696C647,669.398 652.301,636.699 672.898,616.102C681.5,607.398 689.199,602.898 700.199,600ZM727.801,627.5C724.898,626.699 721,626 719.102,626.102C705.602,626.5 694.699,635.199 690.602,648.699L689.898,651L748,651L747.398,648.199C745.301,639 737,630.301 727.801,627.5ZM558.301,600.5C562,599.398 567.102,599.102 576,599.398C591,599.801 597.5,601.801 608.699,609.301C620.898,617.5 629.801,630.801 634,647.398C636.398,657.102 636.699,674.5 634.5,683.801C631.199,697.602 620.801,712.301 608.199,720.602C605.102,722.699 598.699,725.699 594,727.398C586.398,730.102 584.301,730.398 574,730.398C564.801,730.301 561.199,729.898 556,728.102C548.301,725.398 541,721 537.5,716.801L535,713.801L535,770L497,770L497,601L535.199,601L534.801,607.898L534.5,614.801L538.699,611C543.5,606.5 550.898,602.602 558.301,600.5ZM579.199,632C569.199,628.199 555.801,630.102 547.5,636.398C528.199,651.102 530,685 550.699,696.199C560.301,701.5 572.602,701.801 581.801,697.102C587,694.5 593.699,687 596.699,680.398C601.301,670.301 600.699,654.898 595.301,646.102C591.699,640.301 584.5,634 579.199,632ZM256.301,793.199C255.898,792.301 257.301,792 261.199,792L266.602,792L271.5,808.5C274.199,817.602 276.699,824.5 276.898,823.801C277.199,823.102 279.5,815.699 282,807.5L286.699,792.5L291.199,792.199L295.801,791.898L298.801,801.699C300.5,807.102 302.801,814.801 304.102,818.898L306.301,826.398L307.602,821.301C308.301,818.602 310.602,810.898 312.699,804.398L316.602,792.5L321.898,792.199C325.898,792 327.102,792.199 326.699,793.199C326.5,793.898 322.898,804.699 318.898,817.199L311.5,840L301.301,840L296.5,823.898C293.801,815.102 291.301,808.5 291,809.199C290.602,809.898 288.301,817.102 285.898,825.199L281.5,840L271.199,840L269.602,835.199C268.801,832.602 265.5,822.398 262.398,812.5C259.301,802.602 256.5,793.898 256.301,793.199ZM353.398,793.898C356.102,792.699 359.801,792 364.5,792C373.199,792 378.301,794.199 383.199,799.898C385.199,802.199 387.301,806.102 388,808.602C390.5,817.398 387.699,829.199 381.801,834.699C375.801,840.301 364.699,842.5 355.898,839.898C343.898,836.301 337.102,821.5 341.199,807.898C342.699,802.699 348.5,796.199 353.398,793.898ZM372.398,802.898C361.5,796.801 350,803.898 350,816.699C350,828.5 362.699,836 372.102,829.699C381.102,823.699 381.301,807.898 372.398,802.898ZM409,792.102C409,791.898 414.5,791.898 421.301,792.199C434.301,792.699 437.5,793.699 441.898,798.398C443.801,800.398 444.5,802.398 444.801,806.898C445.301,813.801 443.398,818.199 439,820.5C437.301,821.398 436,822.301 436,822.5C436,822.801 438.5,826.5 441.5,830.898C444.5,835.301 447,839.102 447,839.398C447,839.699 444.602,840 441.602,840L436.199,840L430.801,831.5C425.699,823.301 425.398,823 421.801,823L418,823L418,840L408.5,840L408.699,816.301C408.898,803.199 409,792.301 409,792.102ZM433.602,803.5C432.5,802 430.602,801.5 425.102,801.199L418,800.801L418,815L424.301,815C432.102,815 435,813.301 435,808.602C435,806.801 434.398,804.5 433.602,803.5ZM467,840L467,791.898L471.801,792.199L476.5,792.5L476.5,802.801C476.5,808.398 476.699,813 477,812.898C477.301,812.898 481.301,808.199 486,802.398L494.5,792L500.301,792C503.398,792 506,792.199 506,792.5C506,792.801 502,797.801 497,803.602C492.102,809.301 488,814.301 488,814.602C488,814.898 492.102,820.398 497.199,826.801C502.199,833.301 506.699,838.898 507.102,839.5C507.602,840.102 505.602,840.398 501.5,840.199L495.102,839.801L486.301,828.398C481.5,822.102 477.301,817 477,817C476.699,817 476.602,822.199 476.801,828.5L477.102,840L467,840ZM521.5,794.199C521,792 521.102,791.898 526.199,792.199L531.398,792.5L536.398,809.199L541.398,825.801L546,810.699C552.199,790.199 551.199,792 556.398,792C560.5,792 560.898,792.199 561.898,795.199C562.398,797 564.801,804.602 567.102,812L571.199,825.5L576.301,808.699L581.5,792L586.801,792C591.602,792 592.102,792.199 591.5,793.699C591.102,794.699 587.602,805.5 583.699,817.699L576.5,840L571.301,840C566.102,840 566.102,840 565,836.199C564.5,834.199 562.301,826.699 560.199,819.699L556.398,806.898L551.5,823.5L546.5,840.102L541.199,839.801L535.801,839.5L529,818C525.199,806.199 521.801,795.5 521.5,794.199ZM610,792.199C610,792.102 617.801,792.102 627.301,792.199L644.5,792.5L644.801,796.699L645.102,801L619,801L619,812L643,812L643,821L619,821L619,832L645,832L645,840L609.5,840L609.699,816.301C609.898,803.199 610,792.398 610,792.199ZM678.898,798.699L682,791.898L690.398,792.5L700.602,816.199L710.801,840L699.5,840L697.301,834.898L695.102,829.898L685.398,830.199L675.801,830.5L674,835C672.301,839.5 672.199,839.5 666.602,840C663.5,840.301 661,840.398 661,840.102C661,839.699 674.398,808.602 678.898,798.699ZM687,806.301C687,803.199 685.301,805.5 683.102,811.699C681.801,815.5 680.5,819.102 680.199,819.699C679.898,820.699 681.398,821 685.898,821C689.301,821 692,820.801 692,820.5C692,820.199 690.898,817.199 689.5,813.801C688.102,810.398 687,807.102 687,806.301ZM728,839.801L728,791.699L740.398,792.199C754.602,792.898 759.102,794.398 762.699,799.898C767.102,806.5 765.199,817.301 759,820.5C757.301,821.398 756,822.301 756,822.5C756,822.801 758.5,826.5 761.5,830.898C764.5,835.301 767,839.102 767,839.398C767,839.699 764.602,840 761.602,840L756.199,840L750.801,831.5C745.699,823.301 745.398,823 741.801,823L738,823L738,840.5L733,840.199L728,839.801ZM753.602,803.5C752.5,802 750.602,801.5 745.102,801.199L738,800.801L738,815.199L745.102,814.801C752.898,814.398 755,812.898 755,808C755,806.602 754.398,804.5 753.602,803.5Z" style="fill:rgb(107,135,156);"/>
            </g>
        </g>
    </g>
    <g id="GRAYSCALE" transform="matrix(1,0,0,2.666667,7350,-22.999439)">
        <rect x="-2450" y="950" width="2400" height="900" style="fill:none;"/>
        <g id="GRAYSCALE1" serif:id="GRAYSCALE" transform="matrix(2.949554,0,0,1.106083,-2758.552223,836.396839)">
            <g id="g121" serif:id="g12">
                <path id="path142" serif:id="path14" d="M507.699,180.199C510.301,177.602 511.801,177.5 514.699,179.5C515.898,180.398 526,194.398 537.199,210.801C548.301,227.102 577.199,269.5 601.398,305C646.699,371.5 718.102,476.398 730.801,495.102C738,505.801 739.102,508.5 736.801,510.801C735.898,511.699 708.898,512 621.301,512C513.602,512 506.898,511.898 505.199,510.199C503.801,508.801 502.602,500.199 498.199,459C493.301,412.801 492.801,409.398 490.602,406.5C486.199,400.801 463.301,375.602 457.699,370.199C454.602,367.398 451.199,365 450.102,365C447.5,365 447,365.5 417.898,396C396.199,418.801 343.5,473.898 319.602,498.699C308.602,510.199 304.801,512.199 294.801,511.801L287.5,511.5L287.199,508.5C287,505.898 290.398,500.301 307.602,475C318.898,458.199 333.398,436.801 339.699,427.5C346,418.102 356.602,402.398 363.301,392.5C374.801,375.602 416.801,313.5 444.801,272C487.398,208.898 505.699,182.199 507.699,180.199ZM519.5,253.898C509.898,249.5 499.699,253.801 495,264.199C493.199,268.102 493,271 493,294.5C493,308.801 493.5,324.301 494,329C494.602,333.699 497.699,363.602 501,395.5C510.699,490 512.301,503.801 513.102,500.5C513.5,498.801 516.199,472.699 519,442.5C521.801,412.199 525.801,372.602 527.699,354.5C530.898,325.801 531.301,318.102 531.398,295.5C531.5,267.398 531.102,264.699 526.199,258.801C524.801,257.102 521.801,254.898 519.5,253.898ZM507.102,270.602C510.5,266.301 515.898,267.5 517.898,273.102C518.602,275.102 519,284.898 519,298.699L519,321.102L516.5,323.5C515.199,324.898 513.199,326 512,326C510.898,326 508.801,324.898 507.5,323.5L505,321.102L505,297.199C505,274.5 505.102,273.102 507.102,270.602ZM677,585L677,558L709,558L709,585L677,585ZM730,585L730,558L763,558L763,585L730,585ZM433.5,728L433.5,559L472,559L472,728L433.5,728ZM304.199,567.199L307.199,560L348.5,560L382.699,642.801C401.5,688.301 417.199,726.199 417.5,727C418,728.301 415.398,728.398 396.898,728L375.801,727.5L369,710.5L362.301,693.5L327.699,693.199L293.199,693L287.602,707.199C284.602,715.102 281.5,723 280.898,724.699L279.801,728L238,728L238.898,725.699C239.801,723.5 298.301,581.5 304.199,567.199ZM339.102,633.199C333.102,618.102 328,605.699 327.801,605.5C327.602,605.301 309.5,650.602 306.5,659C306.102,660.301 309,660.5 328,660.898C340.102,661 350,661 350,660.898C350,660.699 345.102,648.199 339.102,633.199ZM700.199,600C709.398,597.602 726.801,597.398 735.898,599.5C752.398,603.398 769.199,617.199 776.801,633C782.301,644.5 786.199,665.102 784.5,673L783.801,676L690,676L690,678.199C690,682.102 694.5,690.398 698.5,693.898C705.801,700.301 718.102,703.699 728.102,702.102C735.801,700.801 742.199,697.602 748.5,691.801L753.801,687L767.102,694.898L780.398,702.898L771.898,711.301C765.102,718.102 761.898,720.5 755,723.801C742.301,729.898 739.398,730.398 721.5,730.5C707.398,730.5 704.699,730.199 698.5,728.199C681,722.301 667.602,711.102 660.102,696C647,669.398 652.301,636.699 672.898,616.102C681.5,607.398 689.199,602.898 700.199,600ZM727.801,627.5C724.898,626.699 721,626 719.102,626.102C705.602,626.5 694.699,635.199 690.602,648.699L689.898,651L748,651L747.398,648.199C745.301,639 737,630.301 727.801,627.5ZM558.301,600.5C562,599.398 567.102,599.102 576,599.398C591,599.801 597.5,601.801 608.699,609.301C620.898,617.5 629.801,630.801 634,647.398C636.398,657.102 636.699,674.5 634.5,683.801C631.199,697.602 620.801,712.301 608.199,720.602C605.102,722.699 598.699,725.699 594,727.398C586.398,730.102 584.301,730.398 574,730.398C564.801,730.301 561.199,729.898 556,728.102C548.301,725.398 541,721 537.5,716.801L535,713.801L535,770L497,770L497,601L535.199,601L534.801,607.898L534.5,614.801L538.699,611C543.5,606.5 550.898,602.602 558.301,600.5ZM579.199,632C569.199,628.199 555.801,630.102 547.5,636.398C528.199,651.102 530,685 550.699,696.199C560.301,701.5 572.602,701.801 581.801,697.102C587,694.5 593.699,687 596.699,680.398C601.301,670.301 600.699,654.898 595.301,646.102C591.699,640.301 584.5,634 579.199,632ZM256.301,793.199C255.898,792.301 257.301,792 261.199,792L266.602,792L271.5,808.5C274.199,817.602 276.699,824.5 276.898,823.801C277.199,823.102 279.5,815.699 282,807.5L286.699,792.5L291.199,792.199L295.801,791.898L298.801,801.699C300.5,807.102 302.801,814.801 304.102,818.898L306.301,826.398L307.602,821.301C308.301,818.602 310.602,810.898 312.699,804.398L316.602,792.5L321.898,792.199C325.898,792 327.102,792.199 326.699,793.199C326.5,793.898 322.898,804.699 318.898,817.199L311.5,840L301.301,840L296.5,823.898C293.801,815.102 291.301,808.5 291,809.199C290.602,809.898 288.301,817.102 285.898,825.199L281.5,840L271.199,840L269.602,835.199C268.801,832.602 265.5,822.398 262.398,812.5C259.301,802.602 256.5,793.898 256.301,793.199ZM353.398,793.898C356.102,792.699 359.801,792 364.5,792C373.199,792 378.301,794.199 383.199,799.898C385.199,802.199 387.301,806.102 388,808.602C390.5,817.398 387.699,829.199 381.801,834.699C375.801,840.301 364.699,842.5 355.898,839.898C343.898,836.301 337.102,821.5 341.199,807.898C342.699,802.699 348.5,796.199 353.398,793.898ZM372.398,802.898C361.5,796.801 350,803.898 350,816.699C350,828.5 362.699,836 372.102,829.699C381.102,823.699 381.301,807.898 372.398,802.898ZM409,792.102C409,791.898 414.5,791.898 421.301,792.199C434.301,792.699 437.5,793.699 441.898,798.398C443.801,800.398 444.5,802.398 444.801,806.898C445.301,813.801 443.398,818.199 439,820.5C437.301,821.398 436,822.301 436,822.5C436,822.801 438.5,826.5 441.5,830.898C444.5,835.301 447,839.102 447,839.398C447,839.699 444.602,840 441.602,840L436.199,840L430.801,831.5C425.699,823.301 425.398,823 421.801,823L418,823L418,840L408.5,840L408.699,816.301C408.898,803.199 409,792.301 409,792.102ZM433.602,803.5C432.5,802 430.602,801.5 425.102,801.199L418,800.801L418,815L424.301,815C432.102,815 435,813.301 435,808.602C435,806.801 434.398,804.5 433.602,803.5ZM467,840L467,791.898L471.801,792.199L476.5,792.5L476.5,802.801C476.5,808.398 476.699,813 477,812.898C477.301,812.898 481.301,808.199 486,802.398L494.5,792L500.301,792C503.398,792 506,792.199 506,792.5C506,792.801 502,797.801 497,803.602C492.102,809.301 488,814.301 488,814.602C488,814.898 492.102,820.398 497.199,826.801C502.199,833.301 506.699,838.898 507.102,839.5C507.602,840.102 505.602,840.398 501.5,840.199L495.102,839.801L486.301,828.398C481.5,822.102 477.301,817 477,817C476.699,817 476.602,822.199 476.801,828.5L477.102,840L467,840ZM521.5,794.199C521,792 521.102,791.898 526.199,792.199L531.398,792.5L536.398,809.199L541.398,825.801L546,810.699C552.199,790.199 551.199,792 556.398,792C560.5,792 560.898,792.199 561.898,795.199C562.398,797 564.801,804.602 567.102,812L571.199,825.5L576.301,808.699L581.5,792L586.801,792C591.602,792 592.102,792.199 591.5,793.699C591.102,794.699 587.602,805.5 583.699,817.699L576.5,840L571.301,840C566.102,840 566.102,840 565,836.199C564.5,834.199 562.301,826.699 560.199,819.699L556.398,806.898L551.5,823.5L546.5,840.102L541.199,839.801L535.801,839.5L529,818C525.199,806.199 521.801,795.5 521.5,794.199ZM610,792.199C610,792.102 617.801,792.102 627.301,792.199L644.5,792.5L644.801,796.699L645.102,801L619,801L619,812L643,812L643,821L619,821L619,832L645,832L645,840L609.5,840L609.699,816.301C609.898,803.199 610,792.398 610,792.199ZM678.898,798.699L682,791.898L690.398,792.5L700.602,816.199L710.801,840L699.5,840L697.301,834.898L695.102,829.898L685.398,830.199L675.801,830.5L674,835C672.301,839.5 672.199,839.5 666.602,840C663.5,840.301 661,840.398 661,840.102C661,839.699 674.398,808.602 678.898,798.699ZM687,806.301C687,803.199 685.301,805.5 683.102,811.699C681.801,815.5 680.5,819.102 680.199,819.699C679.898,820.699 681.398,821 685.898,821C689.301,821 692,820.801 692,820.5C692,820.199 690.898,817.199 689.5,813.801C688.102,810.398 687,807.102 687,806.301ZM728,839.801L728,791.699L740.398,792.199C754.602,792.898 759.102,794.398 762.699,799.898C767.102,806.5 765.199,817.301 759,820.5C757.301,821.398 756,822.301 756,822.5C756,822.801 758.5,826.5 761.5,830.898C764.5,835.301 767,839.102 767,839.398C767,839.699 764.602,840 761.602,840L756.199,840L750.801,831.5C745.699,823.301 745.398,823 741.801,823L738,823L738,840.5L733,840.199L728,839.801ZM753.602,803.5C752.5,802 750.602,801.5 745.102,801.199L738,800.801L738,815.199L745.102,814.801C752.898,814.398 755,812.898 755,808C755,806.602 754.398,804.5 753.602,803.5Z" style="fill:rgb(130,130,129);"/>
            </g>
        </g>
    </g>
    <g id="MONOCHROMENOIR" transform="matrix(1,0,0,2.666667,2450,-22.999439)">
        <rect x="-2450" y="950" width="2400" height="900" style="fill:none;"/>
        <g id="MONOCHROMENOIR1" serif:id="MONOCHROMENOIR" transform="matrix(2.949554,0,0,1.106083,-2758.552223,836.396839)">
            <path d="M507.699,180.199C510.301,177.602 511.801,177.5 514.699,179.5C515.898,180.398 526,194.398 537.199,210.801C548.301,227.102 577.199,269.5 601.398,305C646.699,371.5 718.102,476.398 730.801,495.102C738,505.801 739.102,508.5 736.801,510.801C735.898,511.699 708.898,512 621.301,512C513.602,512 506.898,511.898 505.199,510.199C503.801,508.801 502.602,500.199 498.199,459C493.301,412.801 492.801,409.398 490.602,406.5C486.199,400.801 463.301,375.602 457.699,370.199C454.602,367.398 451.199,365 450.102,365C447.5,365 447,365.5 417.898,396C396.199,418.801 343.5,473.898 319.602,498.699C308.602,510.199 304.801,512.199 294.801,511.801L287.5,511.5L287.199,508.5C287,505.898 290.398,500.301 307.602,475C318.898,458.199 333.398,436.801 339.699,427.5C346,418.102 356.602,402.398 363.301,392.5C374.801,375.602 416.801,313.5 444.801,272C487.398,208.898 505.699,182.199 507.699,180.199ZM519.5,253.898C509.898,249.5 499.699,253.801 495,264.199C493.199,268.102 493,271 493,294.5C493,308.801 493.5,324.301 494,329C494.602,333.699 497.699,363.602 501,395.5C510.699,490 512.301,503.801 513.102,500.5C513.5,498.801 516.199,472.699 519,442.5C521.801,412.199 525.801,372.602 527.699,354.5C530.898,325.801 531.301,318.102 531.398,295.5C531.5,267.398 531.102,264.699 526.199,258.801C524.801,257.102 521.801,254.898 519.5,253.898ZM507.102,270.602C510.5,266.301 515.898,267.5 517.898,273.102C518.602,275.102 519,284.898 519,298.699L519,321.102L516.5,323.5C515.199,324.898 513.199,326 512,326C510.898,326 508.801,324.898 507.5,323.5L505,321.102L505,297.199C505,274.5 505.102,273.102 507.102,270.602ZM677,585L677,558L709,558L709,585L677,585ZM730,585L730,558L763,558L763,585L730,585ZM433.5,728L433.5,559L472,559L472,728L433.5,728ZM304.199,567.199L307.199,560L348.5,560L382.699,642.801C401.5,688.301 417.199,726.199 417.5,727C418,728.301 415.398,728.398 396.898,728L375.801,727.5L369,710.5L362.301,693.5L327.699,693.199L293.199,693L287.602,707.199C284.602,715.102 281.5,723 280.898,724.699L279.801,728L238,728L238.898,725.699C239.801,723.5 298.301,581.5 304.199,567.199ZM339.102,633.199C333.102,618.102 328,605.699 327.801,605.5C327.602,605.301 309.5,650.602 306.5,659C306.102,660.301 309,660.5 328,660.898C340.102,661 350,661 350,660.898C350,660.699 345.102,648.199 339.102,633.199ZM700.199,600C709.398,597.602 726.801,597.398 735.898,599.5C752.398,603.398 769.199,617.199 776.801,633C782.301,644.5 786.199,665.102 784.5,673L783.801,676L690,676L690,678.199C690,682.102 694.5,690.398 698.5,693.898C705.801,700.301 718.102,703.699 728.102,702.102C735.801,700.801 742.199,697.602 748.5,691.801L753.801,687L767.102,694.898L780.398,702.898L771.898,711.301C765.102,718.102 761.898,720.5 755,723.801C742.301,729.898 739.398,730.398 721.5,730.5C707.398,730.5 704.699,730.199 698.5,728.199C681,722.301 667.602,711.102 660.102,696C647,669.398 652.301,636.699 672.898,616.102C681.5,607.398 689.199,602.898 700.199,600ZM727.801,627.5C724.898,626.699 721,626 719.102,626.102C705.602,626.5 694.699,635.199 690.602,648.699L689.898,651L748,651L747.398,648.199C745.301,639 737,630.301 727.801,627.5ZM558.301,600.5C562,599.398 567.102,599.102 576,599.398C591,599.801 597.5,601.801 608.699,609.301C620.898,617.5 629.801,630.801 634,647.398C636.398,657.102 636.699,674.5 634.5,683.801C631.199,697.602 620.801,712.301 608.199,720.602C605.102,722.699 598.699,725.699 594,727.398C586.398,730.102 584.301,730.398 574,730.398C564.801,730.301 561.199,729.898 556,728.102C548.301,725.398 541,721 537.5,716.801L535,713.801L535,770L497,770L497,601L535.199,601L534.801,607.898L534.5,614.801L538.699,611C543.5,606.5 550.898,602.602 558.301,600.5ZM579.199,632C569.199,628.199 555.801,630.102 547.5,636.398C528.199,651.102 530,685 550.699,696.199C560.301,701.5 572.602,701.801 581.801,697.102C587,694.5 593.699,687 596.699,680.398C601.301,670.301 600.699,654.898 595.301,646.102C591.699,640.301 584.5,634 579.199,632ZM256.301,793.199C255.898,792.301 257.301,792 261.199,792L266.602,792L271.5,808.5C274.199,817.602 276.699,824.5 276.898,823.801C277.199,823.102 279.5,815.699 282,807.5L286.699,792.5L291.199,792.199L295.801,791.898L298.801,801.699C300.5,807.102 302.801,814.801 304.102,818.898L306.301,826.398L307.602,821.301C308.301,818.602 310.602,810.898 312.699,804.398L316.602,792.5L321.898,792.199C325.898,792 327.102,792.199 326.699,793.199C326.5,793.898 322.898,804.699 318.898,817.199L311.5,840L301.301,840L296.5,823.898C293.801,815.102 291.301,808.5 291,809.199C290.602,809.898 288.301,817.102 285.898,825.199L281.5,840L271.199,840L269.602,835.199C268.801,832.602 265.5,822.398 262.398,812.5C259.301,802.602 256.5,793.898 256.301,793.199ZM353.398,793.898C356.102,792.699 359.801,792 364.5,792C373.199,792 378.301,794.199 383.199,799.898C385.199,802.199 387.301,806.102 388,808.602C390.5,817.398 387.699,829.199 381.801,834.699C375.801,840.301 364.699,842.5 355.898,839.898C343.898,836.301 337.102,821.5 341.199,807.898C342.699,802.699 348.5,796.199 353.398,793.898ZM372.398,802.898C361.5,796.801 350,803.898 350,816.699C350,828.5 362.699,836 372.102,829.699C381.102,823.699 381.301,807.898 372.398,802.898ZM409,792.102C409,791.898 414.5,791.898 421.301,792.199C434.301,792.699 437.5,793.699 441.898,798.398C443.801,800.398 444.5,802.398 444.801,806.898C445.301,813.801 443.398,818.199 439,820.5C437.301,821.398 436,822.301 436,822.5C436,822.801 438.5,826.5 441.5,830.898C444.5,835.301 447,839.102 447,839.398C447,839.699 444.602,840 441.602,840L436.199,840L430.801,831.5C425.699,823.301 425.398,823 421.801,823L418,823L418,840L408.5,840L408.699,816.301C408.898,803.199 409,792.301 409,792.102ZM433.602,803.5C432.5,802 430.602,801.5 425.102,801.199L418,800.801L418,815L424.301,815C432.102,815 435,813.301 435,808.602C435,806.801 434.398,804.5 433.602,803.5ZM467,840L467,791.898L471.801,792.199L476.5,792.5L476.5,802.801C476.5,808.398 476.699,813 477,812.898C477.301,812.898 481.301,808.199 486,802.398L494.5,792L500.301,792C503.398,792 506,792.199 506,792.5C506,792.801 502,797.801 497,803.602C492.102,809.301 488,814.301 488,814.602C488,814.898 492.102,820.398 497.199,826.801C502.199,833.301 506.699,838.898 507.102,839.5C507.602,840.102 505.602,840.398 501.5,840.199L495.102,839.801L486.301,828.398C481.5,822.102 477.301,817 477,817C476.699,817 476.602,822.199 476.801,828.5L477.102,840L467,840ZM521.5,794.199C521,792 521.102,791.898 526.199,792.199L531.398,792.5L536.398,809.199L541.398,825.801L546,810.699C552.199,790.199 551.199,792 556.398,792C560.5,792 560.898,792.199 561.898,795.199C562.398,797 564.801,804.602 567.102,812L571.199,825.5L576.301,808.699L581.5,792L586.801,792C591.602,792 592.102,792.199 591.5,793.699C591.102,794.699 587.602,805.5 583.699,817.699L576.5,840L571.301,840C566.102,840 566.102,840 565,836.199C564.5,834.199 562.301,826.699 560.199,819.699L556.398,806.898L551.5,823.5L546.5,840.102L541.199,839.801L535.801,839.5L529,818C525.199,806.199 521.801,795.5 521.5,794.199ZM610,792.199C610,792.102 617.801,792.102 627.301,792.199L644.5,792.5L644.801,796.699L645.102,801L619,801L619,812L643,812L643,821L619,821L619,832L645,832L645,840L609.5,840L609.699,816.301C609.898,803.199 610,792.398 610,792.199ZM678.898,798.699L682,791.898L690.398,792.5L700.602,816.199L710.801,840L699.5,840L697.301,834.898L695.102,829.898L685.398,830.199L675.801,830.5L674,835C672.301,839.5 672.199,839.5 666.602,840C663.5,840.301 661,840.398 661,840.102C661,839.699 674.398,808.602 678.898,798.699ZM687,806.301C687,803.199 685.301,805.5 683.102,811.699C681.801,815.5 680.5,819.102 680.199,819.699C679.898,820.699 681.398,821 685.898,821C689.301,821 692,820.801 692,820.5C692,820.199 690.898,817.199 689.5,813.801C688.102,810.398 687,807.102 687,806.301ZM728,839.801L728,791.699L740.398,792.199C754.602,792.898 759.102,794.398 762.699,799.898C767.102,806.5 765.199,817.301 759,820.5C757.301,821.398 756,822.301 756,822.5C756,822.801 758.5,826.5 761.5,830.898C764.5,835.301 767,839.102 767,839.398C767,839.699 764.602,840 761.602,840L756.199,840L750.801,831.5C745.699,823.301 745.398,823 741.801,823L738,823L738,840.5L733,840.199L728,839.801ZM753.602,803.5C752.5,802 750.602,801.5 745.102,801.199L738,800.801L738,815.199L745.102,814.801C752.898,814.398 755,812.898 755,808C755,806.602 754.398,804.5 753.602,803.5Z"/>
        </g>
    </g>
    <g id="SUBMARK" transform="matrix(0.50001,0,0,1.159618,3649.977183,2457.980899)">
        <rect x="0" y="-950" width="2400" height="900" style="fill:none;"/>
        <g id="SUBMARK1" serif:id="SUBMARK" transform="matrix(5.08117,0,0,2.190922,-1404.280678,-1278.773408)">
            <path d="M507.699,180.199C510.301,177.602 511.801,177.5 514.699,179.5C515.898,180.398 526,194.398 537.199,210.801C548.301,227.102 577.199,269.5 601.398,305C646.699,371.5 718.102,476.398 730.801,495.102C738,505.801 739.102,508.5 736.801,510.801C735.898,511.699 708.898,512 621.301,512C513.602,512 506.898,511.898 505.199,510.199C503.801,508.801 502.602,500.199 498.199,459C493.301,412.801 492.801,409.398 490.602,406.5C486.199,400.801 463.301,375.602 457.699,370.199C454.602,367.398 451.199,365 450.102,365C447.5,365 447,365.5 417.898,396C396.199,418.801 343.5,473.898 319.602,498.699C308.602,510.199 304.801,512.199 294.801,511.801L287.5,511.5L287.199,508.5C287,505.898 290.398,500.301 307.602,475C318.898,458.199 333.398,436.801 339.699,427.5C346,418.102 356.602,402.398 363.301,392.5C374.801,375.602 416.801,313.5 444.801,272C487.398,208.898 505.699,182.199 507.699,180.199ZM519.5,253.898C509.898,249.5 499.699,253.801 495,264.199C493.199,268.102 493,271 493,294.5C493,308.801 493.5,324.301 494,329C494.602,333.699 497.699,363.602 501,395.5C510.699,490 512.301,503.801 513.102,500.5C513.5,498.801 516.199,472.699 519,442.5C521.801,412.199 525.801,372.602 527.699,354.5C530.898,325.801 531.301,318.102 531.398,295.5C531.5,267.398 531.102,264.699 526.199,258.801C524.801,257.102 521.801,254.898 519.5,253.898ZM507.102,270.602C510.5,266.301 515.898,267.5 517.898,273.102C518.602,275.102 519,284.898 519,298.699L519,321.102L516.5,323.5C515.199,324.898 513.199,326 512,326C510.898,326 508.801,324.898 507.5,323.5L505,321.102L505,297.199C505,274.5 505.102,273.102 507.102,270.602Z" style="fill:rgb(107,135,156);"/>
        </g>
    </g>
    <g id="FAVICON32X32" transform="matrix(0.016587,0,0,0.048524,3498.032857,2227.217377)">
        <rect x="0" y="-950" width="2400" height="900" style="fill:none;"/>
        <g id="FAVICON32X321" serif:id="FAVICON32X32" transform="matrix(4.274991,0,0,1.975876,-968.448004,-1209.689163)">
            <path d="M507.699,180.199C510.301,177.602 511.801,177.5 514.699,179.5C515.898,180.398 526,194.398 537.199,210.801C548.301,227.102 577.199,269.5 601.398,305C646.699,371.5 718.102,476.398 730.801,495.102C738,505.801 739.102,508.5 736.801,510.801C735.898,511.699 708.898,512 621.301,512C513.602,512 506.898,511.898 505.199,510.199C503.801,508.801 502.602,500.199 498.199,459C493.301,412.801 492.801,409.398 490.602,406.5C486.199,400.801 463.301,375.602 457.699,370.199C454.602,367.398 451.199,365 450.102,365C447.5,365 447,365.5 417.898,396C396.199,418.801 343.5,473.898 319.602,498.699C308.602,510.199 304.801,512.199 294.801,511.801L287.5,511.5L287.199,508.5C287,505.898 290.398,500.301 307.602,475C318.898,458.199 333.398,436.801 339.699,427.5C346,418.102 356.602,402.398 363.301,392.5C374.801,375.602 416.801,313.5 444.801,272C487.398,208.898 505.699,182.199 507.699,180.199ZM519.5,253.898C509.898,249.5 499.699,253.801 495,264.199C493.199,268.102 493,271 493,294.5C493,308.801 493.5,324.301 494,329C494.602,333.699 497.699,363.602 501,395.5C510.699,490 512.301,503.801 513.102,500.5C513.5,498.801 516.199,472.699 519,442.5C521.801,412.199 525.801,372.602 527.699,354.5C530.898,325.801 531.301,318.102 531.398,295.5C531.5,267.398 531.102,264.699 526.199,258.801C524.801,257.102 521.801,254.898 519.5,253.898ZM507.102,270.602C510.5,266.301 515.898,267.5 517.898,273.102C518.602,275.102 519,284.898 519,298.699L519,321.102L516.5,323.5C515.199,324.898 513.199,326 512,326C510.898,326 508.801,324.898 507.5,323.5L505,321.102L505,297.199C505,274.5 505.102,273.102 507.102,270.602Z" style="fill:rgb(107,135,156);"/>
        </g>
    </g>
    <g id="MONOCHROMREBLANC" transform="matrix(1,0,0,2.666667,4900,-22.999439)">
        <rect x="-2450" y="950" width="2400" height="900" style="fill:rgb(107,135,156);"/>
        <g id="g10" transform="matrix(2.949554,0,0,1.106083,-2758.552223,836.396839)">
            <path id="g122" serif:id="g12" d="M507.699,180.199C510.301,177.602 511.801,177.5 514.699,179.5C515.898,180.398 526,194.398 537.199,210.801C548.301,227.102 577.199,269.5 601.398,305C646.699,371.5 718.102,476.398 730.801,495.102C738,505.801 739.102,508.5 736.801,510.801C735.898,511.699 708.898,512 621.301,512C513.602,512 506.898,511.898 505.199,510.199C503.801,508.801 502.602,500.199 498.199,459C493.301,412.801 492.801,409.398 490.602,406.5C486.199,400.801 463.301,375.602 457.699,370.199C454.602,367.398 451.199,365 450.102,365C447.5,365 447,365.5 417.898,396C396.199,418.801 343.5,473.898 319.602,498.699C308.602,510.199 304.801,512.199 294.801,511.801L287.5,511.5L287.199,508.5C287,505.898 290.398,500.301 307.602,475C318.898,458.199 333.398,436.801 339.699,427.5C346,418.102 356.602,402.398 363.301,392.5C374.801,375.602 416.801,313.5 444.801,272C487.398,208.898 505.699,182.199 507.699,180.199ZM519.5,253.898C509.898,249.5 499.699,253.801 495,264.199C493.199,268.102 493,271 493,294.5C493,308.801 493.5,324.301 494,329C494.602,333.699 497.699,363.602 501,395.5C510.699,490 512.301,503.801 513.102,500.5C513.5,498.801 516.199,472.699 519,442.5C521.801,412.199 525.801,372.602 527.699,354.5C530.898,325.801 531.301,318.102 531.398,295.5C531.5,267.398 531.102,264.699 526.199,258.801C524.801,257.102 521.801,254.898 519.5,253.898ZM507.102,270.602C510.5,266.301 515.898,267.5 517.898,273.102C518.602,275.102 519,284.898 519,298.699L519,321.102L516.5,323.5C515.199,324.898 513.199,326 512,326C510.898,326 508.801,324.898 507.5,323.5L505,321.102L505,297.199C505,274.5 505.102,273.102 507.102,270.602ZM677,585L677,558L709,558L709,585L677,585ZM730,585L730,558L763,558L763,585L730,585ZM433.5,728L433.5,559L472,559L472,728L433.5,728ZM304.199,567.199L307.199,560L348.5,560L382.699,642.801C401.5,688.301 417.199,726.199 417.5,727C418,728.301 415.398,728.398 396.898,728L375.801,727.5L369,710.5L362.301,693.5L327.699,693.199L293.199,693L287.602,707.199C284.602,715.102 281.5,723 280.898,724.699L279.801,728L238,728L238.898,725.699C239.801,723.5 298.301,581.5 304.199,567.199ZM339.102,633.199C333.102,618.102 328,605.699 327.801,605.5C327.602,605.301 309.5,650.602 306.5,659C306.102,660.301 309,660.5 328,660.898C340.102,661 350,661 350,660.898C350,660.699 345.102,648.199 339.102,633.199ZM700.199,600C709.398,597.602 726.801,597.398 735.898,599.5C752.398,603.398 769.199,617.199 776.801,633C782.301,644.5 786.199,665.102 784.5,673L783.801,676L690,676L690,678.199C690,682.102 694.5,690.398 698.5,693.898C705.801,700.301 718.102,703.699 728.102,702.102C735.801,700.801 742.199,697.602 748.5,691.801L753.801,687L767.102,694.898L780.398,702.898L771.898,711.301C765.102,718.102 761.898,720.5 755,723.801C742.301,729.898 739.398,730.398 721.5,730.5C707.398,730.5 704.699,730.199 698.5,728.199C681,722.301 667.602,711.102 660.102,696C647,669.398 652.301,636.699 672.898,616.102C681.5,607.398 689.199,602.898 700.199,600ZM727.801,627.5C724.898,626.699 721,626 719.102,626.102C705.602,626.5 694.699,635.199 690.602,648.699L689.898,651L748,651L747.398,648.199C745.301,639 737,630.301 727.801,627.5ZM558.301,600.5C562,599.398 567.102,599.102 576,599.398C591,599.801 597.5,601.801 608.699,609.301C620.898,617.5 629.801,630.801 634,647.398C636.398,657.102 636.699,674.5 634.5,683.801C631.199,697.602 620.801,712.301 608.199,720.602C605.102,722.699 598.699,725.699 594,727.398C586.398,730.102 584.301,730.398 574,730.398C564.801,730.301 561.199,729.898 556,728.102C548.301,725.398 541,721 537.5,716.801L535,713.801L535,770L497,770L497,601L535.199,601L534.801,607.898L534.5,614.801L538.699,611C543.5,606.5 550.898,602.602 558.301,600.5ZM579.199,632C569.199,628.199 555.801,630.102 547.5,636.398C528.199,651.102 530,685 550.699,696.199C560.301,701.5 572.602,701.801 581.801,697.102C587,694.5 593.699,687 596.699,680.398C601.301,670.301 600.699,654.898 595.301,646.102C591.699,640.301 584.5,634 579.199,632ZM256.301,793.199C255.898,792.301 257.301,792 261.199,792L266.602,792L271.5,808.5C274.199,817.602 276.699,824.5 276.898,823.801C277.199,823.102 279.5,815.699 282,807.5L286.699,792.5L291.199,792.199L295.801,791.898L298.801,801.699C300.5,807.102 302.801,814.801 304.102,818.898L306.301,826.398L307.602,821.301C308.301,818.602 310.602,810.898 312.699,804.398L316.602,792.5L321.898,792.199C325.898,792 327.102,792.199 326.699,793.199C326.5,793.898 322.898,804.699 318.898,817.199L311.5,840L301.301,840L296.5,823.898C293.801,815.102 291.301,808.5 291,809.199C290.602,809.898 288.301,817.102 285.898,825.199L281.5,840L271.199,840L269.602,835.199C268.801,832.602 265.5,822.398 262.398,812.5C259.301,802.602 256.5,793.898 256.301,793.199ZM353.398,793.898C356.102,792.699 359.801,792 364.5,792C373.199,792 378.301,794.199 383.199,799.898C385.199,802.199 387.301,806.102 388,808.602C390.5,817.398 387.699,829.199 381.801,834.699C375.801,840.301 364.699,842.5 355.898,839.898C343.898,836.301 337.102,821.5 341.199,807.898C342.699,802.699 348.5,796.199 353.398,793.898ZM372.398,802.898C361.5,796.801 350,803.898 350,816.699C350,828.5 362.699,836 372.102,829.699C381.102,823.699 381.301,807.898 372.398,802.898ZM409,792.102C409,791.898 414.5,791.898 421.301,792.199C434.301,792.699 437.5,793.699 441.898,798.398C443.801,800.398 444.5,802.398 444.801,806.898C445.301,813.801 443.398,818.199 439,820.5C437.301,821.398 436,822.301 436,822.5C436,822.801 438.5,826.5 441.5,830.898C444.5,835.301 447,839.102 447,839.398C447,839.699 444.602,840 441.602,840L436.199,840L430.801,831.5C425.699,823.301 425.398,823 421.801,823L418,823L418,840L408.5,840L408.699,816.301C408.898,803.199 409,792.301 409,792.102ZM433.602,803.5C432.5,802 430.602,801.5 425.102,801.199L418,800.801L418,815L424.301,815C432.102,815 435,813.301 435,808.602C435,806.801 434.398,804.5 433.602,803.5ZM467,840L467,791.898L471.801,792.199L476.5,792.5L476.5,802.801C476.5,808.398 476.699,813 477,812.898C477.301,812.898 481.301,808.199 486,802.398L494.5,792L500.301,792C503.398,792 506,792.199 506,792.5C506,792.801 502,797.801 497,803.602C492.102,809.301 488,814.301 488,814.602C488,814.898 492.102,820.398 497.199,826.801C502.199,833.301 506.699,838.898 507.102,839.5C507.602,840.102 505.602,840.398 501.5,840.199L495.102,839.801L486.301,828.398C481.5,822.102 477.301,817 477,817C476.699,817 476.602,822.199 476.801,828.5L477.102,840L467,840ZM521.5,794.199C521,792 521.102,791.898 526.199,792.199L531.398,792.5L536.398,809.199L541.398,825.801L546,810.699C552.199,790.199 551.199,792 556.398,792C560.5,792 560.898,792.199 561.898,795.199C562.398,797 564.801,804.602 567.102,812L571.199,825.5L576.301,808.699L581.5,792L586.801,792C591.602,792 592.102,792.199 591.5,793.699C591.102,794.699 587.602,805.5 583.699,817.699L576.5,840L571.301,840C566.102,840 566.102,840 565,836.199C564.5,834.199 562.301,826.699 560.199,819.699L556.398,806.898L551.5,823.5L546.5,840.102L541.199,839.801L535.801,839.5L529,818C525.199,806.199 521.801,795.5 521.5,794.199ZM610,792.199C610,792.102 617.801,792.102 627.301,792.199L644.5,792.5L644.801,796.699L645.102,801L619,801L619,812L643,812L643,821L619,821L619,832L645,832L645,840L609.5,840L609.699,816.301C609.898,803.199 610,792.398 610,792.199ZM678.898,798.699L682,791.898L690.398,792.5L700.602,816.199L710.801,840L699.5,840L697.301,834.898L695.102,829.898L685.398,830.199L675.801,830.5L674,835C672.301,839.5 672.199,839.5 666.602,840C663.5,840.301 661,840.398 661,840.102C661,839.699 674.398,808.602 678.898,798.699ZM687,806.301C687,803.199 685.301,805.5 683.102,811.699C681.801,815.5 680.5,819.102 680.199,819.699C679.898,820.699 681.398,821 685.898,821C689.301,821 692,820.801 692,820.5C692,820.199 690.898,817.199 689.5,813.801C688.102,810.398 687,807.102 687,806.301ZM728,839.801L728,791.699L740.398,792.199C754.602,792.898 759.102,794.398 762.699,799.898C767.102,806.5 765.199,817.301 759,820.5C757.301,821.398 756,822.301 756,822.5C756,822.801 758.5,826.5 761.5,830.898C764.5,835.301 767,839.102 767,839.398C767,839.699 764.602,840 761.602,840L756.199,840L750.801,831.5C745.699,823.301 745.398,823 741.801,823L738,823L738,840.5L733,840.199L728,839.801ZM753.602,803.5C752.5,802 750.602,801.5 745.102,801.199L738,800.801L738,815.199L745.102,814.801C752.898,814.398 755,812.898 755,808C755,806.602 754.398,804.5 753.602,803.5Z" style="fill:white;"/>
        </g>
    </g>
    <g id="TEXT" transform="matrix(1.000019,0,0,0.778249,1170.564617,1356.343823)">
        <rect x="1250" y="0" width="1200" height="864.369" style="fill:none;"/>
        <g id="ALPË" transform="matrix(2.070849,0,0,2.543316,-341.72234,-681.699746)">
            <path d="M1223.918,324.005L1223.918,297.005L1255.918,297.005L1255.918,324.005L1223.918,324.005ZM1276.918,324.005L1276.918,297.005L1309.918,297.005L1309.918,324.005L1276.918,324.005ZM980.418,467.005L980.418,298.005L1018.918,298.005L1018.918,467.005L980.418,467.005ZM851.117,306.204L854.117,299.005L895.418,299.005L929.617,381.806C948.418,427.306 964.117,465.204 964.418,466.005C964.918,467.306 962.316,467.403 943.816,467.005L922.719,466.505L915.918,449.505L909.219,432.505L874.617,432.204L840.117,432.005L834.52,446.204C831.52,454.107 828.418,462.005 827.816,463.704L826.719,467.005L784.918,467.005L785.816,464.704C786.719,462.505 845.219,320.505 851.117,306.204ZM886.02,372.204C880.02,357.107 874.918,344.704 874.719,344.505C874.52,344.306 856.418,389.607 853.418,398.005C853.02,399.306 855.918,399.505 874.918,399.903C887.02,400.005 896.918,400.005 896.918,399.903C896.918,399.704 892.02,387.204 886.02,372.204ZM1247.117,339.005C1256.316,336.607 1273.719,336.403 1282.816,338.505C1299.316,342.403 1316.117,356.204 1323.719,372.005C1329.219,383.505 1333.117,404.107 1331.418,412.005L1330.719,415.005L1236.918,415.005L1236.918,417.204C1236.918,421.107 1241.418,429.403 1245.418,432.903C1252.719,439.306 1265.02,442.704 1275.02,441.107C1282.719,439.806 1289.117,436.607 1295.418,430.806L1300.719,426.005L1314.02,433.903L1327.316,441.903L1318.816,450.306C1312.02,457.107 1308.816,459.505 1301.918,462.806C1289.219,468.903 1286.316,469.403 1268.418,469.505C1254.316,469.505 1251.617,469.204 1245.418,467.204C1227.918,461.306 1214.52,450.107 1207.02,435.005C1193.918,408.403 1199.219,375.704 1219.816,355.107C1228.418,346.403 1236.117,341.903 1247.117,339.005ZM1274.719,366.505C1271.816,365.704 1267.918,365.005 1266.02,365.107C1252.52,365.505 1241.617,374.204 1237.52,387.704L1236.816,390.005L1294.918,390.005L1294.316,387.204C1292.219,378.005 1283.918,369.306 1274.719,366.505ZM1105.219,339.505C1108.918,338.403 1114.02,338.107 1122.918,338.403C1137.918,338.806 1144.418,340.806 1155.617,348.306C1167.816,356.505 1176.719,369.806 1180.918,386.403C1183.316,396.107 1183.617,413.505 1181.418,422.806C1178.117,436.607 1167.719,451.306 1155.117,459.607C1152.02,461.704 1145.617,464.704 1140.918,466.403C1133.316,469.107 1131.219,469.403 1120.918,469.403C1111.719,469.306 1108.117,468.903 1102.918,467.107C1095.219,464.403 1087.918,460.005 1084.418,455.806L1081.918,452.806L1081.918,509.005L1043.918,509.005L1043.918,340.005L1082.117,340.005L1081.719,346.903L1081.418,353.806L1085.617,350.005C1090.418,345.505 1097.816,341.607 1105.219,339.505ZM1126.117,371.005C1116.117,367.204 1102.719,369.107 1094.418,375.403C1075.117,390.107 1076.918,424.005 1097.617,435.204C1107.219,440.505 1119.52,440.806 1128.719,436.107C1133.918,433.505 1140.617,426.005 1143.617,419.403C1148.219,409.306 1147.617,393.903 1142.219,385.107C1138.617,379.306 1131.418,373.005 1126.117,371.005ZM809.38,518.277C808.988,517.402 810.355,517.109 814.153,517.109L819.417,517.109L824.19,533.186C826.819,542.054 829.255,548.776 829.449,548.094C829.742,547.413 831.984,540.2 834.42,532.211L838.999,517.596L843.383,517.303L847.867,517.01L850.79,526.559C852.446,531.824 854.688,539.325 855.955,543.317L858.098,550.625L859.366,545.659C860.047,543.029 862.289,535.522 864.332,529.189L868.135,517.596L873.295,517.303C877.193,517.109 878.366,517.303 877.973,518.277C877.779,518.958 874.27,529.482 870.372,541.662L863.164,563.878L853.226,563.878L848.548,548.189C845.919,539.619 843.483,533.186 843.189,533.867C842.802,534.548 840.56,541.567 838.218,549.457L833.933,563.878L823.896,563.878L822.34,559.2C821.56,556.67 818.343,546.727 815.321,537.083C812.303,527.439 809.574,518.958 809.38,518.277ZM903.987,518.958C906.622,517.79 910.226,517.109 914.805,517.109C923.281,517.109 928.252,519.252 933.024,524.804C934.973,527.046 937.021,530.849 937.702,533.285C940.138,541.856 937.409,553.354 931.662,558.713C925.816,564.171 914.999,566.314 906.423,563.779C894.731,560.274 888.109,545.852 892.101,532.599C893.563,527.534 899.215,521.2 903.987,518.958ZM922.5,527.727C911.882,521.787 900.677,528.702 900.677,541.175C900.677,552.673 913.05,559.981 922.212,553.841C930.981,547.995 931.175,532.599 922.5,527.727ZM958.164,517.208C958.164,517.01 963.523,517.01 970.149,517.303C982.816,517.79 985.933,518.764 990.218,523.343C992.072,525.292 992.753,527.24 993.047,531.625C993.534,538.351 991.68,542.636 987.394,544.878C985.739,545.753 984.471,546.633 984.471,546.827C984.471,547.12 986.907,550.724 989.83,555.009C992.753,559.3 995.189,563.003 995.189,563.291C995.189,563.585 992.853,563.878 989.93,563.878L984.665,563.878L979.406,555.596C974.434,547.607 974.141,547.314 970.636,547.314L966.933,547.314L966.933,563.878L957.676,563.878L957.87,540.787C958.064,528.021 958.164,517.402 958.164,517.208ZM982.135,528.314C981.061,526.852 979.212,526.365 973.853,526.072L966.933,525.684L966.933,539.519L973.072,539.519C980.673,539.519 983.497,537.864 983.497,533.285C983.497,531.53 982.91,529.288 982.135,528.314ZM1014.676,517.01L1019.354,517.303L1023.933,517.596L1023.933,527.633C1023.933,533.086 1024.127,537.57 1024.42,537.471C1024.713,537.471 1028.611,532.893 1033.189,527.24L1041.471,517.109L1047.123,517.109C1050.141,517.109 1052.676,517.303 1052.676,517.596C1052.676,517.889 1048.779,522.761 1043.907,528.413C1039.135,533.966 1035.138,538.838 1035.138,539.131C1035.138,539.42 1039.135,544.779 1044.101,551.018C1048.973,557.351 1053.357,562.804 1053.75,563.391C1054.237,563.977 1052.288,564.266 1048.292,564.072L1042.058,563.684L1033.482,552.574C1028.805,546.439 1024.713,541.468 1024.42,541.468C1024.127,541.468 1024.032,546.534 1024.226,552.673L1024.519,563.878L1014.676,563.878L1014.676,517.01ZM1067.779,519.252C1067.292,517.109 1067.391,517.01 1072.357,517.303L1077.423,517.596L1082.295,533.867L1087.167,550.043L1091.651,535.328C1097.691,515.354 1096.716,517.109 1101.782,517.109C1105.779,517.109 1106.167,517.303 1107.141,520.226C1107.628,521.981 1109.969,529.388 1112.211,536.596L1116.203,549.75L1121.175,533.38L1126.24,517.109L1131.405,517.109C1136.083,517.109 1136.57,517.303 1135.984,518.764C1135.596,519.739 1132.186,530.263 1128.383,542.149L1121.368,563.878L1116.303,563.878C1111.237,563.878 1111.237,563.878 1110.163,560.175C1109.676,558.226 1107.534,550.918 1105.485,544.098L1101.782,531.625L1097.01,547.801L1092.138,563.977L1086.973,563.684L1081.713,563.391L1075.087,542.442C1071.383,530.944 1068.072,520.519 1067.779,519.252ZM1154.009,517.303C1154.009,517.208 1161.61,517.208 1170.867,517.303L1187.625,517.596L1187.918,521.687L1188.211,525.878L1162.779,525.878L1162.779,536.596L1186.163,536.596L1186.163,545.365L1162.779,545.365L1162.779,556.083L1188.112,556.083L1188.112,563.878L1153.522,563.878L1153.716,540.787C1153.91,528.021 1154.009,517.497 1154.009,517.303ZM1221.141,523.636L1224.163,517.01L1232.346,517.596L1242.288,540.687L1252.226,563.878L1241.214,563.878L1239.072,558.907L1236.929,554.035L1227.474,554.328L1218.123,554.622L1216.368,559.006C1214.713,563.391 1214.613,563.391 1209.16,563.878C1206.138,564.171 1203.702,564.266 1203.702,563.977C1203.702,563.585 1216.756,533.285 1221.141,523.636ZM1229.035,531.043C1229.035,528.021 1227.38,530.263 1225.237,536.303C1223.969,540.006 1222.702,543.516 1222.408,544.098C1222.115,545.072 1223.577,545.365 1227.961,545.365C1231.277,545.365 1233.907,545.171 1233.907,544.878C1233.907,544.585 1232.833,541.662 1231.471,538.351C1230.109,535.035 1229.035,531.824 1229.035,531.043ZM1268.984,516.816L1281.064,517.303C1294.903,517.984 1299.288,519.445 1302.793,524.804C1307.083,531.237 1305.229,541.761 1299.189,544.878C1297.533,545.753 1296.266,546.633 1296.266,546.827C1296.266,547.12 1298.701,550.724 1301.625,555.009C1304.548,559.3 1306.984,563.003 1306.984,563.291C1306.984,563.585 1304.647,563.878 1301.724,563.878L1296.46,563.878L1291.2,555.596C1286.229,547.607 1285.935,547.314 1282.431,547.314L1278.727,547.314L1278.727,564.365L1273.855,564.072L1268.984,563.684L1268.984,516.816ZM1293.929,528.314C1292.855,526.852 1291.006,526.365 1285.647,526.072L1278.727,525.684L1278.727,539.713L1285.647,539.325C1293.243,538.933 1295.291,537.471 1295.291,532.699C1295.291,531.336 1294.705,529.288 1293.929,528.314Z" style="fill:rgb(107,135,156);"/>
        </g>
    </g>
</svg>
