<?xml version="1.0" encoding="UTF-8" standalone="no"?>
<!DOCTYPE svg PUBLIC "-//W3C//DTD SVG 1.1//EN" "http://www.w3.org/Graphics/SVG/1.1/DTD/svg11.dtd">
<svg width="100%" height="100%" viewBox="0 0 2400 2400" version="1.1" xmlns="http://www.w3.org/2000/svg" xmlns:xlink="http://www.w3.org/1999/xlink" xml:space="preserve" xmlns:serif="http://www.serif.com/" style="fill-rule:evenodd;clip-rule:evenodd;stroke-linejoin:round;stroke-miterlimit:2;">
    <g id="PRINCIPALE" transform="matrix(1,0,0,2.666667,2450,-2533.333333)">
        <rect x="-2450" y="950" width="2400" height="900" style="fill:none;"/>
        <g id="VERTICAL" transform="matrix(2.949554,0,0,1.106083,-2758.552223,836.396839)">
            <path id="VERTICAL1" serif:id="VERTICAL" d="M507.699,180.199C510.301,177.602 511.801,177.5 514.699,179.5C515.898,180.398 526,194.398 537.199,210.801C548.301,227.102 577.199,269.5 601.398,305C646.699,371.5 718.102,476.398 730.801,495.102C738,505.801 739.102,508.5 736.801,510.801C735.898,511.699 708.898,512 621.301,512C513.602,512 506.898,511.898 505.199,510.199C503.801,508.801 502.602,500.199 498.199,459C493.301,412.801 492.801,409.398 490.602,406.5C486.199,400.801 463.301,375.602 457.699,370.199C454.602,367.398 451.199,365 450.102,365C447.5,365 447,365.5 417.898,396C396.199,418.801 343.5,473.898 319.602,498.699C308.602,510.199 304.801,512.199 294.801,511.801L287.5,511.5L287.199,508.5C287,505.898 290.398,500.301 307.602,475C318.898,458.199 333.398,436.801 339.699,427.5C346,418.102 356.602,402.398 363.301,392.5C374.801,375.602 416.801,313.5 444.801,272C487.398,208.898 505.699,182.199 507.699,180.199ZM519.5,253.898C509.898,249.5 499.699,253.801 495,264.199C493.199,268.102 493,271 493,294.5C493,308.801 493.5,324.301 494,329C494.602,333.699 497.699,363.602 501,395.5C510.699,490 512.301,503.801 513.102,500.5C513.5,498.801 516.199,472.699 519,442.5C521.801,412.199 525.801,372.602 527.699,354.5C530.898,325.801 531.301,318.102 531.398,295.5C531.5,267.398 531.102,264.699 526.199,258.801C524.801,257.102 521.801,254.898 519.5,253.898ZM507.102,270.602C510.5,266.301 515.898,267.5 517.898,273.102C518.602,275.102 519,284.898 519,298.699L519,321.102L516.5,323.5C515.199,324.898 513.199,326 512,326C510.898,326 508.801,324.898 507.5,323.5L505,321.102L505,297.199C505,274.5 505.102,273.102 507.102,270.602ZM677,585L677,558L709,558L709,585L677,585ZM730,585L730,558L763,558L763,585L730,585ZM433.5,728L433.5,559L472,559L472,728L433.5,728ZM304.199,567.199L307.199,560L348.5,560L382.699,642.801C401.5,688.301 417.199,726.199 417.5,727C418,728.301 415.398,728.398 396.898,728L375.801,727.5L369,710.5L362.301,693.5L327.699,693.199L293.199,693L287.602,707.199C284.602,715.102 281.5,723 280.898,724.699L279.801,728L238,728L238.898,725.699C239.801,723.5 298.301,581.5 304.199,567.199ZM339.102,633.199C333.102,618.102 328,605.699 327.801,605.5C327.602,605.301 309.5,650.602 306.5,659C306.102,660.301 309,660.5 328,660.898C340.102,661 350,661 350,660.898C350,660.699 345.102,648.199 339.102,633.199ZM700.199,600C709.398,597.602 726.801,597.398 735.898,599.5C752.398,603.398 769.199,617.199 776.801,633C782.301,644.5 786.199,665.102 784.5,673L783.801,676L690,676L690,678.199C690,682.102 694.5,690.398 698.5,693.898C705.801,700.301 718.102,703.699 728.102,702.102C735.801,700.801 742.199,697.602 748.5,691.801L753.801,687L767.102,694.898L780.398,702.898L771.898,711.301C765.102,718.102 761.898,720.5 755,723.801C742.301,729.898 739.398,730.398 721.5,730.5C707.398,730.5 704.699,730.199 698.5,728.199C681,722.301 667.602,711.102 660.102,696C647,669.398 652.301,636.699 672.898,616.102C681.5,607.398 689.199,602.898 700.199,600ZM727.801,627.5C724.898,626.699 721,626 719.102,626.102C705.602,626.5 694.699,635.199 690.602,648.699L689.898,651L748,651L747.398,648.199C745.301,639 737,630.301 727.801,627.5ZM558.301,600.5C562,599.398 567.102,599.102 576,599.398C591,599.801 597.5,601.801 608.699,609.301C620.898,617.5 629.801,630.801 634,647.398C636.398,657.102 636.699,674.5 634.5,683.801C631.199,697.602 620.801,712.301 608.199,720.602C605.102,722.699 598.699,725.699 594,727.398C586.398,730.102 584.301,730.398 574,730.398C564.801,730.301 561.199,729.898 556,728.102C548.301,725.398 541,721 537.5,716.801L535,713.801L535,770L497,770L497,601L535.199,601L534.801,607.898L534.5,614.801L538.699,611C543.5,606.5 550.898,602.602 558.301,600.5ZM579.199,632C569.199,628.199 555.801,630.102 547.5,636.398C528.199,651.102 530,685 550.699,696.199C560.301,701.5 572.602,701.801 581.801,697.102C587,694.5 593.699,687 596.699,680.398C601.301,670.301 600.699,654.898 595.301,646.102C591.699,640.301 584.5,634 579.199,632ZM256.301,793.199C255.898,792.301 257.301,792 261.199,792L266.602,792L271.5,808.5C274.199,817.602 276.699,824.5 276.898,823.801C277.199,823.102 279.5,815.699 282,807.5L286.699,792.5L291.199,792.199L295.801,791.898L298.801,801.699C300.5,807.102 302.801,814.801 304.102,818.898L306.301,826.398L307.602,821.301C308.301,818.602 310.602,810.898 312.699,804.398L316.602,792.5L321.898,792.199C325.898,792 327.102,792.199 326.699,793.199C326.5,793.898 322.898,804.699 318.898,817.199L311.5,840L301.301,840L296.5,823.898C293.801,815.102 291.301,808.5 291,809.199C290.602,809.898 288.301,817.102 285.898,825.199L281.5,840L271.199,840L269.602,835.199C268.801,832.602 265.5,822.398 262.398,812.5C259.301,802.602 256.5,793.898 256.301,793.199ZM353.398,793.898C356.102,792.699 359.801,792 364.5,792C373.199,792 378.301,794.199 383.199,799.898C385.199,802.199 387.301,806.102 388,808.602C390.5,817.398 387.699,829.199 381.801,834.699C375.801,840.301 364.699,842.5 355.898,839.898C343.898,836.301 337.102,821.5 341.199,807.898C342.699,802.699 348.5,796.199 353.398,793.898ZM372.398,802.898C361.5,796.801 350,803.898 350,816.699C350,828.5 362.699,836 372.102,829.699C381.102,823.699 381.301,807.898 372.398,802.898ZM409,792.102C409,791.898 414.5,791.898 421.301,792.199C434.301,792.699 437.5,793.699 441.898,798.398C443.801,800.398 444.5,802.398 444.801,806.898C445.301,813.801 443.398,818.199 439,820.5C437.301,821.398 436,822.301 436,822.5C436,822.801 438.5,826.5 441.5,830.898C444.5,835.301 447,839.102 447,839.398C447,839.699 444.602,840 441.602,840L436.199,840L430.801,831.5C425.699,823.301 425.398,823 421.801,823L418,823L418,840L408.5,840L408.699,816.301C408.898,803.199 409,792.301 409,792.102ZM433.602,803.5C432.5,802 430.602,801.5 425.102,801.199L418,800.801L418,815L424.301,815C432.102,815 435,813.301 435,808.602C435,806.801 434.398,804.5 433.602,803.5ZM467,840L467,791.898L471.801,792.199L476.5,792.5L476.5,802.801C476.5,808.398 476.699,813 477,812.898C477.301,812.898 481.301,808.199 486,802.398L494.5,792L500.301,792C503.398,792 506,792.199 506,792.5C506,792.801 502,797.801 497,803.602C492.102,809.301 488,814.301 488,814.602C488,814.898 492.102,820.398 497.199,826.801C502.199,833.301 506.699,838.898 507.102,839.5C507.602,840.102 505.602,840.398 501.5,840.199L495.102,839.801L486.301,828.398C481.5,822.102 477.301,817 477,817C476.699,817 476.602,822.199 476.801,828.5L477.102,840L467,840ZM521.5,794.199C521,792 521.102,791.898 526.199,792.199L531.398,792.5L536.398,809.199L541.398,825.801L546,810.699C552.199,790.199 551.199,792 556.398,792C560.5,792 560.898,792.199 561.898,795.199C562.398,797 564.801,804.602 567.102,812L571.199,825.5L576.301,808.699L581.5,792L586.801,792C591.602,792 592.102,792.199 591.5,793.699C591.102,794.699 587.602,805.5 583.699,817.699L576.5,840L571.301,840C566.102,840 566.102,840 565,836.199C564.5,834.199 562.301,826.699 560.199,819.699L556.398,806.898L551.5,823.5L546.5,840.102L541.199,839.801L535.801,839.5L529,818C525.199,806.199 521.801,795.5 521.5,794.199ZM610,792.199C610,792.102 617.801,792.102 627.301,792.199L644.5,792.5L644.801,796.699L645.102,801L619,801L619,812L643,812L643,821L619,821L619,832L645,832L645,840L609.5,840L609.699,816.301C609.898,803.199 610,792.398 610,792.199ZM678.898,798.699L682,791.898L690.398,792.5L700.602,816.199L710.801,840L699.5,840L697.301,834.898L695.102,829.898L685.398,830.199L675.801,830.5L674,835C672.301,839.5 672.199,839.5 666.602,840C663.5,840.301 661,840.398 661,840.102C661,839.699 674.398,808.602 678.898,798.699ZM687,806.301C687,803.199 685.301,805.5 683.102,811.699C681.801,815.5 680.5,819.102 680.199,819.699C679.898,820.699 681.398,821 685.898,821C689.301,821 692,820.801 692,820.5C692,820.199 690.898,817.199 689.5,813.801C688.102,810.398 687,807.102 687,806.301ZM728,839.801L728,791.699L740.398,792.199C754.602,792.898 759.102,794.398 762.699,799.898C767.102,806.5 765.199,817.301 759,820.5C757.301,821.398 756,822.301 756,822.5C756,822.801 758.5,826.5 761.5,830.898C764.5,835.301 767,839.102 767,839.398C767,839.699 764.602,840 761.602,840L756.199,840L750.801,831.5C745.699,823.301 745.398,823 741.801,823L738,823L738,840.5L733,840.199L728,839.801ZM753.602,803.5C752.5,802 750.602,801.5 745.102,801.199L738,800.801L738,815.199L745.102,814.801C752.898,814.398 755,812.898 755,808C755,806.602 754.398,804.5 753.602,803.5Z" style="fill:rgb(107,135,156);"/>
        </g>
    </g>
</svg>
