<?xml version="1.0" encoding="UTF-8" standalone="no"?>
<!DOCTYPE svg PUBLIC "-//W3C//DTD SVG 1.1//EN" "http://www.w3.org/Graphics/SVG/1.1/DTD/svg11.dtd">
<svg width="100%" height="100%" viewBox="0 0 1201 673" version="1.1" xmlns="http://www.w3.org/2000/svg" xmlns:xlink="http://www.w3.org/1999/xlink" xml:space="preserve" xmlns:serif="http://www.serif.com/" style="fill-rule:evenodd;clip-rule:evenodd;stroke-linejoin:round;stroke-miterlimit:2;">
    <g transform="matrix(1,0,0,1,-2420.588385,-1356.343823)">
        <g id="TEXT" transform="matrix(1.000019,0,0,0.778249,1170.564617,1356.343823)">
            <rect x="1250" y="0" width="1200" height="864.369" style="fill:none;"/>
            <g id="ALPË" transform="matrix(2.070849,0,0,2.543316,-341.72234,-681.699746)">
                <path d="M1223.918,324.005L1223.918,297.005L1255.918,297.005L1255.918,324.005L1223.918,324.005ZM1276.918,324.005L1276.918,297.005L1309.918,297.005L1309.918,324.005L1276.918,324.005ZM980.418,467.005L980.418,298.005L1018.918,298.005L1018.918,467.005L980.418,467.005ZM851.117,306.204L854.117,299.005L895.418,299.005L929.617,381.806C948.418,427.306 964.117,465.204 964.418,466.005C964.918,467.306 962.316,467.403 943.816,467.005L922.719,466.505L915.918,449.505L909.219,432.505L874.617,432.204L840.117,432.005L834.52,446.204C831.52,454.107 828.418,462.005 827.816,463.704L826.719,467.005L784.918,467.005L785.816,464.704C786.719,462.505 845.219,320.505 851.117,306.204ZM886.02,372.204C880.02,357.107 874.918,344.704 874.719,344.505C874.52,344.306 856.418,389.607 853.418,398.005C853.02,399.306 855.918,399.505 874.918,399.903C887.02,400.005 896.918,400.005 896.918,399.903C896.918,399.704 892.02,387.204 886.02,372.204ZM1247.117,339.005C1256.316,336.607 1273.719,336.403 1282.816,338.505C1299.316,342.403 1316.117,356.204 1323.719,372.005C1329.219,383.505 1333.117,404.107 1331.418,412.005L1330.719,415.005L1236.918,415.005L1236.918,417.204C1236.918,421.107 1241.418,429.403 1245.418,432.903C1252.719,439.306 1265.02,442.704 1275.02,441.107C1282.719,439.806 1289.117,436.607 1295.418,430.806L1300.719,426.005L1314.02,433.903L1327.316,441.903L1318.816,450.306C1312.02,457.107 1308.816,459.505 1301.918,462.806C1289.219,468.903 1286.316,469.403 1268.418,469.505C1254.316,469.505 1251.617,469.204 1245.418,467.204C1227.918,461.306 1214.52,450.107 1207.02,435.005C1193.918,408.403 1199.219,375.704 1219.816,355.107C1228.418,346.403 1236.117,341.903 1247.117,339.005ZM1274.719,366.505C1271.816,365.704 1267.918,365.005 1266.02,365.107C1252.52,365.505 1241.617,374.204 1237.52,387.704L1236.816,390.005L1294.918,390.005L1294.316,387.204C1292.219,378.005 1283.918,369.306 1274.719,366.505ZM1105.219,339.505C1108.918,338.403 1114.02,338.107 1122.918,338.403C1137.918,338.806 1144.418,340.806 1155.617,348.306C1167.816,356.505 1176.719,369.806 1180.918,386.403C1183.316,396.107 1183.617,413.505 1181.418,422.806C1178.117,436.607 1167.719,451.306 1155.117,459.607C1152.02,461.704 1145.617,464.704 1140.918,466.403C1133.316,469.107 1131.219,469.403 1120.918,469.403C1111.719,469.306 1108.117,468.903 1102.918,467.107C1095.219,464.403 1087.918,460.005 1084.418,455.806L1081.918,452.806L1081.918,509.005L1043.918,509.005L1043.918,340.005L1082.117,340.005L1081.719,346.903L1081.418,353.806L1085.617,350.005C1090.418,345.505 1097.816,341.607 1105.219,339.505ZM1126.117,371.005C1116.117,367.204 1102.719,369.107 1094.418,375.403C1075.117,390.107 1076.918,424.005 1097.617,435.204C1107.219,440.505 1119.52,440.806 1128.719,436.107C1133.918,433.505 1140.617,426.005 1143.617,419.403C1148.219,409.306 1147.617,393.903 1142.219,385.107C1138.617,379.306 1131.418,373.005 1126.117,371.005ZM809.38,518.277C808.988,517.402 810.355,517.109 814.153,517.109L819.417,517.109L824.19,533.186C826.819,542.054 829.255,548.776 829.449,548.094C829.742,547.413 831.984,540.2 834.42,532.211L838.999,517.596L843.383,517.303L847.867,517.01L850.79,526.559C852.446,531.824 854.688,539.325 855.955,543.317L858.098,550.625L859.366,545.659C860.047,543.029 862.289,535.522 864.332,529.189L868.135,517.596L873.295,517.303C877.193,517.109 878.366,517.303 877.973,518.277C877.779,518.958 874.27,529.482 870.372,541.662L863.164,563.878L853.226,563.878L848.548,548.189C845.919,539.619 843.483,533.186 843.189,533.867C842.802,534.548 840.56,541.567 838.218,549.457L833.933,563.878L823.896,563.878L822.34,559.2C821.56,556.67 818.343,546.727 815.321,537.083C812.303,527.439 809.574,518.958 809.38,518.277ZM903.987,518.958C906.622,517.79 910.226,517.109 914.805,517.109C923.281,517.109 928.252,519.252 933.024,524.804C934.973,527.046 937.021,530.849 937.702,533.285C940.138,541.856 937.409,553.354 931.662,558.713C925.816,564.171 914.999,566.314 906.423,563.779C894.731,560.274 888.109,545.852 892.101,532.599C893.563,527.534 899.215,521.2 903.987,518.958ZM922.5,527.727C911.882,521.787 900.677,528.702 900.677,541.175C900.677,552.673 913.05,559.981 922.212,553.841C930.981,547.995 931.175,532.599 922.5,527.727ZM958.164,517.208C958.164,517.01 963.523,517.01 970.149,517.303C982.816,517.79 985.933,518.764 990.218,523.343C992.072,525.292 992.753,527.24 993.047,531.625C993.534,538.351 991.68,542.636 987.394,544.878C985.739,545.753 984.471,546.633 984.471,546.827C984.471,547.12 986.907,550.724 989.83,555.009C992.753,559.3 995.189,563.003 995.189,563.291C995.189,563.585 992.853,563.878 989.93,563.878L984.665,563.878L979.406,555.596C974.434,547.607 974.141,547.314 970.636,547.314L966.933,547.314L966.933,563.878L957.676,563.878L957.87,540.787C958.064,528.021 958.164,517.402 958.164,517.208ZM982.135,528.314C981.061,526.852 979.212,526.365 973.853,526.072L966.933,525.684L966.933,539.519L973.072,539.519C980.673,539.519 983.497,537.864 983.497,533.285C983.497,531.53 982.91,529.288 982.135,528.314ZM1014.676,517.01L1019.354,517.303L1023.933,517.596L1023.933,527.633C1023.933,533.086 1024.127,537.57 1024.42,537.471C1024.713,537.471 1028.611,532.893 1033.189,527.24L1041.471,517.109L1047.123,517.109C1050.141,517.109 1052.676,517.303 1052.676,517.596C1052.676,517.889 1048.779,522.761 1043.907,528.413C1039.135,533.966 1035.138,538.838 1035.138,539.131C1035.138,539.42 1039.135,544.779 1044.101,551.018C1048.973,557.351 1053.357,562.804 1053.75,563.391C1054.237,563.977 1052.288,564.266 1048.292,564.072L1042.058,563.684L1033.482,552.574C1028.805,546.439 1024.713,541.468 1024.42,541.468C1024.127,541.468 1024.032,546.534 1024.226,552.673L1024.519,563.878L1014.676,563.878L1014.676,517.01ZM1067.779,519.252C1067.292,517.109 1067.391,517.01 1072.357,517.303L1077.423,517.596L1082.295,533.867L1087.167,550.043L1091.651,535.328C1097.691,515.354 1096.716,517.109 1101.782,517.109C1105.779,517.109 1106.167,517.303 1107.141,520.226C1107.628,521.981 1109.969,529.388 1112.211,536.596L1116.203,549.75L1121.175,533.38L1126.24,517.109L1131.405,517.109C1136.083,517.109 1136.57,517.303 1135.984,518.764C1135.596,519.739 1132.186,530.263 1128.383,542.149L1121.368,563.878L1116.303,563.878C1111.237,563.878 1111.237,563.878 1110.163,560.175C1109.676,558.226 1107.534,550.918 1105.485,544.098L1101.782,531.625L1097.01,547.801L1092.138,563.977L1086.973,563.684L1081.713,563.391L1075.087,542.442C1071.383,530.944 1068.072,520.519 1067.779,519.252ZM1154.009,517.303C1154.009,517.208 1161.61,517.208 1170.867,517.303L1187.625,517.596L1187.918,521.687L1188.211,525.878L1162.779,525.878L1162.779,536.596L1186.163,536.596L1186.163,545.365L1162.779,545.365L1162.779,556.083L1188.112,556.083L1188.112,563.878L1153.522,563.878L1153.716,540.787C1153.91,528.021 1154.009,517.497 1154.009,517.303ZM1221.141,523.636L1224.163,517.01L1232.346,517.596L1242.288,540.687L1252.226,563.878L1241.214,563.878L1239.072,558.907L1236.929,554.035L1227.474,554.328L1218.123,554.622L1216.368,559.006C1214.713,563.391 1214.613,563.391 1209.16,563.878C1206.138,564.171 1203.702,564.266 1203.702,563.977C1203.702,563.585 1216.756,533.285 1221.141,523.636ZM1229.035,531.043C1229.035,528.021 1227.38,530.263 1225.237,536.303C1223.969,540.006 1222.702,543.516 1222.408,544.098C1222.115,545.072 1223.577,545.365 1227.961,545.365C1231.277,545.365 1233.907,545.171 1233.907,544.878C1233.907,544.585 1232.833,541.662 1231.471,538.351C1230.109,535.035 1229.035,531.824 1229.035,531.043ZM1268.984,516.816L1281.064,517.303C1294.903,517.984 1299.288,519.445 1302.793,524.804C1307.083,531.237 1305.229,541.761 1299.189,544.878C1297.533,545.753 1296.266,546.633 1296.266,546.827C1296.266,547.12 1298.701,550.724 1301.625,555.009C1304.548,559.3 1306.984,563.003 1306.984,563.291C1306.984,563.585 1304.647,563.878 1301.724,563.878L1296.46,563.878L1291.2,555.596C1286.229,547.607 1285.935,547.314 1282.431,547.314L1278.727,547.314L1278.727,564.365L1273.855,564.072L1268.984,563.684L1268.984,516.816ZM1293.929,528.314C1292.855,526.852 1291.006,526.365 1285.647,526.072L1278.727,525.684L1278.727,539.713L1285.647,539.325C1293.243,538.933 1295.291,537.471 1295.291,532.699C1295.291,531.336 1294.705,529.288 1293.929,528.314Z" style="fill:rgb(107,135,156);"/>
            </g>
        </g>
    </g>
</svg>
