<?xml version="1.0" encoding="UTF-8" standalone="no"?>
<!DOCTYPE svg PUBLIC "-//W3C//DTD SVG 1.1//EN" "http://www.w3.org/Graphics/SVG/1.1/DTD/svg11.dtd">
<svg width="100%" height="100%" viewBox="0 0 1146 849" version="1.1" xmlns="http://www.w3.org/2000/svg" xmlns:xlink="http://www.w3.org/1999/xlink" xml:space="preserve" xmlns:serif="http://www.serif.com/" style="fill-rule:evenodd;clip-rule:evenodd;stroke-linejoin:round;stroke-miterlimit:2;">
    <g transform="matrix(1,0,0,1,-3677.470319,-1427.610801)">
        <g transform="matrix(0.50001,0,0,1.159618,3649.977183,2457.980899)">
            <g id="SUBMARK" transform="matrix(5.08117,0,0,2.190922,-1404.280678,-1278.773408)">
                <path d="M507.699,180.199C510.301,177.602 511.801,177.5 514.699,179.5C515.898,180.398 526,194.398 537.199,210.801C548.301,227.102 577.199,269.5 601.398,305C646.699,371.5 718.102,476.398 730.801,495.102C738,505.801 739.102,508.5 736.801,510.801C735.898,511.699 708.898,512 621.301,512C513.602,512 506.898,511.898 505.199,510.199C503.801,508.801 502.602,500.199 498.199,459C493.301,412.801 492.801,409.398 490.602,406.5C486.199,400.801 463.301,375.602 457.699,370.199C454.602,367.398 451.199,365 450.102,365C447.5,365 447,365.5 417.898,396C396.199,418.801 343.5,473.898 319.602,498.699C308.602,510.199 304.801,512.199 294.801,511.801L287.5,511.5L287.199,508.5C287,505.898 290.398,500.301 307.602,475C318.898,458.199 333.398,436.801 339.699,427.5C346,418.102 356.602,402.398 363.301,392.5C374.801,375.602 416.801,313.5 444.801,272C487.398,208.898 505.699,182.199 507.699,180.199ZM519.5,253.898C509.898,249.5 499.699,253.801 495,264.199C493.199,268.102 493,271 493,294.5C493,308.801 493.5,324.301 494,329C494.602,333.699 497.699,363.602 501,395.5C510.699,490 512.301,503.801 513.102,500.5C513.5,498.801 516.199,472.699 519,442.5C521.801,412.199 525.801,372.602 527.699,354.5C530.898,325.801 531.301,318.102 531.398,295.5C531.5,267.398 531.102,264.699 526.199,258.801C524.801,257.102 521.801,254.898 519.5,253.898ZM507.102,270.602C510.5,266.301 515.898,267.5 517.898,273.102C518.602,275.102 519,284.898 519,298.699L519,321.102L516.5,323.5C515.199,324.898 513.199,326 512,326C510.898,326 508.801,324.898 507.5,323.5L505,321.102L505,297.199C505,274.5 505.102,273.102 507.102,270.602Z" style="fill:rgb(107,135,156);"/>
            </g>
        </g>
    </g>
</svg>
