<?xml version="1.0" encoding="UTF-8" standalone="no"?>
<!DOCTYPE svg PUBLIC "-//W3C//DTD SVG 1.1//EN" "http://www.w3.org/Graphics/SVG/1.1/DTD/svg11.dtd">
<svg width="100%" height="100%" viewBox="0 0 2775 830" version="1.1" xmlns="http://www.w3.org/2000/svg" xmlns:xlink="http://www.w3.org/1999/xlink" xml:space="preserve" xmlns:serif="http://www.serif.com/" style="fill-rule:evenodd;clip-rule:evenodd;stroke-linejoin:round;stroke-miterlimit:2;">
    <g transform="matrix(1,0,0,1,-2472.570648,-185.06471)">
        <g transform="matrix(1.249554,0,0,0.5,5481.996585,0)">
            <g id="path14" transform="matrix(1.989093,0,0,4.970959,-2979.648826,-515.260622)">
                <path d="M507.699,180.199C510.301,177.602 511.801,177.5 514.699,179.5C515.898,180.398 526,194.398 537.199,210.801C548.301,227.102 577.199,269.5 601.398,305C646.699,371.5 718.102,476.398 730.801,495.102C738,505.801 739.102,508.5 736.801,510.801C735.898,511.699 708.898,512 621.301,512C513.602,512 506.898,511.898 505.199,510.199C503.801,508.801 502.602,500.199 498.199,459C493.301,412.801 492.801,409.398 490.602,406.5C486.199,400.801 463.301,375.602 457.699,370.199C454.602,367.398 451.199,365 450.102,365C447.5,365 447,365.5 417.898,396C396.199,418.801 343.5,473.898 319.602,498.699C308.602,510.199 304.801,512.199 294.801,511.801L287.5,511.5L287.199,508.5C287,505.898 290.398,500.301 307.602,475C318.898,458.199 333.398,436.801 339.699,427.5C346,418.102 356.602,402.398 363.301,392.5C374.801,375.602 416.801,313.5 444.801,272C487.398,208.898 505.699,182.199 507.699,180.199ZM519.5,253.898C509.898,249.5 499.699,253.801 495,264.199C493.199,268.102 493,271 493,294.5C493,308.801 493.5,324.301 494,329C494.602,333.699 497.699,363.602 501,395.5C510.699,490 512.301,503.801 513.102,500.5C513.5,498.801 516.199,472.699 519,442.5C521.801,412.199 525.801,372.602 527.699,354.5C530.898,325.801 531.301,318.102 531.398,295.5C531.5,267.398 531.102,264.699 526.199,258.801C524.801,257.102 521.801,254.898 519.5,253.898ZM507.102,270.602C510.5,266.301 515.898,267.5 517.898,273.102C518.602,275.102 519,284.898 519,298.699L519,321.102L516.5,323.5C515.199,324.898 513.199,326 512,326C510.898,326 508.801,324.898 507.5,323.5L505,321.102L505,297.199C505,274.5 505.102,273.102 507.102,270.602ZM1279.762,222.772L1279.762,191.784L1316.488,191.784L1316.488,222.772L1279.762,222.772ZM1340.59,222.772L1340.59,191.784L1378.464,191.784L1378.464,222.772L1340.59,222.772ZM1000.296,386.893L1000.296,192.931L1044.483,192.931L1044.483,386.893L1000.296,386.893ZM851.897,202.341L855.34,194.079L902.741,194.079L941.992,289.11C963.57,341.33 981.587,384.826 981.933,385.745C982.507,387.239 979.52,387.35 958.288,386.893L934.075,386.319L926.269,366.808L918.581,347.297L878.868,346.952L839.272,346.724L832.849,363.02C829.405,372.09 825.845,381.155 825.154,383.105L823.895,386.893L775.92,386.893L776.951,384.252C777.987,381.728 845.128,218.755 851.897,202.341ZM891.955,278.09C885.069,260.763 879.213,246.528 878.985,246.3C878.757,246.071 857.981,298.063 854.538,307.702C854.081,309.195 857.407,309.423 879.213,309.88C893.103,309.997 904.463,309.997 904.463,309.88C904.463,309.652 898.842,295.305 891.955,278.09ZM1306.387,239.987C1316.945,237.235 1336.918,237.001 1347.359,239.413C1366.296,243.887 1385.579,259.727 1394.304,277.861C1400.616,291.06 1405.09,314.705 1403.14,323.769L1402.338,327.213L1294.682,327.213L1294.682,329.736C1294.682,334.216 1299.847,343.737 1304.437,347.754C1312.817,355.103 1326.935,359.003 1338.412,357.17C1347.248,355.677 1354.591,352.005 1361.822,345.347L1367.906,339.837L1383.172,348.902L1398.432,358.083L1388.676,367.728C1380.877,375.533 1377.199,378.285 1369.283,382.074C1354.708,389.071 1351.376,389.645 1330.835,389.762C1314.65,389.762 1311.552,389.417 1304.437,387.122C1284.353,380.352 1268.976,367.499 1260.368,350.167C1245.331,319.635 1251.415,282.107 1275.054,258.467C1284.926,248.478 1293.763,243.313 1306.387,239.987ZM1338.066,271.549C1334.734,270.63 1330.261,269.827 1328.082,269.945C1312.588,270.401 1300.075,280.385 1295.373,295.879L1294.565,298.52L1361.249,298.52L1360.558,295.305C1358.151,284.748 1348.624,274.764 1338.066,271.549ZM1143.531,240.561C1147.776,239.296 1153.632,238.957 1163.844,239.296C1181.059,239.759 1188.519,242.054 1201.372,250.662C1215.373,260.072 1225.591,275.338 1230.411,294.386C1233.163,305.523 1233.508,325.491 1230.984,336.166C1227.196,352.005 1215.262,368.875 1200.799,378.402C1197.244,380.809 1189.895,384.252 1184.502,386.202C1175.778,389.306 1173.371,389.645 1161.548,389.645C1150.991,389.534 1146.857,389.071 1140.89,387.01C1132.054,383.907 1123.674,378.859 1119.657,374.04L1116.788,370.597L1116.788,435.097L1073.175,435.097L1073.175,241.135L1117.016,241.135L1116.56,249.052L1116.214,256.974L1121.033,252.612C1126.543,247.447 1135.034,242.973 1143.531,240.561ZM1167.515,276.714C1156.038,272.351 1140.661,274.535 1131.134,281.761C1108.982,298.637 1111.049,337.542 1134.806,350.395C1145.826,356.479 1159.944,356.824 1170.502,351.431C1176.468,348.445 1184.157,339.837 1187.6,332.26C1192.882,320.672 1192.191,302.994 1185.996,292.899C1181.862,286.241 1173.599,279.009 1167.515,276.714ZM797.802,457.156C797.339,456.125 798.95,455.779 803.423,455.779L809.624,455.779L815.246,474.717C818.343,485.163 821.213,493.08 821.441,492.278C821.787,491.475 824.427,482.979 827.297,473.569L832.69,456.353L837.854,456.008L843.136,455.662L846.579,466.911C848.529,473.112 851.17,481.948 852.663,486.65L855.187,495.258L856.68,489.408C857.482,486.311 860.123,477.469 862.53,470.009L867.009,456.353L873.088,456.008C877.678,455.779 879.06,456.008 878.598,457.156C878.369,457.958 874.235,470.354 869.645,484.7L861.154,510.869L849.448,510.869L843.938,492.389C840.841,482.294 837.971,474.717 837.626,475.519C837.169,476.321 834.528,484.589 831.77,493.882L826.723,510.869L814.9,510.869L813.067,505.359C812.148,502.379 808.36,490.667 804.799,479.307C801.245,467.947 798.03,457.958 797.802,457.156ZM909.24,457.958C912.344,456.582 916.589,455.779 921.982,455.779C931.966,455.779 937.822,458.303 943.443,464.844C945.738,467.485 948.151,471.964 948.953,474.834C951.822,484.929 948.608,498.473 941.839,504.785C934.952,511.215 922.21,513.738 912.11,510.752C898.337,506.624 890.537,489.637 895.239,474.026C896.961,468.059 903.619,460.599 909.24,457.958ZM931.047,468.287C918.539,461.29 905.34,469.435 905.34,484.127C905.34,497.671 919.915,506.278 930.707,499.047C941.036,492.161 941.265,474.026 931.047,468.287ZM973.055,455.897C973.055,455.662 979.367,455.662 987.173,456.008C1002.093,456.582 1005.764,457.729 1010.812,463.122C1012.996,465.418 1013.798,467.713 1014.144,472.878C1014.718,480.801 1012.534,485.848 1007.486,488.489C1005.536,489.52 1004.043,490.556 1004.043,490.784C1004.043,491.13 1006.912,495.375 1010.355,500.423C1013.798,505.476 1016.668,509.839 1016.668,510.178C1016.668,510.524 1013.915,510.869 1010.472,510.869L1004.271,510.869L998.076,501.114C992.22,491.704 991.875,491.358 987.747,491.358L983.384,491.358L983.384,510.869L972.481,510.869L972.709,483.67C972.938,468.633 973.055,456.125 973.055,455.897ZM1001.291,468.978C1000.026,467.257 997.848,466.683 991.535,466.337L983.384,465.88L983.384,482.177L990.616,482.177C999.569,482.177 1002.895,480.227 1002.895,474.834C1002.895,472.767 1002.204,470.126 1001.291,468.978ZM1039.622,510.869L1039.622,455.662L1045.132,456.008L1050.525,456.353L1050.525,468.176C1050.525,474.6 1050.753,479.881 1051.099,479.764C1051.444,479.764 1056.035,474.371 1061.428,467.713L1071.183,455.779L1077.841,455.779C1081.396,455.779 1084.382,456.008 1084.382,456.353C1084.382,456.699 1079.791,462.437 1074.053,469.095C1068.431,475.636 1063.723,481.374 1063.723,481.72C1063.723,482.06 1068.431,488.372 1074.281,495.721C1080.02,503.181 1085.184,509.604 1085.647,510.295C1086.221,510.986 1083.925,511.326 1079.217,511.098L1071.874,510.641L1061.773,497.554C1056.263,490.328 1051.444,484.472 1051.099,484.472C1050.753,484.472 1050.642,490.439 1050.87,497.671L1051.216,510.869L1039.622,510.869ZM1102.171,458.303C1101.598,455.779 1101.715,455.662 1107.564,456.008L1113.531,456.353L1119.27,475.519L1125.008,494.573L1130.29,477.24C1137.405,453.712 1136.257,455.779 1142.224,455.779C1146.932,455.779 1147.389,456.008 1148.536,459.451C1149.11,461.518 1151.868,470.243 1154.509,478.734L1159.211,494.228L1165.067,474.945L1171.034,455.779L1177.118,455.779C1182.628,455.779 1183.202,456.008 1182.511,457.729C1182.054,458.877 1178.037,471.273 1173.557,485.274L1165.295,510.869L1159.328,510.869C1153.361,510.869 1153.361,510.869 1152.096,506.507C1151.523,504.211 1148.999,495.604 1146.586,487.57L1142.224,472.878L1136.603,491.932L1130.864,510.986L1124.78,510.641L1118.585,510.295L1110.779,485.62C1106.417,472.076 1102.517,459.796 1102.171,458.303ZM1203.743,456.008C1203.743,455.897 1212.696,455.897 1223.6,456.008L1243.339,456.353L1243.684,461.173L1244.03,466.109L1214.072,466.109L1214.072,478.734L1241.617,478.734L1241.617,489.063L1214.072,489.063L1214.072,501.688L1243.913,501.688L1243.913,510.869L1203.169,510.869L1203.398,483.67C1203.626,468.633 1203.743,456.236 1203.743,456.008ZM1282.818,463.468L1286.378,455.662L1296.016,456.353L1307.727,483.553L1319.433,510.869L1306.463,510.869L1303.939,505.014L1301.415,499.275L1290.278,499.621L1279.263,499.966L1277.196,505.131C1275.246,510.295 1275.129,510.295 1268.705,510.869C1265.145,511.215 1262.276,511.326 1262.276,510.986C1262.276,510.524 1277.653,474.834 1282.818,463.468ZM1292.116,472.193C1292.116,468.633 1290.166,471.273 1287.642,478.388C1286.149,482.75 1284.656,486.885 1284.311,487.57C1283.965,488.717 1285.687,489.063 1290.851,489.063C1294.757,489.063 1297.855,488.834 1297.855,488.489C1297.855,488.144 1296.59,484.7 1294.985,480.801C1293.381,476.895 1292.116,473.112 1292.116,472.193ZM1339.172,510.641L1339.172,455.434L1353.401,456.008C1369.703,456.81 1374.868,458.532 1378.996,464.844C1384.05,472.421 1381.865,484.818 1374.751,488.489C1372.801,489.52 1371.308,490.556 1371.308,490.784C1371.308,491.13 1374.177,495.375 1377.62,500.423C1381.063,505.476 1383.932,509.839 1383.932,510.178C1383.932,510.524 1381.18,510.869 1377.737,510.869L1371.536,510.869L1365.341,501.114C1359.485,491.704 1359.14,491.358 1355.011,491.358L1350.649,491.358L1350.649,511.443L1344.911,511.098L1339.172,510.641ZM1368.556,468.978C1367.291,467.257 1365.112,466.683 1358.8,466.337L1350.649,465.88L1350.649,482.405L1358.8,481.948C1367.748,481.486 1370.16,479.764 1370.16,474.143C1370.16,472.538 1369.469,470.126 1368.556,468.978Z" style="fill:rgb(107,135,156);"/>
            </g>
        </g>
    </g>
</svg>
