<?xml version="1.0" encoding="UTF-8" standalone="no"?>
<!DOCTYPE svg PUBLIC "-//W3C//DTD SVG 1.1//EN" "http://www.w3.org/Graphics/SVG/1.1/DTD/svg11.dtd">
<svg width="100%" height="100%" viewBox="0 0 3342 1421" version="1.1" xmlns="http://www.w3.org/2000/svg" xmlns:xlink="http://www.w3.org/1999/xlink" xml:space="preserve" xmlns:serif="http://www.serif.com/" style="fill-rule:evenodd;clip-rule:evenodd;stroke-linejoin:round;stroke-miterlimit:2;">
    <g transform="matrix(1,0,0,1,-329.18645,-789.605999)">
        <g transform="matrix(4.15433,0,0,4.15433,-158.579093,549.25998)">
            <path d="M198.514,267.78C197.546,267.792 193.558,267.843 186.456,266.762C184.14,266.41 180.498,264.939 173.522,263.38C173.103,263.287 173.156,263.128 168.38,261.862C164.548,260.847 156.871,256.45 153.744,254.108C151.409,252.359 147.725,251.217 143.784,247.178C132.506,235.616 132.534,234.292 131.28,232.657C129.765,230.682 129.492,230.873 128.456,228.527C127.922,227.318 126.047,224.332 125.371,222.557C123.591,217.883 122.476,216.717 121.084,210.589C120.166,206.548 119.83,206.627 119.426,202.507C119.132,199.512 118.585,199.59 118.453,193.501C118.364,189.429 117.216,189.548 117.44,185.499C117.54,183.7 117.844,181.305 117.901,176.507C117.942,173.006 118.123,173.021 117.894,169.516C117.632,165.489 118.087,165.497 117.789,161.493C117.55,158.291 118.223,157.861 117.849,146.492C117.525,136.613 118.599,133.98 118.502,130.5C118.446,128.483 118.462,128.506 118.635,126.489C118.724,125.453 118.315,125.457 118.469,113.5C118.514,109.991 118.588,110.006 118.259,106.513C117.989,103.652 118.549,100.806 118.401,98.505C117.791,89.011 118.625,89.02 118.313,79.498C118.197,75.992 118.604,76.003 118.276,72.523C118.194,71.65 117.641,65.782 118.715,61.571C118.848,61.05 119.394,58.908 124.443,58.059C125.437,57.891 134.977,57.759 136.455,57.944C140.187,58.411 141.859,58.679 142.122,61.521C142.517,65.788 141.636,72.699 142.633,79.48C143.064,82.41 142.464,82.411 143.014,116.505C143.087,120.981 142.759,120.962 142.936,125.454C143.021,127.603 142.617,128.092 143.164,128.844C144.353,130.479 146.375,127.474 146.98,126.991C153.37,121.886 154.571,119.45 165.482,114.461C170.395,112.214 170.322,112.044 175.487,110.458C176.141,110.258 176.002,109.92 183.472,107.382C185.812,106.587 188.258,106.91 190.399,106.183C196.199,104.214 203.512,104.679 211.5,104.644C214.909,104.63 224.843,105.777 231.614,108.217C237.787,110.442 237.94,110.054 243.761,113.066C248.359,115.446 248.409,115.338 252.552,118.429C256.722,121.541 263.172,125.421 268.69,132.353C271.125,135.412 271.011,135.48 273.475,138.518C274.584,139.884 280.028,149.758 281.617,154.464C282.724,157.741 285.829,168.624 286.154,172.532C286.311,174.416 286.41,178.022 286.423,178.5C286.718,189.282 284.293,205.015 282.151,209.407C277.621,218.694 277.912,218.832 272.987,226.798C271.27,229.576 271.492,229.728 269.216,232.249C266.829,234.892 267.319,235.325 263.156,239.153C256.345,245.416 253.465,249.383 249.435,251.34C245.375,253.311 245.75,253.997 241.574,255.657C234.593,258.432 229.886,262.335 221.465,264.37C215.632,265.779 215.828,266.705 209.45,267.204C206.928,267.402 206.542,267.728 203.496,267.662C200.989,267.608 201.013,267.633 198.514,267.78ZM211.128,240.474C210.891,238.597 210.885,238.609 210.872,238.446C210.235,230.637 209.087,230.78 209.167,226.483C209.272,220.781 218.085,220.89 219.488,222.511C220.917,224.162 223.453,234.695 224.903,236.078C225.599,236.742 226.845,237.931 236.226,232.07C238.855,230.428 239.737,229.405 238.554,227.459C238.021,226.584 237.89,226.692 230.225,217.729C229.814,217.248 226.91,213.853 232.193,210.08C236.122,207.274 238.505,209.558 239.555,210.431C248.316,217.717 250.664,218.091 252.474,215.481C259.066,205.981 257.674,204.273 256.677,203.287C255.827,202.446 243.42,198.906 242.554,198.405C239.778,196.796 242.149,190.818 242.372,190.415C242.652,189.907 243.519,188.338 249.464,188.927C253.981,189.374 253.94,189.543 258.464,189.909C259.448,189.988 262.459,190.938 263.046,188.431C263.077,188.301 262.769,182.963 262.689,182.466C262.289,179.991 262.301,180.006 262.445,177.497C262.724,172.625 260.185,174.161 255.438,175.269C246.567,177.339 242.986,178.416 241.372,173.558C239.457,167.795 242.769,168.561 252.447,163.408C253.857,162.657 253.915,162.832 255.315,162.094C256.977,161.218 257.899,159.157 256.769,157.371C254.818,154.29 255,154.189 252.886,151.215C250.754,148.215 249.929,146.966 246.792,149.834C245.402,151.104 239.564,156.258 238.251,157.106C234.076,159.803 229.867,156.299 229.278,154.598C227.908,150.638 232.212,147.635 236.299,142.35C240.676,136.691 237.487,135.771 235.373,134.767C229.57,132.011 225.162,128.687 223.333,134.451C222.181,138.08 221.919,137.965 220.836,141.609C219.36,146.573 218.426,148.064 212.509,147.413C205.794,146.674 209.884,139.556 210.463,133.495C210.715,130.851 211.306,128.807 209.337,127.979C209.319,127.972 203.082,127.115 201.478,127.276C195.66,127.861 195.609,127.833 195.247,128.184C193.217,130.157 196.305,135.442 196.69,142.487C196.927,146.807 195.431,147.449 194.719,147.893C193.167,148.861 189.046,148.385 188.546,148.274C184.294,147.33 182.823,135.06 180.227,133.983C178.844,133.409 173.158,136.011 171.79,136.94C168.764,138.994 167.372,138.841 166.98,140.629C166.389,143.331 170.588,145.28 174.992,151.096C176.891,153.605 180.188,154.929 174.399,159.364C174.012,159.66 171.421,161.645 168.446,160.653C168.317,160.61 165.091,158.684 163.123,156.926C160.969,155.002 161.024,154.952 158.627,153.324C154.794,150.721 153.817,153.281 152.143,156.321C148.358,163.192 147.041,163.222 148.294,165.63C149.108,167.195 155.559,168.529 159.515,169.432C160.638,169.688 165.16,171.661 165.077,175.509C165.062,176.183 164.948,181.451 158.475,180.753C155.492,180.431 155.506,180.551 152.512,180.303C151.951,180.256 148.4,179.962 145.475,180.211C140.808,180.608 143.06,188.909 142.908,192.512C142.7,197.443 145.442,195.892 151.532,194.605C155.029,193.865 161.995,191.172 163.372,194.562C166.376,201.962 161.571,203.476 160.351,204.244C158.607,205.342 158.526,205.133 156.542,205.628C154.189,206.214 154.302,206.512 151.43,207.209C146.462,208.415 147.836,211.133 150.363,216.57C153.724,223.803 156.688,219.964 159.368,218.3C163.282,215.869 163.124,215.654 163.466,215.447C168.689,212.271 168.635,212.148 169.591,211.886C172.742,211.022 175.867,214.747 176.473,216.51C176.671,217.088 177.366,219.11 173.631,223.603C169.68,228.356 163.283,231.738 168.308,234.815C172.432,237.341 173.631,238.125 177.567,239.215C182.022,240.45 182.109,235.232 184.284,229.439C186.109,224.58 185.754,222.499 192.55,223.116C197.774,223.59 196.467,225.783 195.764,232.52C194.897,240.817 194.799,240.796 194.734,241.517C194.542,243.662 197.206,243.717 197.489,243.722C203.001,243.834 202.996,243.874 208.46,243.245C211.472,242.899 211.063,240.68 211.128,240.474Z" style="fill:rgb(185,95,91);"/>
            <path d="M413.999,244.966C410.517,248.396 400.366,257.045 399.478,257.46C398.765,257.793 398.703,257.624 390.387,261.223C389.925,261.423 389.906,261.358 384.435,263.304C380.531,264.693 380.393,264.072 376.395,265.181C375.513,265.425 375.009,265.326 371.567,265.921C367.377,266.646 367.33,265.889 360.496,266.431C359.301,266.526 349.08,266.434 345.357,264.835C339.838,262.465 337.198,264.047 330.269,259.848C329.529,259.399 323.879,256.87 320.689,254.269C318.555,252.528 316.5,251.641 314.995,250.046C313.011,247.943 312.887,248.084 311.056,245.869C310.895,245.674 309.38,244.339 307.736,242.306C303.961,237.637 298.675,226.676 298.202,224.557C296.421,216.573 295.216,214.432 294.21,208.578C293.799,206.184 293.138,206.286 293.1,200.498C293.063,194.992 292.938,195.008 292.929,189.493C292.927,188.533 292.98,188.539 293.862,177.527C294.82,165.574 295.707,162.512 301.807,147.631C302.491,145.963 306.699,136.463 310.593,132.597C315.396,127.827 314.87,127.295 320.192,123.122C324.187,119.989 325.164,118.164 331.451,115.395C337.889,112.559 337.592,111.703 344.469,110.35C348.028,109.65 347.905,109.141 351.523,108.722C353.125,108.537 353.119,108.178 355.489,108.106C357.962,108.031 372.425,106.66 386.504,110.487C388.356,110.991 396.466,114.457 398.387,115.693C400.687,117.173 401.782,117.273 407.952,123.042C410.581,125.5 410.762,125.31 412.961,128.143C414.278,129.838 419.428,135 421.083,138.69C425.323,148.144 424.947,148.27 426.581,153.475C427.383,156.029 428.214,156.599 428.83,163.466C429.598,172.033 430.456,171.911 430.57,175.496C430.572,175.539 430.71,186.885 430.45,188.493C429.64,193.514 426.915,192.331 420.501,192.561C416.993,192.687 417.005,192.3 413.507,192.583C409.003,192.947 396.977,192.03 391.544,192.78C385.922,193.557 377.708,192.825 361.49,193.231C360.931,193.245 360.943,193.08 354.498,193.147C344.374,193.252 344.377,193.087 343.497,193.098C340.149,193.137 335.392,194.201 326.486,193.728C326.312,193.719 323.32,193.279 322.264,194.244C320.877,195.509 321.605,198.172 321.69,200.497C321.841,204.606 322.38,204.516 323.09,208.566C323.417,210.43 323.266,211.883 327.694,221.404C327.983,222.026 328.821,223.827 332.353,228.606C332.934,229.393 333.882,231.322 340.702,236.168C344.808,239.086 348.776,240.172 349.53,240.379C351.697,240.972 364.184,245.813 378.531,239.572C381.796,238.151 386.383,236.808 391.76,229.69C394.29,226.342 397.574,219.389 398.107,218.309C402.196,210.017 404.275,211.903 413.512,212.306C413.948,212.325 423.441,213.154 425.463,213.652C427.732,214.21 429.299,214.879 428.25,219.432C427.828,221.262 426.712,223.363 425.602,226.534C424.118,230.774 423.688,230.565 421.691,234.601C421.405,235.179 420.12,237.777 417.324,241.371C416.78,242.07 416.756,242.042 413.999,244.966ZM401.903,167.583C401.89,167.192 402.129,166.557 401.611,164.472C400.956,161.837 401.381,161.782 400.864,159.417C399.884,154.931 397.721,150.328 397.366,149.571C394.17,142.768 387.116,137.406 385.53,136.453C376.548,131.056 374.625,131.086 366.446,129.935C361.687,129.266 352.817,130.485 346.441,134.397C344.281,135.723 342.016,136.843 341.808,136.963C340.362,137.799 334.156,143.397 330.729,148.648C326.549,155.054 323.902,165.826 323.8,166.544C323.351,169.724 323.396,170.515 326.565,171.038C327.6,171.209 339.895,171.379 343.556,170.975C350.436,170.214 356.09,170.979 360.493,170.442C364.982,169.893 364.987,170.273 369.501,170.26C384.225,170.218 384.214,170.266 385.493,170.232C391.013,170.086 390.995,170.294 396.498,170.253C401.773,170.213 401.59,168.199 401.903,167.583Z" style="fill:rgb(186,90,84);"/>
            <path d="M787.509,246.509C786.481,247.507 786.495,247.493 785.503,248.503C784.682,249.315 780.318,253.632 773.506,256.511C763.21,260.862 762.072,260.815 759.395,261.132C756.557,261.467 749.191,264.177 743.491,263.77C736.999,263.306 736.96,264.211 730.535,263.249C720.81,260.343 718.167,261.748 702.749,254.059C697.099,250.851 697.213,250.253 691.872,246.026C688.922,243.691 681.204,234.243 679.644,230.432C678.095,226.648 676.638,225.242 674.715,220.412C670.278,209.269 671.014,206.495 669.925,202.395C668.912,198.583 668.896,191.732 668.874,191.458C668.559,187.475 668.454,187.496 668.549,178.5C668.741,160.37 673.416,146.551 674.959,143.762C676.923,140.214 676.731,140.147 678.559,136.532C680.436,132.819 686.3,125.974 687.041,125.109C687.961,124.035 692.791,118.396 700.774,113.98C710.925,108.364 715.153,107.527 726.508,105.541C729.765,104.971 751.82,104.596 760.727,109.053C762.998,110.19 767.211,112.021 768.338,112.765C772.941,115.808 782.923,121.234 789.022,130.82C790.378,132.951 790.58,132.781 792.012,134.848C792.571,135.655 795.539,140.94 795.741,141.385C801.205,153.454 803.111,166.168 803.197,166.549C803.591,168.307 804.593,177.194 804.622,178.495C804.702,182.097 805.281,182.079 804.836,185.527C804.545,187.778 804.752,189.976 801.491,190.11C797.976,190.256 798.017,190.61 794.506,190.633C779.767,190.731 779.776,190.803 778.496,190.756C771.741,190.51 743.155,190.848 739.494,190.747C731.746,190.531 728.677,190.842 725.496,190.788C717.038,190.643 712.2,191.063 707.484,190.809C702.992,190.568 702.999,190.216 698.522,190.744C694.984,191.162 696.636,193.91 696.837,197.487C697.06,201.442 700.929,213.967 703.98,219.205C705.081,221.095 709.576,226.334 709.627,226.387C713.405,230.315 714.845,231.346 715.354,231.711C721.948,236.434 728,238.33 728.497,238.507C733.662,240.344 742.479,240.32 743.489,240.253C747.69,239.971 753.652,237.824 754.506,237.517C755.97,236.99 761.558,233.975 762.413,233.381C765.516,231.225 769.333,225.523 769.388,225.435C771.857,221.415 772.142,221.607 774.366,217.438C776.283,213.845 776.645,208.705 782.504,209.434C799.058,211.493 799.054,211.377 800.486,211.602C803.124,212.017 806.153,212.173 803.738,219.559C801.365,226.82 797.555,233.55 796.9,234.707C795.084,237.915 795.226,238.008 792.746,240.715C791.57,241.998 791.706,242.67 787.509,246.509ZM751.492,167.763C755.741,167.8 755.723,167.806 758.505,167.63C762.464,167.378 763.259,168.263 770.488,167.378C773.501,167.009 776.135,167.308 774.862,162.404C772.832,154.581 772.964,154.541 771.173,150.636C769.789,147.617 770.121,147.441 768.151,144.767C765.845,141.637 765.999,141.384 761.284,136.734C758.816,134.3 752.531,131.034 752.283,130.939C743.289,127.503 743.143,127.717 733.512,127.877C724.945,128.018 719.351,131.573 717.452,132.394C714.87,133.51 707.467,138.591 703.389,145.437C701.889,147.954 702.167,148.07 700.869,150.681C699.567,153.3 696.454,165.461 696.811,166.454C697.304,167.824 697.583,168.5 710.5,168.436C714.023,168.418 714,168.29 717.503,168.408C718.143,168.429 718.131,168.33 725.498,168.214C728.598,168.165 730.761,167.339 738.492,167.689C739.531,167.736 739.523,167.673 751.492,167.763Z" style="fill:rgb(160,58,55);"/>
            <path d="M851.019,224.216C849.425,226.468 849.477,226.477 847.987,228.793C846.848,230.852 842.543,237.747 841.88,238.722C838.263,244.041 834.705,250.489 832.182,254.29C829.387,258.503 829.14,260.851 825.526,261.602C823.967,261.926 816.509,261.653 810.471,260.94C807.325,260.568 806.356,261.463 803.525,261.115C797.072,260.324 797.049,260.62 796.495,260.515C793.727,259.99 794.376,256.843 794.449,256.489C794.625,255.641 794.7,255.671 800.252,247.34C804.358,241.179 804.231,241.104 804.631,240.601C808.004,236.356 811.518,230.265 816.817,222.694C819.047,219.508 818.764,219.35 821.036,216.167C822.318,214.369 828.989,204.393 829.5,203.5C831.502,200.002 831.818,200.23 833.991,196.821C840.292,186.932 840.498,187.085 841.022,186.212C843.887,181.434 843.997,181.523 846.902,176.751C848.252,174.532 851.273,170.956 853.315,167.398C855.298,163.945 853.387,162.916 849.697,159.33C843.852,153.651 843.843,153.673 838.426,147.568C836.08,144.925 835.901,145.122 833.376,142.638C823.962,133.373 823.206,132.545 822.367,131.624C820.039,129.073 819.624,129.495 815.411,124.587C811.721,120.288 811.516,120.511 807.542,116.461C803.049,111.883 799.123,110.133 800.378,107.428C801.237,105.577 806.921,106.018 807.499,106.063C812.775,106.472 830.475,106.585 834.472,107.607C836.184,108.044 838.786,110.538 839.488,111.511C840.317,112.662 849.629,122.463 850.113,122.93C852.666,125.394 852.664,125.367 854.962,128.084C856.624,130.05 856.787,129.88 858.829,132.192C865.727,140.003 865.907,139.817 866.496,140.504C866.809,140.87 876.232,150.879 877.17,151.817C885.477,160.12 885.387,160.19 886.136,160.883C887.821,162.441 889.37,165.158 889.685,165.124C890.023,165.088 890.267,164.769 890.574,164.623C890.78,164.524 891.099,164.588 891.219,164.393C891.238,164.362 891.172,152.94 891.161,152.49C890.952,143.791 890.985,130.038 891.331,126.48C891.67,122.983 891.447,122.998 891.557,119.501C892.047,103.972 891.506,103.935 891.897,102.644C892.427,100.893 896.11,100.935 896.503,100.94C902.949,101.013 902.946,100.993 903.506,101.02C906.046,101.14 914.13,101.361 914.503,101.387C918.389,101.662 919.861,102.19 919.865,110.5C919.866,111.701 919.874,125.009 919.842,125.508C919.65,128.506 919.701,128.487 919.899,131.49C919.984,132.778 919.649,136.103 919.701,137.5C919.734,138.379 919.818,140.648 919.69,148.503C919.617,153.021 920.038,152.992 920.119,157.511C920.259,165.275 919.989,167.674 919.891,168.552C919.384,173.062 919.751,173.054 920.177,175.539C920.345,176.52 920.29,191.787 920.234,194.496C920.051,203.32 920.697,205.945 920.717,206.482C920.869,210.601 920.588,215.699 920.544,216.499C920.374,219.56 921.437,221.699 921.179,224.478C920.759,228.997 921.587,228.981 921.427,233.503C921.2,239.947 921.346,239.93 921.314,240.488C921.058,245.009 920.964,245.006 921.619,249.487C921.923,251.57 921.716,261.355 921.698,261.517C921.111,266.74 914.351,264.517 906.505,264.325C904.426,264.274 904.431,264.5 895.464,263.675C892.44,263.397 892.725,262.513 892.339,259.514C892.036,257.163 891.566,257.184 891.953,250.52C892.156,247.008 891.87,247.025 891.806,243.497C891.759,240.926 892.204,217.521 891.894,214.465C891.531,210.881 892.344,210.762 891.789,206.478C891.128,201.378 890.626,200.451 888.685,198.325C884.326,193.553 882.195,191.903 881.568,191.417C879.827,190.071 878.064,186.568 875.422,187.323C873.959,187.742 869.615,195.256 868.701,196.631C868.482,196.961 866.792,199.503 865.979,200.777C861.667,207.537 861.717,207.552 861.149,208.236C856.791,213.477 855.453,217.988 851.019,224.216Z" style="fill:rgb(155,53,51);"/>
            <path d="M503.495,264.699C499.422,264.544 499.411,264.64 495.492,263.531C489.457,261.823 489.247,262.706 483.448,260.628C470.739,256.075 465.252,250.26 464.007,248.94C461.089,245.848 461.295,245.708 458.697,242.357C455.475,238.202 455.927,237.952 454.08,233.689C451.103,226.821 451.092,226.818 449.522,219.495C448.323,213.902 452.07,213.844 454.467,213.371C468.126,210.672 470.122,210.706 471.501,210.73C477.249,210.828 474.168,214.469 480.587,226.448C481.436,228.032 486.437,233.333 487.597,234.402C489.625,236.272 495.766,238.87 498.408,239.771C505.535,242.2 520.39,240.783 522.466,240.313C523.204,240.146 523.172,240.058 531.394,237.183C531.715,237.07 533.865,236.318 535.075,235.058C536.561,233.508 536.534,233.51 538.117,232.069C540.075,230.287 542.804,225.99 543.578,223.525C545.493,217.432 543.278,212.218 542.895,211.318C542.714,210.892 541.735,208.588 539.169,206.893C532.975,202.8 532.498,202.752 528.481,201.567C521.174,199.412 521.208,199.327 520.564,199.173C514.89,197.82 515.009,197.464 509.406,195.876C505.883,194.877 501.756,194.167 500.426,193.685C496.995,192.441 496.946,192.648 493.505,191.485C487.594,189.487 487.427,190.022 483.618,188.228C479.527,186.302 479.18,187.121 475.334,184.767C471.666,182.522 467.536,180.958 463.443,176.555C459.449,172.257 459.69,171.714 459.178,170.663C456.565,165.297 453.555,162.68 453.563,152.501C453.571,141.168 454.032,141.146 457.348,132.444C457.7,131.521 459.46,126.903 464.138,122.134C470.24,115.913 475.878,112.673 483.635,109.886C489.686,107.712 489.762,108.004 491.548,107.802C492.402,107.706 499.114,106.57 501.5,106.556C506.522,106.527 506.508,105.902 511.514,106.349C516.539,106.798 516.552,106.322 520.475,106.744C536.639,108.481 546.924,115.528 548.52,116.469C551.828,118.418 553.265,120.703 554.818,122.184C560.996,128.073 567.396,145.396 564.489,148.49C562.554,150.549 547.642,151.138 543.576,151.87C539.955,152.523 539.724,149.75 538.911,147.337C538.487,146.079 535.942,138.524 529.297,133.81C527.916,132.831 521.254,130.409 520.566,130.241C511.079,127.921 506.735,128.628 505.544,128.822C501.423,129.493 498.126,128.602 489.466,132.421C487.247,133.4 482.852,136.703 481.4,139.444C480.322,141.48 479.814,142.156 479.549,143.508C477.957,151.632 483.315,156.011 484.126,156.863C486.494,159.351 492.162,161.588 492.444,161.683C499.766,164.143 500.741,164.407 501.473,164.606C503.083,165.044 521.258,169.98 521.592,170.065C527.149,171.48 526.992,171.959 532.53,173.39C533.408,173.617 540.348,175.41 543.305,176.885C546.829,178.644 547.153,177.944 552.218,180.98C561.174,186.349 561.744,188.209 565.333,192.635C565.892,193.323 567.454,195.25 570.063,202.655C572.227,208.796 571.816,221.677 570.552,225.518C568.929,230.448 569.455,230.629 568.014,233.231C560.838,246.199 557.67,250.488 542.37,258.223C539.092,259.881 539.154,260.09 535.527,260.634C534.715,260.756 527.968,262.898 527.402,263.016C521.959,264.151 521.956,264.152 521.474,264.195C512.6,264.986 512.6,264.826 503.495,264.699Z" style="fill:rgb(174,75,68);"/>
            <path d="M629.97,207.519C630.162,211.334 630.447,213.929 630.441,215.503C630.438,216.143 630.415,222.325 630.533,223.498C630.788,226.033 630.952,225.985 631.28,228.533C632.824,240.505 651.441,233.965 654.842,237.118C655.354,237.592 655.786,237.994 657.071,245.545C658.009,251.067 658.496,250.969 659.027,256.54C659.53,261.821 653.224,260.994 647.502,261.901C644.037,262.45 635.243,262.324 631.465,261.793C630.282,261.626 625.705,261.085 623.542,260.352C622.71,260.071 617.998,258.475 613.951,255.024C608.844,250.67 607.207,246.266 606.873,245.368C605.123,240.659 605.57,237.083 604.502,229.5C603.56,222.812 605.023,222.613 603.896,215.444C603.401,212.29 603.853,207.8 603.675,205.485C603.19,199.199 603.787,185.489 603.548,183.495C603.19,180.516 603.315,180.531 603.165,177.537C602.811,170.449 603.521,170.443 603.094,167.564C602.5,163.565 602.568,163.556 602.747,147.506C602.781,144.435 603.37,144.443 602.848,141.437C602.02,136.665 604.178,131.21 600.467,130.746C591.389,129.61 586.475,130.869 585.356,128.582C584.825,127.497 584.841,127.447 584.691,113.494C584.639,108.669 586.596,109.288 593.499,109.266C599.201,109.248 601.479,110.102 602.282,106.458C603.466,101.077 601.914,97.648 602.213,88.488C602.527,78.896 601.545,78.914 601.911,75.531C602.546,69.671 608.451,68.767 612.627,65.678C614.763,64.098 616.308,63.62 617.625,62.698C620.592,60.621 620.556,60.604 623.716,58.867C629.136,55.886 627.913,63.341 627.913,65.498C627.913,66.217 627.914,74.471 627.915,74.481C628.361,82.168 627.669,90.97 628.25,96.527C628.82,101.986 628.249,102.059 628.474,104.503C628.913,109.268 630.316,109.106 631.509,109.148C638.329,109.388 639.754,109.214 640.466,109.127C643.989,108.696 643.979,108.901 647.526,109.1C648.187,109.138 648.85,109.148 649.511,109.19C654,109.476 653.181,112.648 653.22,114.497C653.256,116.249 653.922,117.022 653.39,125.493C653.033,131.162 650.887,129.855 647.469,130.24C638.325,131.271 632.909,130.34 631.493,130.291C629.689,130.23 628.876,131.32 628.948,135.504C629.232,152.072 628.861,152.053 628.926,153.491C629.086,157.007 628.806,156.989 629.017,160.519C629.121,162.25 628.831,164.395 629.167,166.566C629.698,170.01 629.327,170.021 629.435,173.502C629.748,183.566 628.87,185.231 629.756,190.457C630.096,192.458 630.217,203.04 629.97,207.519Z" style="fill:rgb(169,68,63);"/>
            <path d="M399.9,342.148C398.66,340.904 394.257,337.07 392.36,332.553C391.268,329.955 390.14,328.034 390.404,321.496C390.9,309.191 399.399,302.465 401.115,301.015C402.22,300.082 407.508,297.073 410.405,296.18C421.804,292.669 421.995,293.641 425.494,293.426C426.023,293.394 431.937,291.567 446.552,294.229C446.62,294.241 453.533,295.904 456.524,297.455C457.135,297.772 460.892,299.722 463.458,302.537C466.964,306.384 469.655,308.193 472.137,316.602C472.489,317.797 473.164,323.04 473.028,323.401C472.123,325.819 468.672,324.102 463.438,325.226C461.677,325.604 451.646,325.969 450.275,324.732C448.385,323.027 449.485,318 443.667,314.205C440.754,312.306 440.59,311.83 436.491,311.558C436.055,311.529 428.771,310.383 422.564,311.755C422.038,311.872 417.244,313.618 415.777,314.842C412.858,317.276 412.679,319.063 412.634,319.511C412.406,321.775 412.666,325.35 421.588,329.296C423.648,330.207 423.789,329.704 431.4,331.876C437.347,333.573 437.435,333.149 443.378,334.897C447.063,335.981 447.207,335.48 450.732,337.012C454.054,338.456 456.689,337.963 465.233,343.884C472.551,348.955 473.982,354.661 475.283,358.577C475.865,360.33 476.579,367.623 476.127,370.441C475.088,376.915 474.872,376.886 471.807,382.661C470.769,384.617 471.026,384.885 464.857,390.89C462.858,392.836 457.866,395.986 450.502,397.509C446.116,398.416 443.558,399.307 440.502,399.267C437.772,399.232 437.605,399.76 435.499,399.753C434.95,399.751 423.5,400.549 412.452,397.741C410.639,397.281 409.665,396.449 408.307,395.944C406.421,395.242 406.444,395.229 400.788,392.003C399.754,391.18 398.863,390.425 398.698,390.285C398.202,389.869 391.7,385.822 387.619,373.461C387.491,373.074 387.629,373.05 386.641,368.46C385.458,362.96 389.048,363.713 394.472,363.196C405.563,362.14 405.562,362.032 406.525,362.128C411.399,362.614 408.027,369.407 416.786,377.149C420.982,380.857 431.671,381.895 436.427,381.003C442.34,379.895 443.716,379.317 444.315,379.065C451.436,376.073 452.291,371.424 452.462,370.493C453.189,366.535 453.183,363.671 448.636,360.307C448.489,360.198 448.489,360.223 446.645,359.173C440.077,356.396 437.864,355.951 432.609,355.023C430.779,354.519 420.325,351.284 414.634,350.142C407.475,347.522 404.672,346.522 399.9,342.148Z" style="fill:rgb(35,32,33);"/>
            <path d="M559.566,377.498C559.826,386.316 560.524,388.197 563.104,393.687C563.242,393.98 564.855,397.412 561.482,397.394C560.612,397.389 560.638,397.215 557.499,397.304C554.995,397.374 555.016,397.508 552.503,397.251C548.565,396.848 543.844,398.639 541.662,395.415C540.353,393.482 540.67,389.595 536.48,392.473C534.522,393.817 533.933,395.708 524.496,398.487C522.156,399.176 510.226,400.605 504.326,397.873C499.836,395.794 498.335,395.248 494.232,391.787C494.16,391.727 492.117,391.181 489.421,383.528C488.618,381.25 487.519,374.421 490.958,367.736C495.638,358.638 503.094,357.305 510.546,354.643C513.29,353.662 515.46,354.02 517.486,353.452C524.835,351.394 529.55,351.303 535.451,349.361C538.948,348.211 537.68,345.5 537.246,343.552C537,342.447 536.513,338.741 530.504,337.483C529.582,337.29 523.472,336.651 520.458,337.327C515.454,338.449 513.026,341.941 512.594,342.562C511.442,344.22 511.089,346.035 508.476,345.814C503.091,345.36 500.207,344.663 499.502,344.492C495.854,343.609 491.627,344.023 491.528,341.498C491.491,340.551 492.907,335.502 496.124,332.137C497.062,331.156 498.165,329.126 502.196,326.108C502.716,325.718 504.091,324.689 509.579,322.711C512.253,321.747 513.56,322.151 519.465,321.314C521.999,320.955 522.013,321.296 524.563,320.912C527.073,320.534 538.275,321.457 540.393,321.971C547.3,323.649 547.475,324.128 551.518,326.471C553.94,327.875 556.323,329.46 558.798,337.397C559.601,339.971 558.996,341.099 559.306,344.516C559.715,349.01 559.823,348.988 559.648,353.505C559.629,353.997 559.79,356.743 559.759,357.503C559.537,363.007 559.719,363.002 559.291,368.483C559.233,369.219 559.111,369.218 559.566,377.498ZM537.821,367.526C537.82,367.334 538.44,363.626 536.598,363.164C534.722,362.694 529.144,364.385 528.516,364.575C527.222,364.967 524.663,365.181 522.582,365.806C513.372,368.576 511.942,369.959 511.315,373.465C510.488,378.09 511.862,379.189 512.802,380.248C519.627,387.943 529.729,382.998 532.613,380.645C537.494,376.664 537.151,375.406 537.821,367.526Z" style="fill:rgb(30,28,28);"/>
            <path d="M661.413,392.501C661.398,393.074 661.514,394.904 660.96,395.786C659.968,397.364 659.345,397.067 654.512,397.149C652.424,397.184 651.585,396.763 649.491,396.959C646.51,397.238 646.527,397.114 643.522,397.169C641.867,397.198 641.8,397.457 640.374,396.663C639.515,396.185 639.483,394.688 639.479,394.501C639.32,387 639.785,387.022 639.491,379.5C639.457,378.621 639.615,378.625 639.543,368.499C639.475,358.985 639.539,359.003 639.457,349.5C639.397,342.49 639.665,342.501 639.444,335.502C639.16,326.488 639.827,326.508 639.476,317.5C639.442,316.65 639.367,296.441 639.758,295.591C640.413,294.167 641.66,294.076 642.501,294.068C652.623,293.976 652.617,294.1 653.497,294.087C656.783,294.037 660.95,293.009 661.172,296.507C661.258,297.848 661.133,313.971 661.338,318.508C661.396,319.809 661.103,351.077 661.393,357.505C661.41,357.895 661.119,383.569 661.413,392.501Z" style="fill:rgb(30,28,27);"/>
            <path d="M629.061,330.279C628.681,331.158 628.069,332.36 627.696,333.563C627.512,334.156 625.714,339.953 624.867,340.8C622.633,343.035 620.403,339.954 617.462,339.771C611.275,339.385 608.363,338.812 603.69,345.64C602.605,348.135 602.362,348.507 601.536,354.505C601.081,357.806 600.906,358.171 600.847,360.507C600.477,375.09 599.841,375.075 600.272,380.517C600.496,383.354 600.212,394.425 600.206,394.478C599.95,396.729 599.73,397.109 597.472,397.12C595.762,397.129 591.99,397.724 587.505,397.289C581.079,396.666 579.087,398.392 578.662,395.459C578.488,394.252 578.462,387.101 578.485,386.5C578.836,377.222 578.28,354.686 578.494,349.5C578.856,340.701 578.235,336.777 578.49,330.5C578.762,323.824 578.024,321.919 582.502,322.005C583.392,322.022 595.674,321.617 597.589,322.28C599.921,323.086 598.328,328.014 598.436,329.513C598.506,330.478 598.515,330.729 599.491,330.708C601.141,330.674 600.61,328.366 606.555,323.564C611.365,319.679 622.532,319.513 629.374,323.679C631.153,324.762 630.224,325.908 629.061,330.279Z" style="fill:rgb(27,26,26);"/>
        </g>
    </g>
</svg>
