<?xml version="1.0" encoding="UTF-8" standalone="no"?>
<!DOCTYPE svg PUBLIC "-//W3C//DTD SVG 1.1//EN" "http://www.w3.org/Graphics/SVG/1.1/DTD/svg11.dtd">
<svg width="100%" height="100%" viewBox="0 0 1024 938" version="1.1" xmlns="http://www.w3.org/2000/svg" xmlns:xlink="http://www.w3.org/1999/xlink" xml:space="preserve" xmlns:serif="http://www.serif.com/" style="fill-rule:evenodd;clip-rule:evenodd;stroke-linejoin:round;stroke-miterlimit:2;">
    <g id="Arrière-plan">
        <path d="M521.682,69.637C524.97,65.482 530.934,58.66 531.755,57.72C538.272,50.266 538.357,50.368 545.57,43.574C546.68,42.528 555.952,33.794 559.853,30.948C562.452,29.053 562.308,28.89 564.875,26.977C570.557,22.744 570.159,22.252 570.714,21.987C571.406,21.656 571.426,21.872 571.764,22.202C571.9,22.335 572.22,22.344 572.226,22.533C572.244,23.079 570.162,26.102 569.533,27.515C566.059,35.32 565.259,37.85 564.243,41.432C563.862,42.776 561.207,52.144 560.65,58.514C560.024,65.681 559.542,72.57 561.246,83.542C564.286,103.12 570.103,113.236 575.403,124.549C581.195,136.915 593.037,153.346 594.037,154.828C601.193,165.433 605.755,170.372 606.526,171.479C610.933,177.807 622.565,191.139 623.619,192.399C630.44,200.559 630.57,200.428 637.592,208.419C646.482,218.536 646.672,218.344 655.605,228.408C658.008,231.115 662.175,235.518 674.692,249.321C687.632,263.589 692.557,269.108 694.1,270.837C702.072,279.77 704.016,282.315 705.28,283.698C713.952,293.186 724.173,306.248 726.316,308.65C729.358,312.058 732.784,316.845 734.305,318.653C734.748,319.178 734.847,319.297 739.61,325.41C749.659,338.308 759.16,352.881 760.761,355.337C764.8,361.531 772.075,372.315 784.09,395.72C790.819,408.829 801.474,434.392 805.255,455.548C808.066,471.272 811.362,484.063 810.193,514.481C810.11,516.651 808.24,532.717 808.118,533.442C803.882,558.634 798.001,573.135 791.927,585.694C790.294,589.068 776.449,621.337 740.611,653.619C732.324,661.083 730.594,662.623 724.819,666.926C713.987,674.996 714.066,675.087 707.802,678.993C698.956,684.51 699.017,684.586 698.229,685.032C679.816,695.451 678.434,695.528 676.503,695.636C674.67,695.739 586.34,695.486 578.499,695.463C567.493,695.431 567.531,696.152 566.578,696.097C566.365,696.085 565.338,695.142 565.624,694.59C565.862,694.132 568.281,693.61 568.522,693.558C581.302,690.8 598.441,681.663 601.651,679.782C608.334,675.865 618.503,671.409 639.211,654.157C648.278,646.602 656.564,637.477 657.97,635.927C671.883,620.604 676.624,612.034 679.196,608.286C686.365,597.843 692.574,583.479 693.346,581.441C696.417,573.333 698.18,570.861 702.013,555.361C704.415,545.647 706.285,528.398 706,520.5C705.576,508.761 705.089,488.69 694.43,460.524C684.335,433.848 676.096,421.895 672.285,414.618C667.902,406.246 655.225,387.567 653.656,385.4C652.71,384.095 646.964,375.463 643.711,371.346C642.849,370.256 635.032,359.303 632.712,356.345C626.586,348.532 626.667,348.488 626.115,347.826C625.683,347.307 625.427,346.999 620.9,341.191C606.747,323.032 606.545,323.211 605.432,321.549C604.354,319.941 604.097,320.168 590.206,302.734C589.633,302.015 568.625,275.988 567.986,275.118C563.445,268.932 558.229,262.527 555.317,258.632C552.237,254.512 552.219,254.529 551.966,254.16C547.495,247.635 547.485,247.668 542.736,241.332C540.637,238.532 532.888,226.917 531.471,224.519C527.392,217.613 524.678,215.22 514.864,196.309C495.748,159.474 497.033,138.606 497.479,127.499C497.658,123.045 499.883,110.593 504.068,100.316C506.721,93.8 511.369,85.559 511.424,85.454C512.675,83.058 520.459,71.284 521.682,69.637Z" style="fill:rgb(38,123,191);"/>
        <path d="M695.268,557.619C694.926,557.862 695.012,558.484 694.67,558.727C694.413,558.911 692.684,558.755 692.512,558.739C687.685,558.303 648.767,558.657 645.497,558.603C643.159,558.565 640.823,556.921 627.304,549.892C621.37,546.806 614.81,543.643 613.312,542.825C608.737,540.328 603.844,537.951 602.625,537.273C594.552,532.785 570.176,520.556 567.686,519.135C563.7,516.859 548.8,509.306 548.643,509.221C544.697,507.087 544.613,507.282 540.665,505.173C533.185,501.178 532.879,501.002 532.656,499.47C532.554,498.774 532.703,454.117 532.558,447.499C532.478,443.85 532.971,442.252 528.506,442.31C521.549,442.4 490.269,442.259 487.499,442.276C483.49,442.301 481.838,441.487 481.799,445.502C481.691,456.512 481.873,456.495 481.806,467.497C481.779,471.927 482.649,475.083 478.713,473.027C473.976,470.552 474.011,470.521 473.597,470.313C472.958,469.992 466.671,466.836 465.634,466.238C459.894,462.927 450.742,458.776 434.298,449.918C434.292,449.914 414.153,439.5 413.62,439.239C410.546,437.733 409.815,437.176 409.286,436.903C401.33,432.784 401.039,432.869 399.579,433.651C397.691,434.663 326.491,481.452 325.339,482.264C321.091,485.26 303.873,496.192 302.341,497.249C291.037,505.045 284.006,509.323 280.578,511.616C254.687,528.932 254.541,528.687 252.317,530.23C234.76,542.4 234.368,541.783 216.695,553.798C215.01,554.944 214.991,554.896 214.846,554.996C210.484,557.987 210.542,558.578 205.5,558.565C175.135,558.487 175.139,558.585 172.499,558.557C167.14,558.502 166.227,559.6 165.816,557.615C165.787,557.477 166.081,557.503 166.182,557.405C166.507,557.091 166.334,556.892 167.425,556.406C171.141,554.749 195.548,538.108 195.781,537.966C209.527,529.544 209.278,529.183 210.497,528.496C213.195,526.976 223.922,519.323 227.452,517.414C229.266,516.433 279.815,482.985 279.822,482.98C286.543,478.806 295.496,472.497 297.814,470.968C308.473,463.934 308.575,464.115 319.203,457.055C326.87,451.962 326.77,451.842 327.455,451.43C327.763,451.244 334.958,446.579 335.363,446.295C340.462,442.712 374.056,421.001 376.787,418.772C379.194,416.808 376.811,413.955 373.645,415.765C370.71,417.442 365.971,420.784 365.319,421.243C364.793,421.614 361.629,423.845 358.556,425.588C356.446,426.786 353.523,428.984 347.199,433.047C336.454,439.951 336.512,440.022 335.553,440.579C334.352,441.276 332.103,442.749 331.806,442.943C321.772,449.514 321.9,449.683 310.704,456.817C309.786,457.401 300.959,463.025 299.293,464.218C295.923,466.634 275.874,479.364 270.73,482.845C262.044,488.723 262.018,488.657 261.275,489.185C258.846,490.913 258.069,491.134 256.355,492.268C252.981,494.502 249.076,496.997 248.44,497.403C237.276,504.536 236.868,505.963 235.692,504.375C235.251,503.78 234.222,496.364 234.075,495.579C233.066,490.2 231.929,474.011 231.887,472.486C231.448,456.615 232.525,447.366 232.625,445.507C232.868,440.978 232.986,441.015 233.498,436.5C234.336,429.117 234.487,429.148 234.555,428.507C234.976,424.514 237.348,411.068 237.927,408.604C238.446,406.402 240.578,395.334 243.611,385.534C250.447,363.447 253.376,357.323 258.601,344.543C264.035,331.254 278.556,304.349 282.826,297.701C285.445,293.624 293.208,280.635 297.652,274.602C301.207,269.777 304.5,265.049 305.084,264.21C315.053,249.895 322.509,242.109 324.437,239.448C325.292,238.268 327.652,235.649 328.512,234.51C330.317,232.121 335.655,226.593 339.399,222.407C351.266,209.139 365.577,196.427 367.53,194.531C372.979,189.244 387.779,177.283 390.769,174.828C396.576,170.059 416.114,155.927 421.558,152.593C437.498,142.832 438.978,141.022 439.535,141.267C441.702,142.223 440.298,142.969 438.474,144.48C436.522,146.095 436.543,146.114 435.047,148.164C431.396,153.17 431.138,152.966 422.733,164.662C421.442,166.459 414.903,176.876 414.543,177.525C414.284,177.994 412.84,180.597 411.192,183.326C405.839,192.193 401.122,202.382 400.643,203.559C391.89,225.037 387.001,236.679 384.625,265.508C382.326,293.395 389.738,315.645 391.401,319.543C396.373,331.205 397.135,330.796 399.499,334.501C402.091,338.561 410.65,346.997 422.498,347.554C425.232,347.682 429.624,346.578 431.585,345.684C444.598,339.755 448.918,323.402 440.301,303.595C439.844,302.545 437.297,296.691 434.183,290.65C430.789,284.067 428,274.624 427.305,271.548C423.16,253.195 423.108,234.43 441.434,214.329C441.532,214.223 442.819,212.81 443.221,214.56C443.29,214.861 442.934,215.11 442.847,215.406C441.607,219.65 442.394,227.458 442.499,228.5C443.06,234.071 446.924,247.093 453.329,258.597C461.107,272.564 466.042,279.42 469.657,284.392C481.188,300.249 481.071,300.335 483.653,303.373C488.712,309.327 488.426,309.539 493.374,315.599C496.73,319.709 496.578,319.828 496.895,320.163C501.592,325.128 507.099,332.657 510.152,335.799C511.901,337.599 511.582,337.84 513.263,339.703C516.509,343.3 532.315,363.08 533.952,365.129C536.763,368.647 536.843,368.553 537.07,368.87C538.521,370.892 538.582,370.817 540.08,372.819C543.281,377.097 543.391,377.009 543.625,377.409C544.706,379.253 544.789,379.171 546.181,380.771C546.311,380.92 560.604,400.313 561.96,402.176C563.203,403.883 563.046,403.962 564.286,405.656C565.588,407.433 575.382,421.887 575.663,422.4C576.753,424.382 577.04,424.198 590.142,446.69C592.523,450.776 597.954,462.679 599.875,467.34C601.928,472.321 601.776,472.361 603.81,477.369C606.974,485.157 609.076,494.97 609.494,496.502C611.544,504.017 611.797,512.005 612.403,513.539C613.042,515.156 613.522,514.755 630.403,523.686C639.493,528.495 639.563,528.331 640.326,528.796C645.707,532.071 659.001,538.45 661.34,539.791C664.03,541.332 687.662,553.714 688.628,554.228C692.293,556.18 693.36,556.132 695.268,557.619Z" style="fill:rgb(208,88,37);"/>
        <path d="M435.5,919.886C423.572,919.899 287.325,920.05 286.402,919.794C284.914,919.381 285.144,918.791 285.141,906.5C285.139,894.02 285.107,751.998 285.15,750.498C285.234,747.577 286.669,748.101 293.504,748.109C295.096,748.111 483.461,748.125 487.499,748.112C491.292,748.1 490.5,749.699 490.494,753.5C490.378,834.001 490.704,833.982 490.451,914.5C490.442,917.311 490.932,919.675 488.545,919.859C488.074,919.896 448.652,919.886 435.5,919.886Z" style="fill:rgb(168,35,43);"/>
        <path d="M990.074,889.499C989.955,894.503 989.793,894.473 989.793,899.5C989.795,918.788 989.681,918.86 989.287,919.312C988.608,920.09 988.372,919.863 950.5,919.882C937.377,919.888 787.015,919.964 786.462,919.884C784.297,919.571 784.683,918.427 784.706,910.5C784.702,857.5 784.698,804.5 784.694,751.5C784.694,751.344 784.694,749.748 784.763,749.555C785.182,748.387 785.235,748.264 786.461,748.138C787.02,748.081 830.125,748.145 986.492,748.118C988.29,748.118 989.722,747.959 989.801,750.492C989.953,755.383 989.551,877.3 989.966,887.436C990.009,888.477 990.019,888.458 990.074,889.499Z" style="fill:rgb(159,34,41);"/>
        <path d="M201.5,919.885C196.335,919.894 32.694,919.913 32.442,919.88C30.7,919.648 30.572,918.677 30.538,917.499C30.528,917.169 30.547,755.699 30.524,751.5C30.509,748.759 30.758,748.172 33.495,748.155C38.485,748.123 38.482,748.137 227.499,748.134C233.707,748.133 235.285,747.575 235.344,750.504C235.48,757.392 235.336,895.86 235.323,908.5C235.313,917.923 235.422,918.848 234.544,919.57C233.977,920.036 227.123,919.871 201.5,919.885Z" style="fill:rgb(163,35,43);"/>
        <path d="M738.967,829.5C739.091,835.158 738.691,840.194 739.018,857.498C739.1,861.817 739,861.815 738.926,911.5C738.925,912.14 739.031,915.993 738.544,916.534C737.834,917.322 737.642,917.223 720.499,917.232C551.22,917.328 551.223,917.408 536.504,917.221C534.333,917.193 533.505,917.067 533.501,914.5C533.366,834.495 533.78,834.511 533.544,754.5C533.532,750.298 533.057,748.463 535.452,748.18C535.848,748.133 736.963,748.018 737.598,748.181C739.276,748.612 739.023,749.321 739.026,766.5C739.006,787.5 738.987,808.5 738.967,829.5Z" style="fill:rgb(164,35,42);"/>
        <path d="M516.371,660.124C492.604,667.857 491.859,666.929 483.577,668.85C479.539,669.787 464.549,671.939 455.487,672.25C443.603,672.658 443.612,672.991 424.514,672.209C419.553,672.006 419.599,671.674 414.518,671.268C413.797,671.21 413.806,671.176 405.551,670.149C404.594,670.03 390.905,667.524 389.574,667.196C378.337,664.42 362.284,660.661 340.604,649.301C329.821,643.65 327.12,642.096 314.269,632.821C311.865,631.086 306.121,626.883 296.235,617.787C292.766,614.595 282.119,603.041 279.492,599.507C277.164,596.374 277.029,596.504 274.737,593.334C272.18,589.797 268.999,584.898 268.822,584.361C268.113,582.21 269.29,582.356 278.637,575.703C281.01,574.014 294.528,565.654 308.302,556.202C313.734,552.475 319.691,549.151 328.721,542.822C331.283,541.027 331.48,541.353 361.37,521.302C362.033,520.858 362.104,521.013 369.781,515.937C370.559,515.422 374.686,512.693 379.559,509.591C380.532,508.971 380.435,508.828 391.579,501.62C398.067,497.424 399.246,496.135 401.31,496.988C403.806,498.02 426.358,510.258 447.389,520.728C447.837,520.951 471.177,533.259 473.57,534.367C477.27,536.08 507.54,552.075 516.559,556.388C517.996,557.075 525.177,561.218 535.591,566.31C542.532,569.704 568.25,583.441 576.557,587.39C577.591,587.881 577.506,587.997 589.25,593.997C594.837,596.852 594.971,597.157 595.194,597.67C595.824,599.115 593.486,601.974 590.482,606.487C590.207,606.9 586.639,611.453 579.381,619.39C568.408,631.39 551.151,642.938 549.228,644.038C532.755,653.454 526.168,656.182 516.371,660.124Z" style="fill:rgb(15,83,165);"/>
        <path d="M128.559,786.545C132.641,787.771 134.426,788.13 136.38,787.188C137.522,786.637 137.513,786.673 138.717,786.295C138.75,786.453 139.022,786.484 139.054,786.641C139.184,787.276 139.078,787.942 139.186,788.58C139.687,791.544 145.909,789.727 151.912,797.163C155.932,802.141 154.868,805.761 154.976,830.496C155.038,844.729 155.079,891.295 154.897,892.551C153.892,899.48 144.936,898.531 140.5,898.526C120.244,898.502 120.233,898.534 117.605,898.072C111.7,895.387 112.25,894.131 112.251,885.499C112.251,879.098 112.255,807.097 112.354,805.49C113.125,792.935 126.872,790.24 127.22,790.025C127.474,789.868 127.858,789.63 128.559,786.545Z" style="fill:rgb(254,252,252);"/>
        <path d="M901.497,816.854C900.292,816.885 893.037,817.073 887.56,822.56C880.284,829.851 881.844,844.275 893.387,850.71C904.138,856.703 912.882,854.693 917.553,853.811C929.263,851.598 942.14,840.635 941.398,824.505C940.766,810.76 931.567,803.372 929.534,801.464C922.843,795.186 911.066,791.269 906.465,790.709C891.262,788.859 882.123,792.193 876.447,794.361C874.97,794.925 866.31,798.233 859.43,804.423C851.801,811.287 850.226,814.207 848.108,818.316C843.187,827.863 845.607,829.415 843.387,830.249C842.722,830.499 842.714,830.421 834.501,830.436C834.001,830.437 832.222,830.656 832.295,828.494C832.297,828.443 833.504,823.121 833.684,822.554C836.012,815.233 839.065,805.604 855.702,792.751C861.194,788.508 870.08,784.656 873.513,783.541C888.28,778.749 895.271,779.187 899.504,779.251C913.565,779.467 925.386,784.783 931.763,789.117C962.761,810.191 954.213,838.96 945.693,848.669C923.609,873.835 894.401,864.514 886.277,858.83C865.583,844.352 870.832,824.726 877.479,817.48C887.227,806.855 897.451,806.806 904.523,807.256C916.883,808.041 931.468,818.285 926.598,834.532C925.558,838.004 921.35,842.71 917.519,844.537C903.248,851.344 890.521,843.048 890.324,834.51C890.239,830.796 891.539,830.411 892.466,830.269C893.575,830.099 897.834,830.678 898.425,830.851C901.215,831.671 899.81,836.079 905.459,836.819C919.972,838.722 920.925,817.59 901.497,816.854Z" style="fill:rgb(253,248,248);"/>
        <path d="M640.412,767.459C638.185,770.107 631.424,777.465 639.556,786.45C645.724,793.265 650.048,794.733 649.782,806.505C649.645,812.592 648.935,812.472 648.005,815.541C646.854,819.34 651.084,815.409 651.277,815.23C657.688,809.271 654.789,801.348 655.624,800.605C656.872,799.495 657.594,802.209 657.65,802.419C659.742,810.274 661.159,811.599 660.802,822.51C660.66,826.845 658.963,828.497 660.561,829.286C661.45,829.725 665.661,827.169 667.14,823.35C669.476,817.318 667.414,814.699 669.46,814.852C670.036,814.896 670.208,814.933 671.114,817.672C673.944,826.228 672.523,836.383 670.162,840.367C668.703,842.829 668.494,842.784 668.558,843.489C668.579,843.726 669.231,844.309 669.502,844.307C670.51,844.299 674.639,839.817 675.592,837.55C676.999,834.201 676.8,834.115 676.996,833.868C677.121,833.712 677.393,833.919 677.593,833.936C678.669,834.028 678.388,834.449 678.396,835.525C678.414,837.856 678.016,845.429 677.457,847.49C677.056,848.968 673.68,866.725 652.396,874.196C650.644,874.81 642.341,877.123 643.532,874.518C643.613,874.34 643.918,874.414 644.08,874.303C644.482,874.027 644.351,873.875 645.399,873.375C646.972,872.623 652.829,868.613 653.398,861.491C653.665,858.144 653.306,852.955 653.194,852.647C653.115,852.431 652.881,852.298 652.789,852.087C652.685,851.85 652.697,851.576 652.618,851.329C652.421,850.72 652.266,850.669 651.709,850.987C650.436,851.714 651.86,855.856 649.001,859.054C645.546,862.919 639.42,859.127 641.683,852.56C642.923,848.96 647.71,838.441 644.442,840.017C643.643,840.402 642.363,843.086 640.406,844.311C639.241,845.04 638.714,844.501 638.614,844.399C636.99,842.738 641.817,841.73 641.158,833.531C641.08,832.55 640.834,829.488 635.403,822.667C634.814,822.632 634.225,822.598 633.636,822.563C633.717,822.864 633.526,823.197 633.607,823.498C633.653,823.67 634.745,824.688 634.596,828.502C634.23,837.921 624.956,840.905 624.912,848.586C624.905,849.697 625.468,849.924 624.567,850.576C624.194,850.846 622.456,851.63 621.898,845.479C621.742,843.767 622.55,841.039 622.783,840.46C623.255,839.289 623.757,838.6 622.484,838.671C621.324,838.735 621.113,839.736 618.698,843.616C616.784,846.689 615.111,851.869 615.793,855.453C616.635,859.878 619.673,862.572 621.477,863.528C621.997,863.803 623.681,864.521 623.659,865.527C623.631,866.801 621.72,866.208 621.552,866.156C618.886,865.33 618.827,865.109 618.446,865.415C618.317,865.518 617.582,866.108 618.541,867.475C620.013,869.573 624.39,873.281 625.915,874.294C626.081,874.405 626.384,874.338 626.472,874.518C626.535,874.646 627.077,875.752 625.486,876.003C625.248,876.041 618.471,874.653 616.617,874.096C615.558,873.778 609.937,872.089 604.423,867.601C597.637,862.079 595.799,857.758 593.9,847.462C593.845,847.165 593.285,844.123 593.735,843.68C593.868,843.55 594.971,843.603 595.194,843.808C595.372,843.971 595.208,844.061 596.431,846.563C596.91,847.543 597.033,847.443 597.556,848.428C597.651,848.609 598.513,850.233 599.465,850.118C599.778,850.08 600.101,849.735 600.102,849.42C600.106,848.303 596.549,843.2 598.156,835.433C598.728,832.666 599.029,830.784 601.398,825.38C601.955,824.109 602.596,824.336 603.229,825.553C603.449,825.977 602.668,826.048 603.445,831.519C603.624,832.775 603.269,833.293 604.534,833.361C606.547,833.468 605.734,832.379 606.211,830.419C607.388,825.575 613.41,816.61 610.292,808.519C610.234,808.369 609.661,806.883 609.784,806.579C610.4,805.05 611.948,806.824 612.07,806.964C622.72,819.171 615.378,824.216 618.49,824.228C619.511,824.232 619.663,823.091 619.758,822.939C620.542,821.669 620.605,821.73 621.323,820.401C622.15,818.869 623.382,816.747 623.536,812.501C623.765,806.208 619.341,797.732 621.325,794.244C621.399,794.113 622.145,793.823 622.238,793.869C623.106,794.306 622.069,796.561 627.718,802.285C631.746,806.367 631.995,806.272 632.45,806.1C634.743,805.229 632.661,799.087 632.466,798.512C630.788,793.563 622.319,783.948 633.311,771.335C635.995,768.255 639.499,765.96 639.572,765.955C640.232,765.916 640.509,766.414 640.553,766.492C640.819,766.968 640.15,766.99 640.412,767.459Z" style="fill:rgb(253,248,248);"/>
        <path d="M380.66,801.994C382.715,801.373 398.928,795.538 415.385,806.651C420.952,811.189 424.756,815.036 427.119,822.612C428.545,827.18 428.526,837.492 423.342,844.384C422.322,845.74 416.483,853.504 406.308,857.018C396.649,860.354 387.553,858.984 384.571,858.229C370.314,854.617 365.202,846.684 363.6,844.43C362.87,843.403 358.494,837.247 358.598,829.5C358.691,822.582 361.811,817.353 362.369,816.417C369.015,805.279 379.933,802.277 380.66,801.994Z" style="fill:rgb(253,252,252);"/>
        <path d="M346.889,851.405C346.983,851.633 349.482,861.173 362.554,864.255C365.114,864.859 365.564,865.362 367.162,863.263C367.38,862.975 369.195,859.588 374.526,858.681C378.566,857.994 381.434,861.417 391.482,861.866C402.142,862.342 408.882,858.304 411.497,858.536C415.978,858.934 418.299,861.837 418.706,862.347C421.847,866.276 420.491,873.971 418.242,876.244C416.077,878.432 415.468,878.142 397.5,878.164C373.472,878.194 373.433,878.374 371.421,877.821C365.699,876.245 366.654,870.323 365.658,869.346C364.508,868.219 358.922,869.621 349.804,863.1C346.022,860.395 341.503,854.234 341.318,848.504C341.237,846.011 341.218,845.857 339.066,843.996C338.739,843.713 336.04,842.096 336.196,837.491C336.453,829.88 347.108,826.113 353.064,832.896C354.2,834.19 356.739,839.069 352.476,843.477C350.42,845.604 350.138,845.174 347.443,846.379C345.615,847.196 346.641,850.051 346.889,851.405Z" style="fill:rgb(253,247,247);"/>
        <path d="M393.5,624.979C392.665,625.009 392.686,625.06 385.497,625.05C374.576,625.034 374.381,625.063 373.877,624.28C373.585,623.826 373.588,623.789 373.576,603.5C373.572,597.201 373.061,595.689 376.501,595.69C378.74,595.691 403.681,595.699 404.491,595.724C404.716,595.73 406.409,595.781 406.69,597.471C406.939,598.973 406.763,598.98 406.719,616.498C406.702,623.031 407.354,625.001 404.488,625.053C398.978,625.153 399.001,624.981 393.5,624.979Z" style="fill:rgb(249,253,254);"/>
        <path d="M406.699,571.5C406.745,585.509 406.982,586.09 405.513,586.535C404.453,586.856 398.071,586.504 378.502,586.648C378.186,586.65 374.985,586.674 374.559,586.39C373.593,585.746 373.621,585.655 373.576,584.496C373.535,583.463 373.579,583.477 373.586,560.502C373.587,556.833 375.115,557.509 379.5,557.515C405.193,557.551 405.347,557.19 406.155,557.898C406.864,558.518 406.696,558.703 406.699,571.5Z" style="fill:rgb(249,253,253);"/>
        <path d="M417.241,607.507C417.138,597.042 416.953,596.418 418.566,595.783C418.839,595.676 418.85,595.732 424.501,595.748C448.735,595.816 449.111,595.433 449.621,596.407C450.367,597.834 450.058,597.901 450.071,599.503C450.086,601.342 450.227,618.711 450.088,622.495C449.97,625.705 448.725,625.135 445.499,625.065C432.111,624.776 419.936,625.443 418.334,624.894C416.791,624.366 417.362,623.716 417.241,607.507Z" style="fill:rgb(249,253,253);"/>
        <path d="M417.264,572.5C417.273,558.71 416.803,557.876 418.491,557.463C418.803,557.387 421.258,557.395 421.499,557.396C432.505,557.433 432.485,557.501 443.499,557.431C446.826,557.41 449.36,557.002 450.007,558.607C450.08,558.787 450.079,563.103 450.078,563.494C450.071,584.97 450.101,584.995 449.835,585.674C449.313,587.001 446.475,586.69 443.497,586.677C421.312,586.579 418.593,586.984 417.785,586.24C417.19,585.693 417.195,585.555 417.264,572.5Z" style="fill:rgb(249,254,253);"/>
        <path d="M146.493,818.864C146.937,818.988 148.98,818.428 149.117,821.499C149.133,821.869 149.051,843.43 149.043,843.474C148.726,845.226 147.776,845.347 146.498,845.375C140.254,845.51 123.5,845.441 121.5,845.433C120.908,845.431 119.811,845.553 119.107,844.86C118.191,843.96 118.662,843.733 118.516,824.5C118.491,821.184 117.972,819.248 120.448,819.006C122.975,818.759 144.409,818.855 146.493,818.864Z" style="fill:rgb(125,34,39);"/>
        <path d="M624.023,885.254C623.78,885.067 623.775,884.662 623.531,884.474C622.851,883.949 620.591,884.634 608.499,884.579C608.202,884.577 605.064,884.563 606.462,881.482C608.099,877.874 615.382,878.399 616.504,878.394C618.503,878.384 636.167,878.301 641.501,878.358C655.52,878.509 660.026,877.813 663.53,879.438C665.305,880.261 666.447,882.368 666.292,883.458C666.084,884.912 662.398,884.517 660.5,884.528C655.446,884.56 655.469,884.397 650.435,884.182C650.268,884.175 646.141,883.999 649.085,885.784C649.764,886.196 649.748,886.222 650.542,886.38C651.434,886.558 656.16,887.502 661.417,889.715C661.995,889.958 667.5,892.274 666.645,895.56C666.157,897.434 665.21,896.046 643.486,888.541C636.94,886.279 636.833,885.548 633.584,886.74C632.467,887.149 628.802,888.494 619.525,891.581C607.38,895.622 607.553,896.115 606.453,896.273C606.007,896.337 604.451,895.594 605.661,893.582C607.225,890.981 609.06,890.198 613.518,888.548C620.348,886.02 620.69,887.065 622.94,885.836C622.94,885.836 623.936,885.301 624.023,885.254Z" style="fill:rgb(253,240,240);"/>
        <path d="M833.458,849.283C834.052,849.287 835.297,849.27 841.531,849.356C842.237,849.364 845.978,849.334 846.391,849.627C847.501,850.412 846.819,850.717 846.291,854.477C845.07,863.156 842.751,876.756 842.938,877.439C843.286,878.701 844.787,878.439 844.565,881.505C844.245,885.938 843.768,886.301 841.488,886.402C840.495,886.446 833.111,886.588 832.563,886.263C832.211,886.055 831.393,885.569 830.877,881.442C830.536,878.708 833.323,879.317 832.807,876.444C832.693,875.809 832.688,875.814 831.322,868.529C831.114,867.416 831.155,867.418 829.085,854.556C829.046,854.31 829.015,854.32 828.541,851.493C828.307,850.103 828.051,849.641 829.435,849.366C829.732,849.307 833.136,849.285 833.458,849.283Z" style="fill:rgb(230,179,104);"/>
        <path d="M119.562,784.783C113.624,786.178 105.769,787.662 104.565,787.89C104.181,787.962 103.811,788.096 103.432,788.191C102.178,788.504 102.003,788.91 101.105,787.987C100.071,786.923 100.585,786.682 100.454,777.499C100.451,777.26 100.416,774.829 100.515,774.505C101.115,772.548 105.513,774.236 105.546,774.243C106.422,774.422 113.974,775.972 116.523,776.313C116.822,776.353 121.455,777.119 122.232,777.793C122.755,778.247 122.865,779.225 124.498,779.29C125.941,779.347 126.466,779.029 126.603,780.451C126.748,781.96 127.028,782.572 125.506,782.613C124.654,782.636 124.229,781.926 122.56,783.557C121.447,784.645 120.645,784.513 119.562,784.783Z" style="fill:rgb(254,243,242);"/>
        <path d="M154.643,766.922C153.67,767.314 143.448,771.425 142.88,772.706C142.823,772.833 142.332,773.943 143.592,774.301C145.877,774.951 155.36,774.777 162.719,779.217C162.947,779.355 163.189,779.47 163.42,779.604C163.56,779.685 164.934,780.482 164.352,781.405C163.002,783.548 160.219,778.13 144.496,778.41C141.317,778.467 141.076,778.984 140.187,777.975C139.751,777.481 137.21,773.673 132.5,774.506C130.938,774.783 130.227,775.09 130.269,773.497C130.324,771.394 132.252,770.668 132.529,770.563C134.774,769.717 138.158,768.955 142.499,767.498C146.362,766.201 154.845,762.965 160.582,763.095C160.806,763.1 162.952,763.148 163.131,764.238C163.244,764.93 158.175,765.897 154.643,766.922Z" style="fill:rgb(255,234,236);"/>
        <path d="M359.559,794.622C352.399,795.183 348.501,793.122 335.509,798.522C326.576,802.235 319.944,810.644 317.436,815.46C313.968,822.122 314.999,823.097 313.648,826.624C313.338,826.417 312.859,826.625 312.548,826.418C311.45,825.685 313.548,815.959 315.814,811.654C318.31,806.91 320.332,804.544 324.225,801.19C328.199,797.765 337.228,792.422 348.51,792.159C353.829,792.035 355.727,792.333 358.409,792.756C358.711,792.804 359.053,792.753 359.311,792.915C359.486,793.024 359.438,793.316 359.563,793.48C359.809,793.801 360.41,793.946 360.409,794.35C360.408,794.648 359.56,794.325 359.559,794.622Z" style="fill:rgb(255,223,223);"/>
        <path d="M825.548,847.173C824.341,846.2 824.444,846.062 824.397,844.503C824.313,841.689 823.474,839.415 828.513,839.772C835.559,840.27 835.543,840.298 842.584,840.14C842.647,840.139 849.801,839.459 850.456,839.733C850.616,839.8 851.635,840.226 851.733,841.489C851.88,843.397 851.727,845.183 851.7,845.503C851.502,847.806 848.643,847.279 848.479,847.27C846.647,847.172 840.394,846.837 825.548,847.173Z" style="fill:rgb(218,162,93);"/>
        <path d="M129.667,830.936C129.979,830.677 130.277,831.015 130.967,829.855C131.695,828.63 130.557,828.3 132.487,823.491C133.19,821.738 134.538,821.573 134.662,823.455C134.758,824.897 134.248,824.972 135.241,827.62C135.449,828.175 135.684,829.765 136.724,830.03C138.039,830.365 138.445,830.11 138.67,831.441C138.726,831.77 138.712,832.107 138.747,832.439C138.964,834.503 140.028,834.211 140.525,834.486L140.871,835.455C140.628,837.56 140.828,838.7 138.627,840.767C138.522,840.865 137.553,841.775 136.867,841.103C136.312,840.559 136.716,840.464 137.053,839.526C137.716,837.674 136.068,836.298 135.765,835.416C135.56,834.822 135.515,834.182 135.349,833.576C135.161,832.892 135.148,832.776 134.452,832.739C133.751,832.703 133.691,832.723 133.328,833.335C130.618,837.89 130.166,837.892 130.593,839.489C130.663,839.754 131.637,841.812 131.262,842.035C131.091,842.137 130.869,841.845 130.678,841.904C130.554,841.942 130.65,842.287 130.522,842.263C130.457,842.25 127.081,840.556 126.501,838.5C125.492,834.92 127.277,832.954 127.6,832.598C128.083,832.067 127.989,832.028 128.395,831.432L129.667,830.936Z" style="fill:rgb(255,223,222);"/>
        <path d="M326.762,826.456C327.44,815.756 335.494,810.534 336.164,810.041C344.144,804.176 354.017,805.679 354.417,805.781C354.586,805.823 354.708,805.993 354.879,806.021C355.032,806.046 355.191,805.87 355.334,805.928C356.723,806.492 357.133,807.323 355.704,807.764C354.894,808.013 354.881,807.885 351.58,807.94C346.694,808.023 339.627,810.549 335.4,814.387C328.322,820.814 328.91,826.939 328.364,827.403C328.145,827.589 327.725,827.296 327.506,827.482L326.762,826.456Z" style="fill:rgb(253,208,208);"/>
        <path d="M377.394,692.63L377.565,693.513C377.507,693.749 378.16,693.77 378.102,694.007C377.917,694.761 375.251,693.99 367.499,693.659C363.685,693.496 363.459,693.782 356.318,689.816C355.387,689.299 345.327,683.711 344.746,683.247C344.526,683.071 344.396,682.797 344.17,682.627C343.54,682.154 343.282,682.29 343.263,681.5C343.202,678.902 348.865,683.995 359.383,687.811C367.128,690.622 367.92,690.868 372.467,691.601C373.854,691.825 373.85,691.778 377.394,692.63Z" style="fill:rgb(78,118,138);"/>
        <path d="M399.104,829.508C399.066,829.678 399.268,832.923 395.425,834.254C389.894,836.169 385.039,830.006 389.767,825.829C392.184,823.694 397.777,824.413 398.894,828.383C398.997,828.75 399.001,829.141 399.104,829.508Z" style="fill:rgb(106,27,33);"/>
        <path d="M129.953,784.216C129.672,783.83 129.232,783.579 128.951,783.192C128.587,782.692 128.6,779.825 129.01,779.174C130.113,777.425 130.458,777.77 131.399,777.31C135.191,775.453 139.854,778.853 138.524,782.51C138.324,783.059 138.173,783.247 138.129,783.302C137.696,783.841 137.576,783.69 137.136,784.238C133.564,785.756 133.366,785.673 129.953,784.216Z" style="fill:rgb(254,235,238);"/>
        <path d="M837.49,833.031C842.33,833.062 844.135,833.031 844.671,833.285C845.435,833.647 845.446,836.774 844.5,837.5C844.01,837.875 832.372,837.829 831.431,837.598C829.782,837.193 830.282,833.516 831.537,832.981C831.614,832.949 831.619,832.964 837.49,833.031Z" style="fill:rgb(229,169,113);"/>
        <path d="M861.386,912.646C861.733,912.523 861.73,911.734 863.5,911.894C865.097,912.039 865.314,912.272 865.579,912.308C865.909,912.352 866.246,912.239 866.577,912.279C868.16,912.473 868,912.964 868.123,912.911C868.694,912.666 868.962,911.955 869.514,911.669C869.817,911.512 870.199,911.684 870.54,911.659C871.022,911.625 876.493,911.237 876.57,911.305C876.91,911.605 876.862,912.164 876.967,912.605C877.288,913.951 875.132,912.831 874.311,914.5C874.156,914.815 874.274,915.313 873.976,915.5C873.558,915.763 872.954,915.445 872.5,915.641C872.134,915.8 872.066,916.489 871.667,916.5C871.195,916.513 870.957,915.817 870.5,915.696C869.923,915.544 867.573,917.238 867.5,917.244C866.691,917.306 863.145,913.913 861.386,912.646Z" style="fill:rgb(138,30,35);"/>
        <path d="M129.953,784.216C133.366,785.673 133.564,785.756 137.136,784.238C137.663,784.924 138.19,785.61 138.717,786.295C137.513,786.673 137.522,786.637 136.38,787.188C134.426,788.13 132.641,787.771 128.559,786.545C129.024,785.768 129.488,784.992 129.953,784.216Z" style="fill:rgb(92,56,58);"/>
        <path d="M407.32,914.705C407.817,914.529 408.003,913.826 408.5,913.65C408.827,913.535 409.154,913.955 409.5,913.935C409.857,913.915 410.148,913.623 410.495,913.538C413.496,912.807 411.189,916.299 411.056,916.5C410.031,918.052 409.619,917.048 408.3,915.742C407.786,915.233 407.816,915.229 407.32,914.705Z" style="fill:rgb(148,31,37);"/>
        <path d="M137.249,915.769C137.739,915.319 138.01,914.665 138.5,914.215C139.402,913.385 139.719,913.52 140.355,914.569C140.416,914.67 140.542,916.178 140.5,916.235C140.373,916.407 139.517,917.571 137.824,916.259C137.625,916.105 137.448,915.924 137.249,915.769Z" style="fill:rgb(145,26,37);"/>
    </g>
</svg>
