<?xml version="1.0" encoding="UTF-8" standalone="no"?>
<!DOCTYPE svg PUBLIC "-//W3C//DTD SVG 1.1//EN" "http://www.w3.org/Graphics/SVG/1.1/DTD/svg11.dtd">
<svg width="100%" height="100%" viewBox="0 0 3452 1843" version="1.1" xmlns="http://www.w3.org/2000/svg" xmlns:xlink="http://www.w3.org/1999/xlink" xml:space="preserve" xmlns:serif="http://www.serif.com/" style="fill-rule:evenodd;clip-rule:evenodd;stroke-linejoin:round;stroke-miterlimit:2;">
    <g transform="matrix(1,0,0,1,-319.084361,-543.652697)">
        <g id="IMG_2910.JPG" transform="matrix(7.207207,0,0,7.207207,0,490.990991)">
            <path d="M281.274,67.455C281.174,67.198 281.368,66.884 281.268,66.627C281.123,66.253 280.572,66.68 278.248,62.631C276.682,59.904 275.952,55.18 275.695,54.439C275.589,54.133 273.7,51.937 276.569,50.643C284.244,47.182 285.193,50.667 290.727,55.214C297.272,60.591 299.877,62.971 304.706,64.068C309.314,65.114 303.688,66.863 301.639,67.81C296.817,70.039 295.484,70.149 290.496,70.065C287.945,70.021 287.545,69.408 286.986,70.592C286.648,71.307 287.348,71.48 288.793,73.295C289.003,73.559 291.369,76.912 292.352,79.558C295.394,87.746 296.028,87.465 299.128,95.641C300.088,98.175 301.924,102.088 302.184,102.641C304.283,107.116 305.912,111.602 307.826,115.342C309.553,118.717 309.947,120.996 310.626,121.197C311.826,121.553 311.81,119.743 311.809,119.583C311.794,117.915 311.599,117.93 311.731,114.514C312.433,96.357 312.845,92.441 320.673,87.809C328.738,83.037 343.653,80.564 353.567,88.414C356.091,90.412 357.726,90.772 363.763,99.328C364.095,99.799 364.297,100.084 367.268,105.622C373.925,118.027 368.932,124.56 367.949,125.846C367.571,126.34 365.916,129.896 357.331,133.047C356.941,133.19 352.115,134.014 354.01,135.769C356.638,138.204 356.847,137.923 360.34,140.714C365.435,144.785 377.789,152.23 379.508,152.229C383.066,152.226 384.94,142.217 388.561,139.586C391.54,137.421 405.623,133.506 403.395,139.457C403.324,139.647 401.074,144.703 400.085,146.232C398.731,148.325 392.482,159.304 375.518,160.726C365.839,161.536 358.2,155.96 351.285,151.885C350.481,151.411 348.474,150.228 341.748,145.161C340.327,144.09 330.593,135.705 330.305,134.569C329.861,132.82 331.585,131.872 333.672,130.865C345.617,125.102 350.475,132.351 352.725,125.582C354.99,118.765 349.3,109.257 346.589,104.445C346.184,103.727 342.926,99.078 340.285,96.753C337.168,94.01 333.399,91.826 332.461,91.75C330.148,91.562 329.962,95.062 329.393,102.493C328.601,112.851 329.828,124.785 324.254,139.403C322.876,143.017 324.241,143.063 329.155,148.788C331.343,151.338 337.286,156.47 339.706,158.194C340.289,158.609 344.837,160.793 339.522,163.539C339.209,163.701 335.276,166.261 328.504,166.165C325.498,166.123 324.669,165.62 318.143,159.905C314.031,156.304 313.992,156.282 313.521,156.253C312.1,156.167 310.839,158.655 307.548,160.575C307.425,160.647 301.869,164.361 298.454,162.564C296.616,161.597 299.073,157.678 300.192,155.35C304.433,146.526 305.336,146.2 303.633,143.412C301.025,139.141 300.549,139.442 298.161,134.681C297.262,132.887 295.275,130.466 291.631,122.436C289.276,117.245 289.045,117.37 285.329,108.577C282.54,101.975 282.358,102.069 279.744,95.396C279.452,94.65 273.191,80.767 273.147,80.688C271.851,78.365 271.322,76.533 269.904,78.772C269.427,79.524 269.649,79.642 264.667,88.595C262.822,91.91 262.883,91.926 261.118,95.291C260.495,96.478 259.438,98.129 259.283,98.37C255.599,104.121 256.344,107.043 249.59,109.716C248.908,109.986 245.443,111.356 240.524,111.121C237.538,110.978 237.715,109.581 235.603,102.469C232.835,93.15 228.615,76.382 228.184,75.686C228.106,75.561 227.394,74.411 226.388,75.265C224.911,76.519 224.01,76.854 217.24,84.269C213.999,87.818 208.696,96.865 208.418,97.455C201.528,112.095 201.195,118.474 200.443,124.494C199.489,132.121 200.954,140.705 200.746,141.561C199.845,145.279 185.037,149.182 183.522,145.49C182.845,143.842 182.619,134.691 182.919,130.531C183.162,127.171 181.707,126.745 177.616,122.393C172.381,116.824 168.159,115.221 167.969,115.01C167.878,114.91 167.082,113.091 169.565,112.777C172.968,112.346 175.993,115.223 179.638,118.326C182.713,120.944 182.837,122.045 183.852,120.938C184.868,119.83 183.681,117.728 189.782,103.62C192.166,98.106 192.653,98.378 195.864,92.703C196.305,91.924 201.632,84.929 203.818,82.835C207.653,79.159 207.427,78.918 211.666,75.738C212.998,74.738 222.09,66.738 233.554,64.863C242.341,63.425 244.199,67.613 244.576,68.461C245.979,71.624 246.229,73.494 248.585,81.474C249.603,84.923 249.112,85.747 250.524,85.581C251.305,85.49 251.173,84.36 253.248,81.339C256.327,76.857 257.185,75.008 263.335,71.203C265.586,69.81 271.285,68.358 272.441,68.175C277.715,67.343 278.766,67.821 280.484,68.202C280.747,67.953 281.011,67.704 281.274,67.455Z" style="fill:rgb(99,101,61);"/>
            <path d="M434.475,35.06C452.434,34.02 461.072,37.396 472.591,42.34C472.702,42.388 473.562,42.757 473.586,43.491C473.624,44.625 469.607,48.759 468.532,50.521C466.449,53.937 464.123,56.328 462.357,59.421C460.459,62.744 459.427,63.883 458.922,64.751C452.864,75.18 449.909,82.775 449.273,84.407C442.699,101.302 440.298,103.297 438.141,106.249C434.725,110.923 427.449,116.169 423.601,117.756C413.775,121.808 407.232,123.656 393.539,122.142C390.105,121.762 388.214,121.099 387.436,121.292C385.54,121.764 384.73,129.465 383.954,132.613C383.857,133.005 382.95,136.686 379.362,134.693C378.115,134.001 377.191,132.339 380.589,120.527C381.868,116.08 384.075,108.695 384.54,107.516C390.705,91.868 396.088,84.197 398.609,80.576C408.839,65.882 419.554,59.646 420.238,59.155C421.903,57.962 421.825,57.867 421.972,57.767C422.563,57.365 422.7,57.661 423.244,57.195C424.483,56.132 424.126,55.175 422.494,55.364C421.435,55.487 410.558,63.181 409.3,64.223C401.985,70.287 399.131,73.461 398.333,74.349C390.783,82.748 389.365,86.542 388.218,88.33C384.447,94.208 382.136,100.492 381.205,102.369C378.468,107.883 377.993,110.362 377.776,110.717C376.558,112.707 375.726,110.556 375.665,110.397C374.291,106.846 374.146,106.929 372.815,103.382C369.645,94.929 369.386,80.76 374.159,71.345C379.443,60.923 380.788,60.963 383.047,58.117C384.607,56.15 384.725,56.284 386.576,54.584C387.112,54.092 387.098,54.109 387.615,53.626C392.177,49.359 392.552,49.86 395.58,47.612C401.626,43.125 412.781,39.008 417.567,37.74C425.199,35.717 427.402,35.284 434.475,35.06Z" style="fill:rgb(194,209,18);"/>
            <path d="M149.501,90.072C140.643,90.096 140.65,90.087 139.503,90.109C136.784,90.163 134.896,90.773 134.864,89.508C134.834,88.317 135.754,88.629 138.771,86.975C154.292,78.467 154.086,78.121 155.462,77.434C162.667,73.84 162.376,73.335 168.335,70.169C176.515,65.821 176.254,65.393 180.395,63.294C185.968,60.469 188.443,58.397 193.634,55.785C196.72,54.233 203.692,49.954 203.731,49.934C207.716,47.874 207.606,47.703 211.551,45.589C213.757,44.406 237.778,30.471 242.326,28.16C243.571,27.527 243.435,27.338 257.46,19.435C263.936,15.785 263.829,15.61 264.407,15.32C268.598,13.218 268.787,13.227 269.53,13.342C271.225,13.605 280.408,19.233 281.325,19.795C284.778,21.912 284.973,21.537 288.363,23.754C292.154,26.233 291.209,22.722 291.168,21.504C290.95,15.146 292.114,14.616 289.691,12.295C287.296,10.001 290.196,7.873 291.511,7.543C293.033,7.159 311.868,7.334 312.508,7.438C315.307,7.893 316.527,10.739 315.081,12.086C314.729,12.414 314.281,12.625 313.927,12.951C312.903,13.894 313.122,17.125 313.129,18.503C313.217,36.179 313.402,36.245 312.809,37.659C312.633,38.078 312.335,38.79 308.225,41.026C302.244,44.281 302.099,44.265 301.509,44.2C301.061,44.151 297.543,42.727 293.187,39.991C288.544,37.075 282.694,34.007 282.332,33.789C279.497,32.086 279.505,32.079 279.256,31.935C271.431,27.411 271.347,27.568 270.671,27.168C268.399,25.823 267.378,27.496 266.251,28.027C265.603,28.333 261.67,30.188 258.381,32.3C257.916,32.599 241.79,41.784 241.669,41.846C235.402,45.033 232.884,47.107 229.62,48.734C227.012,50.033 227.106,50.176 224.546,51.576C220.978,53.528 218.869,55.025 217.561,55.629C214.59,57.003 214.705,57.161 213.214,58.034C206.357,62.048 205.382,62.534 204.679,62.884C204.21,63.117 196.586,67.479 195.37,68.283C193.139,69.758 192.929,69.339 190.655,70.751C182.235,75.982 182.011,75.564 172.39,81.316C167.905,83.997 165.562,84.916 160.318,88.185C156.709,90.435 156.491,90.047 149.501,90.072Z" style="fill:rgb(193,209,18);"/>
            <path d="M205.952,210.511C205.895,211.979 205.502,222.019 197.793,226.969C189.847,232.072 178.485,229.556 173.964,223.137C171.89,220.192 171.422,218.747 170.519,214.496C169.537,209.874 170.268,202.72 172.639,198.578C180.132,185.492 197.397,188.866 202.186,196.699C205.622,202.32 205.902,205.278 205.952,210.511ZM174.958,206.566C174.732,209.788 174.259,213.713 176.989,219.254C179.922,225.209 191.829,229.567 198.776,219.676C202.81,213.932 203.68,195.186 188.481,193.908C184.759,193.595 179.488,195.89 177.495,199.497C175.67,202.803 175.607,203.32 174.958,206.566Z" style="fill:rgb(99,102,61);"/>
            <path d="M293.099,200.539C293.105,201.094 294.187,207.656 287.306,211.109C285.252,212.14 282.176,212.015 284.404,214.567C284.93,215.169 284.78,215.267 290.158,222.739C290.43,223.117 293.438,227.296 293.49,227.503C294.011,229.557 290.2,229.203 288.921,228.047C288.203,227.399 288.424,227.225 281.643,218.395C278.703,214.568 279.3,212.937 274.48,213.133C271.605,213.249 272.168,214.722 272.171,220.5C272.175,226.047 272.314,227.807 271.531,228.54C271.149,228.897 267.961,229.513 267.566,227.486C267.475,227.018 267.522,227.011 267.525,194.5C267.525,194.265 267.525,191.961 267.679,191.572C268.166,190.342 269.371,190.485 277.5,190.512C284.559,190.536 286.722,191.766 289.518,193.474C292.947,195.569 293.093,200.504 293.099,200.539ZM282.588,195.107C281.083,194.899 281.11,194.788 277.496,194.705C276.428,194.681 273.46,194.58 272.829,194.974C271.918,195.543 272.174,198.942 272.173,200.499C272.168,207.267 271.604,208.629 274.482,208.782C278.891,209.015 281.799,208.331 282.419,208.185C290.554,206.272 287.703,199.03 287.461,198.521C286.103,195.678 282.594,195.109 282.588,195.107Z" style="fill:rgb(99,102,61);"/>
            <path d="M77.82,196.807C76.013,201.641 76.29,202.426 72.753,210.609C70.429,215.985 70.3,215.912 68.209,221.388C65.598,228.225 65.159,228.384 64.55,228.605C62.466,229.361 62.137,227.49 59.556,221.473C58.877,219.889 52.17,204.248 51.337,201.56C50.467,198.755 50.438,196.677 49.481,196.562C47.214,196.291 49.272,197.968 49.23,210.5C49.179,225.917 49.585,227.667 48.548,228.57C48.249,228.831 44.846,229.534 44.349,227.538C44.228,227.05 44.305,227.052 44.301,199.5C44.3,192.435 43.979,191.012 45.536,190.617C46.22,190.443 49.82,190.449 50.414,190.733C51.882,191.434 52.384,193.184 54.293,197.589C56.438,202.54 56.26,202.588 58.374,207.558C61.656,215.27 61.691,215.259 62.299,217.566C62.636,218.845 62.362,218.968 63.233,219.987C64.621,221.608 64.399,219.579 65.916,215.66C67.085,212.641 67.266,212.737 68.772,208.596C69.497,206.604 71.983,201.05 72.274,200.399C75.663,192.829 75.133,190.66 78.501,190.52C79.996,190.458 83.071,189.947 83.167,192.521C83.174,192.698 83.167,192.697 83.166,224.501C83.166,224.735 83.166,227.318 83.129,227.435C82.602,229.126 82.237,229.061 80.457,228.898C78.024,228.676 78.516,227.311 78.508,219.5C78.492,203.274 78.647,203.286 79.184,199.494C79.206,199.34 79.193,199.351 79.297,197.557C79.144,197.324 79.285,196.971 79.132,196.739C78.86,196.324 78.56,196.34 78.5,196.343C78.047,196.367 78.263,196.784 77.82,196.807Z" style="fill:rgb(99,101,61);"/>
            <path d="M437.833,215.618C435.281,222.048 432.571,227.887 432.233,228.227C430.601,229.868 429.495,227.781 429.386,227.574C429.323,227.456 420.58,207.348 419.338,203.563C418.627,201.393 418.682,201.393 417.91,199.255C417.807,198.971 417.748,198.673 417.652,198.388C417.261,197.229 417.697,196.695 416.481,196.595C414.489,196.433 416.346,197.862 416.356,209.499C416.37,227.024 416.651,228.17 415.589,228.649C414.647,229.074 412.766,228.837 412.457,228.562C411.651,227.845 411.775,227.648 411.775,212.5C411.775,191.898 411.684,191.79 412.161,191.239C413.157,190.089 417.629,190.155 418.723,191.298C419.345,191.949 418.967,192.151 423.219,201.622C424.852,205.259 425.728,207.816 425.916,208.365C426.369,209.685 429.637,216.992 430,218.782C430.05,219.029 429.834,219.081 430.245,219.728C430.832,220.65 431.195,220.788 431.843,219.886C432.38,219.14 432.239,217.755 432.996,215.699C433.707,213.769 436.777,207.079 437.119,206.335C437.583,205.323 437.3,205.212 442.414,193.461C443.734,190.428 444.204,190.444 447.5,190.478C450.501,190.509 450.297,191.508 450.288,194.499C450.194,227.512 450.356,227.576 450.001,228.168C449.771,228.551 445.696,230.524 445.612,226.497C445.234,208.359 445.919,202.554 446.164,200.487C446.199,200.189 446.563,197.105 446.217,196.739C446.051,196.562 445.125,196.591 444.906,196.844C444.386,197.444 443.988,201.4 441.68,206.583C440.825,208.501 439.603,211.114 437.833,215.618Z" style="fill:rgb(99,102,61);"/>
            <path d="M218.722,198.579C218.999,202.564 219.25,202.526 219.336,206.504C219.408,209.902 219.39,227.315 219.361,227.472C218.988,229.48 214.912,229.424 214.462,227.509C214.434,227.393 214.255,192.428 214.563,191.527C215.024,190.182 218.83,189.905 220.132,191.762C233.16,210.34 235.419,213.445 236.776,215.311C238.906,218.239 239.92,222.476 241.427,221.396C242.537,220.6 241.213,220.25 241.141,213.504C241.123,211.82 240.946,195.233 241.085,192.462C241.161,190.934 241.799,190.501 243.5,190.505C246.347,190.512 245.852,191.657 245.845,194.502C245.76,227.411 246.12,227.612 245.381,228.387C245.243,228.533 241.746,230.498 238.978,226.173C237.021,223.117 237.035,223.121 234.87,220.215C234.245,219.376 231.064,214.592 228.215,210.699C223.42,204.147 221.257,200.216 220.729,199.258C220.449,198.749 220.488,198.458 219.489,198.451C219.23,198.449 218.982,198.581 218.722,198.579Z" style="fill:rgb(99,102,61);"/>
            <path d="M96.92,209.663C98.807,205.523 98.877,204.481 100.218,201.378C104.032,192.547 104.298,191.181 105.587,190.727C109.513,189.344 110.022,193.633 112.121,198.661C112.384,199.291 112.384,199.282 115.43,206.531C116.912,210.058 116.678,210.134 118.224,213.623C119.793,217.16 123.753,226.733 123.859,227.474C124.155,229.554 120.709,228.881 120.419,228.824C118.183,228.388 117.632,223.858 115.634,219.436C114.587,217.119 113.476,217.44 108.5,217.439C100.156,217.436 99.147,217.006 97.93,219.679C94.351,227.537 95.025,228.532 92.543,228.884C92.284,228.921 89.216,229.356 89.585,227.514C89.724,226.819 90.189,227.028 93.004,219.341C94.806,214.423 95.007,214.526 96.92,209.663ZM109.114,202.639C108.055,199.518 108.009,199.538 107.932,199.263C107.574,197.982 107.834,197.38 106.514,197.539C105.762,197.63 105.935,197.888 105.741,198.616C102.742,209.869 100.008,211.292 101.268,212.675C101.763,213.219 101.796,213.213 102.524,213.228C103.238,213.243 109.442,213.37 111.452,213.243C112.382,213.185 112.477,212.599 112.494,212.498C112.627,211.675 112.417,211.684 109.114,202.639Z" style="fill:rgb(99,102,61);"/>
            <path d="M376.708,213.589C377.077,212.505 378.212,209.16 382.095,200.324C384.551,194.734 384.839,190.903 387.504,190.537C390.33,190.149 391.097,192.939 391.359,193.564C394.862,201.9 394.936,201.863 395.193,202.606C398.276,211.519 399.855,213.482 401.256,217.583C402.493,221.203 402.62,221.133 404.095,224.659C405.022,226.878 406.75,229.519 402.468,228.898C400.529,228.617 400.425,228.291 397.975,222.309C396.458,218.605 396.746,217.425 392.501,217.428C382.374,217.435 382.37,217.369 381.499,217.494C378.502,217.923 377.498,224.766 376.176,227.335C374.891,229.833 371.465,228.692 371.394,228.627C370.301,227.642 371.137,227.351 376.708,213.589ZM392.889,209.346C390.765,204.453 390.04,202.04 389.844,201.387C389.592,200.55 389.103,196.753 387.606,197.651C387.428,197.757 387.479,197.8 387.011,199.212C386.433,200.956 384.803,204.915 383.249,209.415C383.147,209.712 381.794,212.495 382.755,213.077C383.031,213.245 385.28,213.2 385.5,213.195C391.93,213.066 391.91,213.244 392.467,213.225C392.644,213.219 394.201,213.164 393.789,211.447C393.612,210.706 393.066,210.087 392.889,209.346Z" style="fill:rgb(99,102,62);"/>
            <path d="M135.078,221.5C135.079,222.833 135.079,224.166 135.08,225.499C135.086,228.167 135.13,229.039 132.477,228.913C129.632,228.779 130.3,226.148 130.306,224.499C130.421,191.875 130.014,191.608 130.855,190.906C131.55,190.325 133.895,190.506 134.417,190.732C136.75,191.745 141.003,199.151 145.642,205.4C146.185,206.132 146.036,206.229 152.221,214.701C153.474,216.418 155.292,219.997 155.533,220.471C156.318,222.016 157.461,222.257 157.616,220.53C157.703,219.57 157.015,219.607 156.983,208.5C156.979,207.221 156.938,192.789 156.965,192.517C157.268,189.451 161.177,190.383 161.575,191.466C161.912,192.379 161.667,214.082 161.753,225.498C161.775,228.467 161.432,229.2 158.469,228.885C155.505,228.569 155.665,226.515 150.342,219.616C149.571,218.617 139.24,203.747 138.907,203.226C137.028,200.287 136.759,199.711 136.608,199.387C136.26,198.642 136.338,198.454 135.506,198.394C134.587,198.328 134.559,198.604 134.604,199.516C134.702,201.489 134.959,201.458 134.992,205.493C135.057,213.504 135.077,213.482 135.078,221.5Z" style="fill:rgb(99,102,62);"/>
            <path d="M359.945,216.499C359.882,215.97 360.005,215.983 359.941,215.444C359.93,215.357 359.856,214.736 359.692,214.38C359.208,213.326 358.831,213.821 353.493,213.63C350.009,213.506 351.057,209.684 352.412,209.256C353.103,209.038 363.142,209.101 363.582,209.22C365.226,209.665 364.857,210.368 364.878,223.499C364.883,226.683 365.566,227.601 362.506,228.519C353.038,231.358 344.835,228.298 343.402,227.763C342.859,227.56 340.268,226.594 337.581,223.432C331.473,216.246 332.76,203.329 337.379,197.408C346.009,186.345 361.222,190.39 362.197,190.979C362.979,191.451 364.503,195.599 360.475,194.618C359.696,194.428 355.113,193.311 350.457,194.305C336.314,197.321 335.69,214.808 341.817,221.182C347.37,226.959 358.305,225.848 359.54,224.532C359.981,224.063 360.149,223.884 359.945,216.499Z" style="fill:rgb(99,102,61);"/>
            <path d="M467.5,228.922C461.937,228.907 460.233,229.475 460.167,226.509C460.137,225.167 460.167,197.06 460.169,194.499C460.17,194.253 460.172,191.88 460.352,191.427C460.836,190.207 461.319,190.552 479.5,190.51C479.791,190.51 482.587,190.503 483.111,190.942C483.548,191.308 484.818,194.424 481.514,194.681C479.804,194.814 466.673,194.433 465.726,194.91C464.709,195.422 464.889,197.18 464.877,204.501C464.872,207.242 465.755,207.111 468.505,207.133C478.494,207.212 480.951,206.619 481.381,208.53C481.441,208.798 481.993,211.255 479.492,211.401C477.088,211.541 466.592,211.083 465.63,211.7C464.901,212.167 464.628,212.342 464.878,222.489C464.929,224.559 465.848,224.806 467.496,224.818C468.275,224.824 480.379,224.813 481.5,224.812C481.72,224.811 484.527,224.435 484.789,226.464C485.093,228.826 482.796,228.908 482.529,228.917C482.359,228.923 468.702,228.922 467.5,228.922Z" style="fill:rgb(99,102,61);"/>
            <path d="M307.062,201.499C307.082,205.519 307.08,205.519 307.086,205.575C307.341,207.715 310.196,207.061 320.504,207.134C320.717,207.136 323.85,206.691 323.658,209.51C323.519,211.54 321.704,211.404 321.495,211.411C318.24,211.524 308.668,211.074 307.703,211.765C306.548,212.592 307.233,217.774 307.072,221.498C306.964,224.018 306.963,224.755 309.494,224.805C311.529,224.845 325.156,224.763 325.432,224.855C327.517,225.552 327.113,228.369 325.601,228.802C325.098,228.946 304.302,229.072 303.394,228.74C302.039,228.245 302.353,227.725 302.329,213.5C302.327,211.819 302.295,192.809 302.322,192.486C302.444,191.045 303.03,190.563 304.501,190.511C305.86,190.463 305.847,190.541 321.5,190.502C321.796,190.502 324.66,190.494 325.18,190.888C325.584,191.194 327.109,194.465 323.512,194.691C321.413,194.823 308.683,194.416 307.765,194.924C306.853,195.429 307.078,197.937 307.062,201.499Z" style="fill:rgb(99,102,61);"/>
            <path d="M502.953,221.5C503.097,214.653 502.9,214.041 502.701,213.426C502.503,212.812 500.556,209.565 499.745,208.346C499.414,207.85 490.993,193.709 490.153,192.67C487.816,189.779 492.664,190.36 493.416,190.721C493.769,190.89 494.79,191.381 496.567,194.457C500.398,201.088 500.477,201.019 504.387,207.616C504.76,208.245 504.902,208.049 505.619,207.998C506.44,207.939 506.24,207.627 506.797,206.723C507.391,205.757 507.368,205.758 507.968,204.783C513.853,195.22 513.694,195.145 514.24,194.338C516.242,191.379 515.932,190.387 519.51,190.413C519.67,190.414 521.136,190.425 521.213,191.479C521.237,191.818 518.594,195.232 517.442,197.467C515.94,200.379 512.013,206.323 511.37,207.42C508.193,212.841 508.11,213.095 507.935,213.635C507.607,214.642 507.834,224.488 507.789,226.509C507.701,230.429 503.532,228.483 503.523,228.474C502.624,227.573 503.08,227.38 502.953,221.5Z" style="fill:rgb(99,102,62);"/>
            <path d="M341.133,250.465C340.625,251.758 340.749,251.817 339.862,252.907C338.814,254.196 338.197,254.419 339.313,255.646C340.582,257.042 341.167,257.898 342.024,256.232C342.163,255.96 342.149,255.631 342.264,255.348C342.887,253.813 345.123,253.793 344.39,256.47C344.309,256.765 344.205,257.053 344.084,257.334C343.415,258.883 342.861,258.991 343.791,260.385C344.917,262.073 344.31,263.361 342.554,262.377C342.158,262.155 341.922,261.675 341.496,261.52C340.687,261.226 338.549,263.542 335.426,262.862C332.163,262.151 330.478,258.166 332.563,255.558C332.725,255.356 332.992,255.259 333.167,255.067C334.399,253.709 333.487,253.513 332.791,251.404C331.407,247.204 337.383,244.853 340.228,247.791C341.023,248.612 340.753,248.748 341.133,250.465ZM336.488,252.601C337.756,251.857 337.845,251.977 338.261,251.364C338.839,250.511 338.873,250.448 338.488,249.506C338.465,249.451 338.282,248.695 336.545,248.807C336.366,248.819 335.068,248.903 335.102,250.514C335.13,251.852 335.549,251.67 336.488,252.601ZM335.518,255.933C335.285,256.208 334.945,256.377 334.712,256.652C332.843,258.855 336.011,261.807 338.917,259.809C339.767,259.224 339.294,258.9 337.242,256.795C336.356,255.887 335.654,256.001 335.518,255.933Z" style="fill:rgb(108,112,74);"/>
            <path d="M130.822,247.764C131.214,247.549 130.997,246.91 133.499,246.745C141.841,246.195 141.851,251.809 140.016,254.091C139.185,255.126 138.857,254.738 137.961,255.733C137.463,256.284 139.157,258.429 139.315,258.629C139.469,258.824 140.086,259.661 140.152,259.751C140.285,259.932 141.667,261.806 140.521,262.538C139.463,263.213 137.64,260.275 137.225,259.715C135.292,257.11 135.432,257.016 135.236,256.815C134.426,255.981 133.534,256.246 133.387,256.29C132.214,256.639 133.799,262.538 131.507,262.422C130.633,262.377 130.102,261.252 130.394,256.504C130.665,252.114 129.861,252.06 130.822,247.764ZM135.534,253.875C135.858,253.754 136.214,253.733 136.538,253.612C139.459,252.52 138.961,249.28 135.446,248.988C132.739,248.764 132.761,249.72 132.882,252.43C132.961,254.224 133.742,253.659 135.534,253.875Z" style="fill:rgb(104,109,71);"/>
            <path d="M285.195,262.113C284.986,262.137 284.427,263.408 282.73,261.316C282.322,260.814 280.103,257.499 279.879,257.164C279.378,256.416 279.424,256.251 278.51,256.205C276.854,256.121 277.168,256.835 277.158,258.492C277.157,258.756 277.141,261.345 276.844,261.785C276.054,262.955 274.922,262.487 274.839,260.475C274.826,260.18 274.825,249.546 274.827,249.504C274.921,247.67 275.222,246.578 279.496,246.711C285.403,246.896 287.432,251.737 283.204,255.164C281.634,256.436 282.533,256.872 284.847,260.329C285.369,261.109 285.167,261.169 285.195,262.113ZM277.166,251.501C277.231,251.852 277.144,252.22 277.209,252.57C277.49,254.1 277.946,253.876 279.506,253.867C283.244,253.846 284.127,249.811 280.573,249.14C277.905,248.636 277.573,249.248 277.454,249.469C277.277,249.793 277.196,250.366 277.185,250.446C277.11,250.974 277.242,250.963 277.166,251.501Z" style="fill:rgb(105,110,71);"/>
            <path d="M169.924,255.508C169.802,250.762 169.738,248.176 170.466,247.466C172.015,245.955 180.779,246.248 180.24,251.486C179.885,254.939 177.241,255.059 177.388,256.51C177.438,256.997 180.056,260.702 180.06,260.71C180.573,261.747 179.842,262.596 179.536,262.63C178.846,262.708 178.592,262.736 175.266,257.699C175.131,257.495 173.726,255.368 172.466,256.464C172.004,256.866 172.236,256.984 172.15,260.477C172.104,262.381 170.953,262.944 170.148,261.813C169.573,261.005 169.807,257.586 169.924,255.508ZM174.507,253.88C175.028,253.716 175.043,253.95 175.565,253.786C175.688,253.747 176.409,253.52 177.022,253.089C177.438,252.796 179.33,249.32 174.469,248.97C172.317,248.815 172.116,249.356 172.153,251.505C172.201,254.316 173.384,253.632 174.507,253.88Z" style="fill:rgb(105,110,71);"/>
            <path d="M354.521,246.807C355.451,246.76 359.424,246.158 361.635,248.351C364.137,250.832 362.201,253.464 361.942,253.817C359.496,257.144 355.525,255.525 354.84,256.819C354.519,257.427 355.393,262.434 353.502,262.429C353.02,262.427 351.87,262.424 352.375,256.504C352.631,253.502 352.276,253.519 352.312,250.499C352.353,246.964 353.215,247.208 354.521,246.807ZM357.528,253.743C357.846,253.64 358.184,253.607 358.501,253.504C361.433,252.555 360.64,248.584 356.434,249.034C355.106,249.176 354.831,249.196 354.743,250.531C354.551,253.416 355.132,253.631 355.376,253.721L357.528,253.743Z" style="fill:rgb(105,109,72);"/>
            <path d="M156.857,254.501C156.771,251.98 156.655,252.003 156.785,249.505C156.888,247.515 157.547,246.928 159.496,246.772C160.215,246.715 167.63,246.122 167.166,251.491C166.736,256.469 161.172,256.092 160.418,256.236C158.925,256.523 159.193,256.988 159.174,258.493C159.166,259.153 159.189,259.814 159.168,260.474C159.162,260.672 159.089,262.934 157.563,262.355C156.661,262.013 156.724,259.714 156.857,254.501ZM159.156,251.502C159.302,252.419 158.613,254.06 161.516,253.796C165.325,253.449 166.568,249.486 161.511,249.05C160.812,248.989 159.982,248.963 159.977,248.965C158.954,249.386 159.408,249.737 159.156,251.502Z" style="fill:rgb(104,108,70);"/>
            <path d="M256.516,257.529C256.536,257.239 256.781,256.929 256.652,255.508C256.596,254.881 256.021,248.547 256.685,247.637C256.821,247.449 258.866,245.196 258.908,249.498C258.928,251.584 258.91,259.017 258.743,260.536C258.474,262.994 256.878,262.319 256.376,261.629C255.297,260.145 255.33,260.14 254.177,258.711C250.207,253.791 248.77,249.617 248.38,251.366C248.008,253.033 249.712,262.285 247.489,262.42C245.808,262.521 246.113,259.442 246.107,253.5C246.107,252.733 245.809,247.321 247.443,247.177C249.042,247.035 250.751,250.116 253.758,254.303C254.718,255.64 255.296,256.916 255.645,257.153C255.906,257.33 256.255,257.351 256.516,257.529Z" style="fill:rgb(99,103,64);"/>
            <path d="M114.068,247.815C114.414,250.314 114.328,250.307 114.394,256.499C114.451,261.885 113.837,262.102 113.396,262.257C112.163,262.691 111.327,260.83 107.842,256.234C107.263,255.47 106.294,253.935 106.165,253.731C106.047,253.544 105.879,253.389 105.773,253.195C105.539,252.769 105.553,252.148 105.149,251.879C104.9,251.714 104.198,252.061 104.123,252.098C103.87,252.224 104.092,252.402 103.842,252.525C103.898,253.262 104.473,260.832 103.815,261.754C103.015,262.874 101.829,262.418 101.751,260.481C101.707,259.393 101.683,249.252 101.878,248.548C102.638,245.8 103.875,247.207 105.715,249.376C107.738,251.759 111.414,257.787 111.54,257.871C111.775,258.029 112.164,258.247 112.37,258.052C112.372,258.05 111.958,255.814 111.917,251.498C111.914,251.166 111.881,247.736 112.397,247.375C112.911,247.014 113.536,247.179 113.633,247.204C114.044,247.312 113.665,247.709 114.068,247.815Z" style="fill:rgb(109,113,74);"/>
            <path d="M267.504,260.088C267.83,260.092 271.236,260.127 271.563,260.424C271.682,260.532 272.678,261.436 271.447,262.423C271.25,262.581 263.455,263.556 262.511,261.495C261.78,259.897 262.367,257.651 262.132,252.49C261.897,247.314 262.724,247.201 264.538,246.762C264.884,246.678 265.378,247.039 266.253,245.394C266.384,245.147 268.172,241.783 269.262,243.638C269.403,243.879 269.416,244.206 269.333,244.472C269.207,244.879 268.83,245.169 268.664,245.561C268.531,245.876 268.264,246.274 268.447,246.564C268.621,246.84 269.086,246.711 269.411,246.746C270.466,246.858 270.491,246.762 270.95,247.027C273.002,248.216 270.808,248.8 270.666,248.838C269.985,249.019 265.913,248.864 265.646,248.966C264.159,249.538 264.392,249.91 264.512,251.499C264.681,253.742 266.936,253.086 268.521,253.153C272.544,253.325 270.538,255.157 270.354,255.285C269.679,255.754 265.359,255.323 264.824,255.856C264.544,256.136 264.058,259.424 265.289,259.905C265.455,259.97 265.453,259.919 267.504,260.088Z" style="fill:rgb(107,111,72);"/>
            <path d="M422.386,259.766C422.793,259.877 423.173,260.078 423.58,260.189C427.228,261.177 427.333,258.818 427.348,258.488C427.46,255.988 426.225,256.566 425.116,255.965C422.805,254.712 425.147,254.131 425.292,254.095C425.687,253.997 429.12,253.675 429.695,255.435C429.869,255.965 430.109,260.305 429.43,261.461C428.342,263.314 423.033,263.55 420.476,261.531C420.386,261.46 420.409,261.437 419.388,260.609C418.688,260.041 416.219,256.672 417.352,252.457C417.563,251.674 418.941,246.551 425.5,246.418C430.249,246.322 428.815,248.387 428.623,248.625C427.9,249.517 420.84,246.792 419.664,253.529C419.612,253.829 419.281,255.727 419.977,257.324C420.687,258.954 420.911,258.798 422.386,259.766Z" style="fill:rgb(100,104,67);"/>
            <path d="M373.667,255.418C374.31,256.863 374.316,256.839 374.952,258.307C375.126,258.709 375.334,259.095 375.509,259.496C375.575,259.647 376.194,261.065 376.118,261.464C376.09,261.609 375.795,263.161 374.539,262.416C373.532,261.819 372.902,258.445 371.375,257.794C370.865,257.577 367.861,257.75 367.556,257.768C365.29,257.899 365.464,261.545 364.325,262.23C363.446,262.758 362.237,262.095 362.709,260.549C363.106,259.25 364.805,255.705 364.835,255.618C365.029,255.044 366.721,250.04 367.663,248.586C370.198,244.674 371.854,250.305 373.667,255.418ZM368.011,253.319C367.965,253.727 367.686,254.084 367.64,254.492C367.549,255.288 367.728,255.352 368.524,255.433C371.909,255.779 370.505,253.279 370.294,252.605C370.247,252.453 369.311,249.466 368.311,252.398C368.207,252.704 368.115,253.014 368.011,253.319Z" style="fill:rgb(106,110,72);"/>
            <path d="M289.681,255.583C290.957,252.344 290.684,252.244 292.542,248.519C292.641,248.321 293.706,246.185 295.199,247.774C295.903,248.524 296.035,248.664 300.319,259.573C300.408,259.801 301.635,262.926 299.494,262.522C298.589,262.352 297.829,258.928 296.781,258.01C296.275,257.567 291.735,257.84 291.703,257.852C290.932,258.143 289.649,261.719 289.177,262.131C289.068,262.225 287.613,263.494 287.49,261.503C287.395,259.983 289.144,256.715 289.681,255.583ZM295.431,253.522C295.193,252.842 295.213,252.856 294.968,252.198C294.516,250.984 294.617,250.13 293.546,250.848C293.517,250.867 293.037,252.447 292.995,252.586C292.931,252.795 292.306,254.852 292.762,255.304C292.864,255.405 295.625,255.81 295.718,254.534C295.743,254.185 295.406,253.872 295.431,253.522Z" style="fill:rgb(102,107,69);"/>
            <path d="M220.099,254.492C220.164,255.409 219.632,259.283 224.543,260.267C224.795,260.317 227.195,260.798 227.687,259.612C227.966,258.939 227.918,257 227.436,256.563C227.296,256.436 224.381,256.13 224.929,254.693C225.254,253.842 229.275,253.512 229.974,255.265C230.246,255.949 230.922,261.011 229.286,262.192C226.705,264.056 216.768,263.1 217.737,253.529C218.664,244.373 231.062,245.757 229.389,248.426C228.782,249.395 223.393,247.908 221.497,250.497C220.047,252.475 220.327,252.605 220.099,254.492Z" style="fill:rgb(103,107,70);"/>
            <path d="M413.43,255.529C415.009,259.402 416.076,261.646 415.318,262.286C414.27,263.171 413.494,261.707 413.418,261.564C411.863,258.629 412.336,257.803 410.449,257.768C406.648,257.696 406.47,257.851 406.215,258.076C405.104,259.053 404.193,263.381 402.54,262.43C401.88,262.05 402.292,260.611 402.336,260.459C402.545,259.728 402.816,259.835 405.881,251.644C406.022,251.267 407.422,247.524 408.43,247.313C409.661,247.055 410.375,248.353 410.466,248.519C412.236,251.74 412.457,253.072 413.43,255.529ZM410.257,253.591C409.588,251.626 409.594,251.638 409.535,251.469C409.277,250.733 409.252,250.467 408.526,250.741C408.483,250.757 407.931,252.47 407.882,252.622C407.295,254.442 406.592,255.326 408.506,255.474C409.942,255.584 410.595,255.946 410.552,254.503C410.543,254.184 410.266,253.91 410.257,253.591Z" style="fill:rgb(102,106,67);"/>
            <path d="M89.068,254.502C89.039,254.103 88.808,250.886 88.925,249.505C89.07,247.791 88.95,247.483 90.562,246.916C90.583,246.909 96.8,246.21 97.967,247.093C98.122,247.211 99.875,248.659 96.472,249.012C92.989,249.374 91.087,248.014 91.356,251.514C91.494,253.32 92.216,253.115 93.523,253.131C94.191,253.139 94.859,253.127 95.527,253.149C95.742,253.156 97.912,253.225 97.819,254.556C97.752,255.517 95.704,255.546 95.502,255.548C92.702,255.587 91.433,254.68 91.342,257.494C91.275,259.571 91.436,260.054 93.514,260.085C96.308,260.128 96.288,260.079 96.529,260.086C99.859,260.181 98.802,262.369 97.542,262.644C97.024,262.757 92.476,262.74 91.493,262.642C88.676,262.362 88.611,260.592 89.068,254.502Z" style="fill:rgb(110,114,77);"/>
            <path d="M237.467,246.434C238.1,246.511 238.734,246.587 239.368,246.664C241.538,246.754 242.715,246.821 242.802,247.351C243.099,249.148 242.309,248.986 240.492,249.016C239.489,249.033 239.509,248.898 238.507,248.938C236.232,249.03 235.577,249.212 235.922,251.464C236.277,253.784 237.174,253.087 239.515,253.133C243.813,253.217 241.626,255.236 241.429,255.363C241.05,255.606 236.926,255.486 236.605,255.65C235.525,256.202 236.017,259.353 236.349,259.663C237.417,260.661 243.451,259.087 243.331,261.483C243.303,262.037 243.249,263.116 236.5,262.675C232.239,262.397 233.87,260.106 233.456,252.499C233.154,246.935 234.401,247.111 235.539,246.83C235.692,246.793 235.682,246.801 237.467,246.434Z" style="fill:rgb(109,114,76);"/>
            <path d="M464.121,254.495C464.083,253.94 463.707,248.491 464.549,247.549C464.922,247.132 465.47,246.518 471.489,246.702C471.665,246.707 473.3,246.757 473.545,247.482C474.167,249.326 469.541,249.004 469.498,249.005C468.302,249.038 466.662,248.622 466.447,250.493C466.097,253.542 467.473,253.059 470.519,253.135C470.738,253.141 472.957,253.197 472.862,254.565C472.796,255.512 470.705,255.538 470.501,255.54C469.835,255.549 469.169,255.528 468.503,255.541C467.201,255.566 466.801,255.254 466.514,256.505C465.855,259.372 467.344,259.937 467.621,260.042C467.799,260.109 472.297,260.082 472.59,260.137C474.021,260.403 473.966,261.401 473.958,261.559C473.909,262.443 472.839,262.909 467.498,262.697C463.095,262.522 463.977,260.34 464.121,254.495Z" style="fill:rgb(108,112,75);"/>
            <path d="M201.785,254.5C201.659,251.166 201.509,248.182 202.38,247.352C203.324,246.452 209.452,246.711 209.477,246.713C209.629,246.724 210.979,246.817 211.154,247.6C211.575,249.493 206.837,249.005 205.608,248.985C203.321,248.949 204.066,252.762 204.854,253.083C204.969,253.13 208.829,253.06 209.597,253.331C210.499,253.65 210.416,254.787 210.112,255.099C209.712,255.509 206.792,255.532 206.501,255.534C204.733,255.549 204.2,255.545 204.122,257.472C203.972,261.189 205.835,259.933 209.545,260.076C212.613,260.194 211.368,262.157 211.262,262.256C210.475,262.993 203.649,262.865 202.661,262.237C201.393,261.432 201.719,257.479 201.785,254.5Z" style="fill:rgb(106,111,73);"/>
            <path d="M144.135,254.499C144.008,249.978 144.008,249.096 144.13,248.422C144.393,246.974 146.12,246.534 151.485,246.708C151.648,246.713 153.124,246.761 153.332,247.557C153.877,249.645 148.482,248.763 147.296,249.161C146.1,249.562 146.515,252.195 146.627,252.43C147.326,253.892 153.033,252.202 152.875,254.561C152.811,255.517 150.707,255.54 150.502,255.542C147.768,255.571 146.553,254.748 146.462,257.498C146.345,261.015 148.022,259.992 151.526,260.103C151.74,260.109 153.84,260.176 153.787,261.529C153.75,262.484 152.546,262.911 147.497,262.685C143.197,262.492 143.978,260.495 144.135,254.499Z" style="fill:rgb(107,111,73);"/>
            <path d="M315.146,254.502C314.64,248.562 315.094,247.501 316.581,246.912C317.244,246.649 322.963,246.623 323.424,246.763C323.439,246.767 326.168,248.528 322.578,248.938C318.997,249.346 317.028,247.928 317.308,251.521C317.402,252.734 317.375,253.044 318.596,253.116C320.075,253.202 320.063,253.077 321.54,253.143C321.742,253.152 323.736,253.242 323.656,254.523C323.596,255.493 321.694,255.541 321.503,255.546C318.682,255.616 317.422,254.681 317.302,257.488C317.231,259.151 317.003,259.559 318.578,260.056C318.819,260.132 323.905,259.891 324.488,260.513C325.425,261.512 324.506,262.273 324.392,262.368C323.727,262.919 317.488,262.776 316.523,262.434C314.36,261.668 315.087,256.275 315.146,254.502Z" style="fill:rgb(109,113,76);"/>
            <path d="M497.78,178.378C497.914,179.603 498.551,181.039 496.896,182.895C493.721,186.455 487.682,184.587 487.428,183.529C487.029,181.86 487.866,181.942 489.544,182.227C490.56,182.4 491.351,182.888 493.419,182.292C495.622,181.657 496.899,179.227 493.345,177.862C493.124,177.777 490.153,177.023 488.881,176.019C485.058,173.005 488.68,166.463 495.553,168.327C495.764,168.385 498.082,169.014 497.333,170.407C496.728,171.535 492.81,169.743 490.893,170.976C490.362,171.317 489.122,173.508 491.443,174.609C491.782,174.769 495.069,175.888 495.289,175.997C497.32,177.003 497.672,178.241 497.78,178.378Z" style="fill:rgb(105,109,70);"/>
            <path d="M508.669,174.37C508.826,174.792 509.127,175.15 509.284,175.572C509.531,176.237 509.684,182.656 509.289,183.399C509.142,183.677 509.09,183.774 505.579,184.709C499.372,186.361 498.21,177.353 504.494,177.29C505.141,177.283 505.811,177.574 506.431,177.39C507.752,176.997 506.589,175.622 506.492,175.507C505.809,174.7 503.774,174.878 503.533,174.899C502.302,175.007 502.062,175.58 501.354,174.588C501.186,174.352 500.23,172.6 504.518,172.825C506.833,172.947 506.978,172.793 508.669,174.37ZM506.741,181.66C506.768,181.492 507.042,181.436 507.07,181.268C507.109,181.026 507.396,179.262 504.513,179.577C502.035,179.848 502.1,183.19 505.43,182.329C506.555,182.038 506.436,181.816 506.741,181.66Z" style="fill:rgb(107,111,74);"/>
            <path d="M440.423,254.645C439.264,253.762 439.207,253.849 438.812,253.275C438.681,253.084 437.968,252.048 438.159,250.446C438.753,245.461 446.816,246.122 447.565,247.453C447.629,247.567 448.234,248.642 447.322,249.064C446.71,249.346 446.697,249.133 445.431,248.928C442.727,248.49 440.883,249.338 440.734,250.538C440.443,252.866 444.331,253.309 446.555,254.405C448.204,255.218 448.96,257.753 448.257,259.408C446.107,264.464 438.805,263.052 438.39,261.544C437.909,259.799 438.786,259.781 440.562,260.132C440.991,260.216 445.15,261.036 445.812,258.612C446.438,256.322 443.902,255.86 440.423,254.645Z" style="fill:rgb(104,109,70);"/>
            <path d="M392.41,254.67C391.243,253.766 391.191,253.845 390.798,253.285C390.663,253.094 389.892,251.994 390.11,250.443C390.81,245.459 398.778,246.136 399.554,247.463C399.62,247.574 400.237,248.629 399.293,249.057C398.621,249.361 398.61,249.127 397.43,248.932C397.01,248.863 392.043,248.042 392.73,251.416C393.241,253.92 401.261,252.953 400.361,258.481C399.415,264.289 390.828,263.353 390.328,261.57C389.826,259.78 390.742,259.781 392.559,260.142C398.108,261.247 398.368,257.586 397.358,256.619C397.051,256.325 396.965,256.243 392.41,254.67Z" style="fill:rgb(103,108,68);"/>
            <path d="M188.815,251.47C189.014,249.96 188.436,249.687 190.074,248.004C190.229,247.845 190.308,247.613 190.486,247.481C193.377,245.336 200.025,246.861 197.839,248.859C197.129,249.508 197.015,249.097 195.439,248.878C192.049,248.407 190.892,249.998 191.348,251.558C191.63,252.524 194.261,253.289 194.543,253.371C195.113,253.536 200.337,255.054 198.625,259.558C196.64,264.779 186.723,262.977 189.281,260.281C190.14,259.376 190.313,259.989 191.548,260.227C194.502,260.798 196.146,259.403 196.344,258.455C197.105,254.803 190.504,256.544 188.98,252.356C188.877,252.074 188.918,251.752 188.815,251.47Z" style="fill:rgb(104,108,73);"/>
            <path d="M380.878,259.499C380.831,257.02 381.182,256.961 380.552,255.478C380.293,254.867 380.138,254.99 379.301,253.622C379.055,253.221 376.311,248.737 376.27,248.572C376.236,248.438 375.869,246.962 376.609,246.872C378.651,246.624 380.367,251.359 381.394,252.626C382.519,254.013 382.876,252.296 384.483,249.489C384.643,249.208 386.605,245.781 387.786,247.161C388.588,248.097 387.333,249.068 385.473,252.483C383.995,255.195 383.348,254.999 383.302,257.496C383.251,260.247 383.303,260.242 383.294,260.48C383.23,262.267 382.062,262.965 381.195,261.74C380.74,261.097 380.953,261.029 380.878,259.499Z" style="fill:rgb(103,107,68);"/>
            <path d="M116.761,246.984C116.843,246.971 117.408,246.584 120.505,246.738C124.391,246.93 124.399,246.386 128.258,246.976C128.287,248.065 128.692,248.389 127.664,248.789C127.016,249.041 125.626,249.021 125.448,249.018C125.295,249.016 123.947,248.997 123.63,249.592C123.469,249.894 123.578,259.258 123.527,260.503C123.52,260.678 123.449,262.373 122.492,262.438C120.599,262.566 121.485,261.355 121.164,250.545C121.096,248.257 118.826,249.344 117.329,248.788C116.289,248.401 116.708,248.073 116.761,246.984Z" style="fill:rgb(108,113,74);"/>
            <path d="M455.507,246.858C461.297,246.606 461.383,246.761 461.814,247.308C463.383,249.301 457.943,248.906 457.462,249.474C457.015,250 457.267,257.815 457.193,260.476C457.188,260.67 457.122,263.038 455.603,262.314C454.536,261.806 454.899,258.051 454.86,251.49C454.85,249.889 454.864,249.027 453.395,248.99C453.157,248.984 450.716,248.923 450.443,248.556C449.598,247.423 450.552,246.928 450.673,246.866C451.153,246.617 455.121,246.837 455.507,246.858Z" style="fill:rgb(109,114,76);"/>
            <path d="M308.497,260.084C308.747,260.099 311.62,260.277 311.62,260.277C312.517,260.601 312.457,261.855 312.178,262.192C311.746,262.713 308.795,262.702 308.498,262.701C305.784,262.691 303.713,263.116 303.22,260.528C302.874,258.711 303.019,248.7 303.066,248.37C303.271,246.947 304.483,247.135 304.64,247.159C305.944,247.362 305.195,255.83 305.382,258.518C305.529,260.621 306.393,260.055 308.497,260.084Z" style="fill:rgb(107,111,73);"/>
            <path d="M523.095,178.499C523.108,181.558 523.212,183.221 522.834,183.751C522.175,184.673 521.846,184.772 521.136,183.89C520.193,182.721 521.048,178.25 520.744,171.504C520.729,171.172 520.576,167.785 521.452,167.402C522.964,166.742 523.101,169.292 523.113,169.507C523.13,169.822 523.098,177.78 523.095,178.499Z" style="fill:rgb(112,116,79);"/>
            <path d="M183.265,256.5C183.303,249.613 183.236,248.034 183.61,247.592C184.492,246.548 185.337,247.449 185.437,247.556C185.795,247.938 185.779,250.265 185.777,250.503C185.715,259.393 186.212,262.523 184.501,262.466C182.938,262.414 183.27,258.452 183.265,256.5Z" style="fill:rgb(98,103,59);"/>
            <path d="M432.877,249.501C433.274,247.781 432.923,246.871 434.644,247.25C435.113,247.353 435.227,248.426 435.239,248.539C435.269,248.83 435.3,259.932 435.274,260.483C435.264,260.682 435.146,263.106 433.605,262.326C432.803,261.921 432.895,261.323 432.877,249.501Z" style="fill:rgb(107,111,72);"/>
            <path d="M515.35,176.397C515.282,176.737 515.105,177.05 515.038,177.39C514.758,178.806 515.336,183.671 514.329,184.229C512.645,185.163 512.537,182.698 512.528,182.498C512.503,181.939 512.56,181.944 512.628,175.501C512.63,175.359 512.644,173.952 512.818,173.727C513.158,173.284 514.738,173.599 515.477,173.399C517.863,172.754 517.903,172.551 518.359,172.838C518.55,172.959 518.712,174.214 518.502,174.502C518.243,174.858 517.763,174.984 517.371,175.183C516.884,175.431 516.339,175.56 515.872,175.841C515.654,175.972 515.568,176.266 515.35,176.397Z" style="fill:rgb(105,109,72);"/>
            <path d="M505.167,171.2C504.762,170.99 504.737,171.069 504.366,170.785C503.791,170.344 503.773,170.395 503.732,170.349C503.648,170.252 502.871,168.62 502.824,168.429C502.556,167.34 503.446,166.96 503.57,166.906C504.91,166.334 505.654,169.192 505.721,169.45C506.059,170.748 505.209,171.068 505.167,171.2Z" style="fill:rgb(109,114,78);"/>
            <path d="M237.467,246.434C237.539,246.136 237.474,245.817 237.546,245.519C237.791,244.511 238.947,243.208 239.451,243.152C240.676,243.013 240.927,243.311 240.679,244.535C240.64,244.731 240.584,244.689 239.368,246.664C238.734,246.587 238.1,246.511 237.467,246.434Z" style="fill:rgb(131,134,107);"/>
            <path d="M280.269,51.743C280.324,52.025 280.824,52.071 280.879,52.353C280.911,52.518 281.253,54.268 279.582,54.007C278.356,53.815 278.658,52.656 278.693,52.522C278.835,51.979 279.035,52.169 280.269,51.743Z" style="fill:rgb(227,226,214);"/>
        </g>
    </g>
</svg>
