<?xml version="1.0" encoding="UTF-8" standalone="no"?>
<!DOCTYPE svg PUBLIC "-//W3C//DTD SVG 1.1//EN" "http://www.w3.org/Graphics/SVG/1.1/DTD/svg11.dtd">
<svg width="100%" height="100%" viewBox="0 0 2900 872" version="1.1" xmlns="http://www.w3.org/2000/svg" xmlns:xlink="http://www.w3.org/1999/xlink" xml:space="preserve" xmlns:serif="http://www.serif.com/" style="fill-rule:evenodd;clip-rule:evenodd;stroke-linejoin:round;stroke-miterlimit:2;">
    <g transform="matrix(1,0,0,1,-550.555143,-1064)">
        <g transform="matrix(2.831055,0,0,2.831055,551,1064)">
            <path d="M43.5,0C43.694,0.394 43.459,0.914 43.653,1.307C43.772,1.551 44.134,1.562 44.351,1.726C45.364,2.493 45.381,2.456 45.45,2.541C46.004,3.231 45.728,3.314 45.844,4.464C46.054,6.54 46.551,7.173 46.7,7.364C46.825,7.523 47.037,7.6 47.16,7.761C47.818,8.628 47.764,10.372 48.585,12.46C49.176,13.96 49.325,13.882 49.809,15.423C51.174,19.777 52.574,22.366 52.798,23.448C52.947,24.167 53.042,24.899 53.228,25.61C53.753,27.626 54.355,27.399 54.793,29.446C54.947,30.165 55.044,30.896 55.233,31.606C55.41,32.274 56.466,34.171 56.586,34.459C57.212,35.966 57.462,35.855 57.792,37.449C57.942,38.169 58.04,38.9 58.228,39.611C58.759,41.625 59.358,41.398 59.795,43.446C59.948,44.165 60.045,44.896 60.234,45.607C60.398,46.22 61.489,48.216 61.589,48.457C61.855,49.095 61.89,49.049 62.225,49.633C62.804,50.641 62.605,50.694 63.014,52.585C63.341,54.098 63.567,53.992 64.167,54.758C65.058,55.895 64.705,56.021 64.848,57.469C65.133,60.359 66.268,61.599 66.565,62.474C68.158,67.173 68.428,67.065 68.562,67.474C69.392,70.01 69.447,69.977 70.013,72.586C70.469,74.685 71.337,74.325 71.797,76.445C71.953,77.163 72.049,77.894 72.228,78.607C72.807,80.915 74.026,82.916 74.802,85.425C75.755,88.505 76.521,88.269 76.849,91.467C77.174,94.625 77.894,94.404 78.826,97.419C79.611,99.955 80.286,100.734 80.583,101.459C81.203,102.969 81.472,102.853 81.799,104.448C81.947,105.168 82.043,105.9 82.228,106.611C82.753,108.627 83.362,108.396 83.795,110.446C83.947,111.165 84.044,111.897 84.231,112.607C84.413,113.3 85.458,115.151 85.585,115.459C86.207,116.957 86.464,116.843 86.795,118.448C86.943,119.168 87.041,119.9 87.228,120.612C87.759,122.625 88.359,122.391 88.794,124.447C89.214,126.435 88.975,126.502 89.924,128.311C90.946,130.259 90.827,130.296 91.804,133.419C92.331,135.105 92.339,135.086 93.22,136.636C93.716,137.509 94.103,140.211 94.258,140.617C94.577,141.453 95.535,141.719 95.797,143.447C96.14,145.703 95.561,145.924 98.221,150.635C98.316,150.803 99.652,154.869 99.902,155.324C99.974,155.456 100.154,155.504 100.231,155.633C100.99,156.903 100.699,156.985 100.849,158.468C101.167,161.613 101.886,161.393 102.825,164.419C103.614,166.961 104.286,167.738 104.58,168.461C105.195,169.966 105.467,169.849 105.798,171.448C105.947,172.167 106.043,172.898 106.229,173.609C106.755,175.626 107.363,175.396 107.795,177.446C107.946,178.165 108.043,178.897 108.229,179.607C108.426,180.358 109.442,182.112 109.585,182.459C110.207,183.969 110.474,183.854 110.8,185.448C110.947,186.168 111.043,186.9 111.228,187.611C111.517,188.718 111.646,188.641 112.221,189.636C113.219,191.365 112.266,192.354 114.217,195.642C114.69,196.439 114.477,196.52 114.916,197.322C114.986,197.452 115.157,197.504 115.232,197.631C115.528,198.138 115.765,199.299 115.795,199.448C115.942,200.169 116.04,200.901 116.226,201.613C116.756,203.634 117.361,203.397 117.792,205.448C117.944,206.167 118.042,206.899 118.23,207.609C118.765,209.624 119.357,209.393 119.797,211.446C119.951,212.164 120.046,212.895 120.235,213.605C120.399,214.224 121.477,216.2 121.585,216.459C121.847,217.085 121.88,217.041 122.222,217.635C122.751,218.553 123.55,221.79 124.23,223.609C125.033,225.76 125.021,226.804 125.235,227.606C125.397,228.216 126.494,230.226 126.591,230.457C126.85,231.077 126.881,231.032 127.227,231.633C127.825,232.672 127.707,234.252 128.584,236.461C128.835,237.092 128.88,237.049 129.224,237.634C130.026,239.002 129.63,241.784 130.935,244.31C132.493,247.328 131.513,247.719 133.215,250.642C133.68,251.44 133.463,251.518 133.911,252.329C133.981,252.458 134.156,252.505 134.232,252.631C134.95,253.828 134.807,256.221 135.229,257.609C135.562,258.705 135.654,258.652 136.22,259.636C137.133,261.22 136.4,262.616 138.085,267.738C138.236,268.199 138.431,270.361 138.534,270.476C139.58,271.641 140.223,270.512 140.293,270.389C140.493,270.038 140.373,267.714 140.361,267.482C140.253,265.39 140.745,265.474 141.203,263.427C141.558,261.84 141.97,261.967 142.133,260.447C142.168,260.116 142.157,259.78 142.205,259.451C142.442,257.86 142.849,257.997 143.201,256.426C143.517,255.02 143.978,254.493 144.029,254.346C144.11,254.112 144.153,252.286 144.412,251.465C144.686,250.592 145.012,250.455 145.082,250.328C145.168,250.17 145.112,250.154 146.066,248.31C147.528,245.482 146.6,245.146 148.061,242.312C149.274,239.96 149.241,237.003 149.411,236.464C149.697,235.554 150.011,235.473 150.093,235.325C150.242,235.055 150.298,234.743 150.415,234.458C150.671,233.833 151.413,232.897 152.179,230.42C152.651,228.892 152.836,228.974 153.196,227.419C153.521,226.015 153.966,225.497 154.024,225.338C154.076,225.195 153.868,225.161 154.429,223.471C154.905,222.036 155.659,221.946 156.196,219.42C156.609,217.479 156.932,217.606 157.087,217.32C157.521,216.516 157.319,216.44 157.785,215.643C159.551,212.623 158.852,212.328 159.785,210.639C160.872,208.674 160.877,208.671 161.206,206.447C161.447,204.819 161.793,204.96 162.415,203.459C162.849,202.413 162.997,202.506 163.414,201.459C164.409,198.957 164.03,197.443 166.547,198.404C167.647,198.824 167.934,200.867 168.261,201.618C168.717,202.662 169.058,202.436 169.554,203.468C170.415,205.259 170.533,205.193 170.81,206.414C171.053,207.482 171.01,207.505 171.688,208.363C171.817,208.525 172.035,208.601 172.161,208.765C172.622,209.366 172.488,209.414 172.811,210.414C174.049,214.25 174.99,214.528 175.172,214.759C176.114,215.959 175.703,216.107 176.018,217.588C176.36,219.195 176.63,219.06 177.154,219.766C178.077,221.011 177.403,221.314 178.258,222.622C178.667,223.249 178.714,223.185 179.158,223.767C179.64,224.399 179.497,224.449 179.81,225.413C181.136,229.495 184.496,234.408 184.795,236.448C185.366,240.339 184.424,242.872 184.229,243.395C182.19,248.878 183.141,249.787 182.587,251.535C182.297,252.45 181.991,252.513 181.898,252.673C181.744,252.939 181.686,253.252 181.553,253.53C180.895,254.903 180.37,254.651 180.024,256.42C179.814,257.493 179.96,257.491 179.791,258.554C179.6,259.755 179.442,259.681 178.694,260.635C178.099,261.395 177.862,263.232 177.794,263.555C177.437,265.247 177.194,265.145 176.905,265.681C176.557,266.324 176.616,266.335 175.571,269.529C175.25,270.508 175.03,270.467 174.915,270.68C174.48,271.487 174.677,271.56 174.215,272.357C172.49,275.333 173.162,275.61 172.215,277.361C171.154,279.323 171.258,279.355 170.795,281.555C170.455,283.175 170.244,283.083 169.9,283.681C169.748,283.946 169.686,284.255 169.553,284.531C169.156,285.354 168.785,285.54 168.706,285.645C167.89,286.723 167.886,289.157 167.214,290.359C166.123,292.307 166.272,292.364 165.797,294.556C165.407,296.362 165.062,296.174 164.696,296.636C164.104,297.382 163.878,299.134 163.791,299.553C163.293,301.971 160.885,305.116 161.014,306.372C161.071,306.935 161.442,307.436 161.5,307.999L117.5,307.999C117.32,307.602 117.3,307.145 117.12,306.748C117.074,306.647 116.697,306.447 116.415,305.535C115.816,303.597 116.47,303.224 114.786,300.354C114.32,299.559 114.522,299.483 114.087,298.68C113.78,298.112 113.555,298.207 113.208,296.553C113.136,296.212 112.899,294.389 112.306,293.634C112.18,293.474 111.965,293.399 111.841,293.237C110.775,291.838 111.772,290.77 109.786,287.356C109.324,286.561 109.523,286.487 109.086,285.68C108.97,285.465 108.751,285.51 108.429,284.529C107.357,281.262 107.413,281.262 107.097,280.679C106.803,280.138 106.562,280.239 106.205,278.554C105.74,276.358 105.899,276.304 104.783,274.359C103.95,272.906 102.181,267.84 102.093,267.678C101.781,267.104 101.552,267.203 101.207,265.554C101.134,265.209 100.9,263.388 100.307,262.634C100.18,262.474 99.964,262.399 99.84,262.237C98.76,260.822 99.779,259.739 97.786,256.356C97.32,255.565 97.53,255.485 97.09,254.678C96.738,254.032 96.537,254.126 96.207,252.554C95.748,250.365 95.855,250.331 94.785,248.362C93.842,246.628 94.532,246.339 92.783,243.358C92.315,242.559 92.52,242.482 92.085,241.68C91.767,241.091 91.672,241.162 91.425,240.531C91.077,239.643 90.377,237.192 90.097,236.679C89.775,236.088 89.546,236.188 89.205,234.554C89.134,234.208 88.897,232.38 88.308,231.634C88.181,231.473 87.963,231.4 87.839,231.237C86.906,230.022 87.457,227.217 86.284,225.652C85.585,224.719 85.666,224.684 85.093,223.681C85,223.517 84.711,223.438 84.426,222.53C84.123,221.567 84.312,220.907 83.767,219.39C83.065,217.439 82.794,217.567 82.179,215.582C81.43,213.168 80.683,212.193 80.413,211.542C79.793,210.05 79.519,210.163 79.193,208.577C78.594,205.664 77.546,205.856 77.203,203.554C76.872,201.326 76.872,201.324 75.786,199.36C74.56,197.143 75.818,196.649 74.295,194.644C74.219,194.544 73.839,194.35 73.444,193.532C73.311,193.256 73.251,192.946 73.098,192.68C73.002,192.514 72.709,192.45 72.421,191.532C72.105,190.526 72.337,189.973 71.771,188.389C71.102,186.516 70.62,186.469 70.183,184.581C69.825,183.034 69.677,183.097 69.181,181.59C68.525,179.6 68.236,179.767 67.837,179.241C67.437,178.713 67.22,177.719 67.189,177.58C66.849,176.022 66.548,176.126 66.197,174.581C65.842,173.016 65.542,173.131 65.185,171.582C64.51,168.654 63.589,168.798 63.2,166.558C62.934,165.023 63.248,164.899 62.295,163.644C62.218,163.543 61.841,163.352 61.445,162.532C61.311,162.256 61.25,161.947 61.098,161.681C61.002,161.515 60.711,161.448 60.423,160.531C60.323,160.213 60.254,159.884 60.205,159.554C59.975,158.002 60.291,157.874 59.309,156.633C59.182,156.472 58.964,156.4 58.839,156.238C57.586,154.613 58.953,154.028 56.785,150.357C56.316,149.564 56.528,149.484 56.089,148.678C56.003,148.52 55.709,148.444 55.424,147.53C55.122,146.561 55.324,145.93 54.767,144.39C54.133,142.637 53.619,142.449 53.182,140.582C52.488,137.61 51.59,137.8 51.201,135.557C50.935,134.021 51.252,133.896 50.297,132.642C50.218,132.539 49.842,132.357 49.445,131.532C48.559,129.696 48.382,129.765 48.204,128.554C47.876,126.322 47.867,126.322 46.785,124.361C45.568,122.153 46.817,121.661 45.29,119.647C45.223,119.558 44.831,119.336 44.442,118.533C43.401,116.386 43.33,116.423 43.204,115.554C42.881,113.324 42.87,113.325 41.785,111.362C41.459,110.771 41.219,109.727 41.185,109.58C40.498,106.587 39.591,106.827 39.205,104.556C38.943,103.012 39.264,102.885 38.303,101.638C38.219,101.529 37.844,101.37 37.443,100.533C37.311,100.257 37.254,99.946 37.101,99.681C37.003,99.51 36.71,99.464 36.417,98.533C36.166,97.732 36.091,95.912 36.005,95.672C35.775,95.028 34.464,93.098 34.201,91.557C33.939,90.019 34.251,89.895 33.296,88.643C33.221,88.546 32.837,88.349 32.442,87.533C32.309,87.257 32.249,86.947 32.096,86.681C32.004,86.521 31.703,86.443 31.418,85.533C31.319,85.214 31.251,84.885 31.203,84.554C30.88,82.318 30.869,82.319 29.785,80.361C29.46,79.773 29.218,78.728 29.184,78.581C28.607,76.083 28.133,76.285 27.412,74.543C27.295,74.259 27.235,73.949 27.088,73.679C26.955,73.434 26.576,73.487 26.191,71.578C25.876,70.014 25.554,70.13 25.196,68.58C24.836,67.015 24.542,67.129 24.187,65.581C23.514,62.645 22.577,62.793 22.204,60.555C22.134,60.139 21.655,57.266 20.306,55.637C20.276,55.601 19.442,55.149 19.196,53.556C19.146,53.228 19.168,52.892 19.137,52.561C18.942,50.538 17.743,50.054 17.187,47.579C16.839,46.03 16.683,46.095 16.189,44.587C15.484,42.434 14.917,42.747 14.441,41.529C14.087,40.624 14.373,40.569 14.041,39.661C13.981,39.495 13.512,39.006 13.198,37.58C12.854,36.012 12.536,36.131 12.189,34.58C11.532,31.646 10.584,31.825 10.204,29.556C9.946,28.01 10.267,27.884 9.304,26.637C9.219,26.527 8.845,26.373 8.441,25.534C8.308,25.258 8.251,24.947 8.098,24.682C8.006,24.524 7.7,24.448 7.414,23.535C7.165,22.74 7.095,20.914 7.009,20.673C6.778,20.026 5.466,18.11 5.202,16.557C4.94,15.016 5.249,14.894 4.293,13.644C4.225,13.554 3.83,13.34 3.439,12.535C2.516,10.63 2.36,10.67 2.138,8.564C2.024,7.479 1.874,7.543 1.409,6.545C1.284,6.277 1.258,5.959 1.09,5.715C0.781,5.267 0.309,4.948 0,4.5L0,1.5C0,1 -0.354,0.354 0,0L43.5,0Z" style="fill:rgb(168,168,168);fill-opacity:0.98;"/>
            <path d="M557.727,173.933C558.14,173.754 558.016,173.506 559.447,173.187C560.8,172.886 560.822,173.14 561.323,173.026C561.558,172.973 562.663,171.894 562.773,171.788C565.102,169.515 565.606,169.308 566.207,165.455C566.336,164.628 567.586,162.24 566.975,158.44C566.922,158.113 566.797,158.145 565.985,154.421C565.464,152.03 564.724,152.309 563.816,151.228C563.1,150.374 563.443,148.878 560.483,148.849C558.918,148.833 558.94,148.92 557.383,149.035C557.159,149.051 556.922,148.897 556.713,148.978C556.548,149.041 556.535,149.288 556.407,149.409C556.282,149.529 556.045,149.533 555.967,149.689C555.596,150.435 556.147,170.294 555.647,173.493C555.18,176.48 555.764,176.462 555.834,179.501C556.004,186.843 555.449,199.428 556.27,201.614C556.465,202.133 558.058,203.632 558.229,203.792C560.328,205.766 560.939,205.41 560.916,206.529C560.875,208.579 557.751,207.659 557.475,207.578C554.921,206.826 554.903,206.927 549.499,206.919C546.833,206.916 544.166,206.912 541.5,206.908C537.823,206.91 537.821,206.896 535.524,207.572C532.433,208.482 529.107,207.44 528.576,207.273C527.906,207.063 527.908,206.872 509.501,206.906C503.274,206.918 503.067,207.745 501.808,207.014C501.238,206.684 501.21,205.381 501.829,204.989C502.82,204.362 502.946,204.59 503.784,203.78C506.159,201.484 504.476,200.748 503.186,196.58C502.089,193.034 501.367,192.75 499.491,192.877C493.884,193.258 485.983,192.903 485.747,192.982C485.579,193.038 485.531,193.266 485.399,193.384C484.854,193.867 484.904,193.897 484.591,194.548C484.117,195.533 484.038,195.495 483.816,196.578C483.37,198.753 480.954,201.226 482.684,203.344C483.203,203.981 484.699,204.99 484.886,205.117C485.642,205.627 485.806,205.649 485.657,206.549C485.35,208.406 482.731,207.66 482.473,207.587C481.076,207.189 481.116,206.926 478.497,206.916C472.943,206.895 472.924,206.879 470.527,207.582C470.243,207.666 467.052,208.601 466.994,206.49C466.957,205.132 470.299,204.197 471.347,203.313C472.715,202.16 473.578,200.862 473.737,200.622C474.491,199.488 473.905,197.879 474.822,196.766C475.473,195.975 475.639,196.164 476.288,195.344C477.237,194.147 477.088,191.878 477.784,190.641C478.658,189.089 478.957,189.197 479.129,187.439C479.151,187.218 479.33,185.388 479.828,184.757C480.169,184.326 480.998,184.009 481.137,182.438C481.264,180.997 480.936,180.876 481.824,179.755C482.294,179.163 482.641,179.362 483.412,177.457C484.094,175.775 483.984,175.764 484.199,174.442C484.57,172.172 485.895,172.683 486.133,170.437C486.288,168.979 486.016,168.9 486.768,167.633C486.846,167.502 487.022,167.448 487.099,167.316C487.251,167.051 487.308,166.741 487.44,166.465C487.915,165.476 488.719,165.259 489.113,163.434C489.183,163.109 489.152,162.77 489.205,162.443C489.584,160.117 490.548,160.385 491.186,157.42C491.24,157.169 491.332,156.739 492.413,154.457C492.884,153.462 492.963,153.512 493.186,152.42C493.511,150.833 493.798,150.95 494.41,149.455C494.418,149.434 495.832,146.903 496.127,145.448C496.193,145.122 496.155,144.782 496.205,144.453C496.344,143.533 497.435,140.616 497.528,140.53C498.081,140.021 500.003,140.03 500.563,141.465C501.383,143.567 501.108,143.67 502.217,145.638C502.361,145.893 503.527,149.571 503.916,150.306C504.456,151.327 504.477,151.305 504.823,152.414C506.101,156.501 507.148,156.398 507.552,157.474C507.826,158.202 507.987,160.451 508.698,161.361C509.042,161.802 509.383,161.628 509.795,163.44C510.291,165.62 510.098,165.768 511.669,167.357C512.951,168.655 512.877,168.749 513.026,170.579C513.07,171.115 512.93,171.142 513.257,171.621C513.419,171.858 513.508,172.141 513.688,172.365C514.097,172.872 514.428,172.697 514.807,174.441C515.078,175.694 514.712,175.792 515.257,176.619C515.416,176.859 515.509,177.141 515.688,177.366C516.072,177.849 516.404,177.678 516.796,179.44C517.21,181.298 516.932,181.4 517.689,182.365C517.779,182.479 518.157,182.613 518.564,183.462C519.537,185.496 519.563,185.466 520.239,187.61C520.283,187.75 520.598,188.752 520.901,189.314C521.035,189.561 521.228,189.427 521.572,190.47C522.28,192.609 522.049,192.687 523.221,194.642C523.694,195.432 523.477,195.514 523.911,196.316C524.234,196.913 524.33,196.841 524.574,197.469C524.723,197.851 524.913,198.222 525,198.623C525.049,198.845 524.916,199.084 524.973,199.304C525.033,199.539 525.621,200.282 525.685,200.362C525.825,200.539 526.098,200.53 526.567,201.457C527.499,203.297 527.935,202.868 529.234,203.838C530.695,204.93 530.717,205.09 532.543,204.905C534.415,204.715 535.282,203.301 535.788,202.773C537.386,201.106 537.153,200.844 537.152,192.5C537.145,148.7 537.226,148.648 536.735,147.38C536.049,145.606 531.532,144.875 531.305,143.554C531.01,141.84 533.294,141.97 533.51,141.982C543.373,142.541 569.737,141.726 571.53,142.417C572.568,142.817 572.507,142.946 573.576,143.194C575.125,143.553 575.014,143.847 576.587,144.188C578.681,144.641 578.801,145.73 580.747,147.152C580.964,147.311 581.256,147.364 581.446,147.554C581.569,147.678 581.398,147.791 582.675,149.358C582.797,149.507 583.124,149.58 583.558,150.465C584.964,153.331 584.661,153.427 585.554,156.481C585.678,156.904 585.925,157.744 585.829,161.511C585.774,163.679 585.009,164.728 584.895,165.558C584.804,166.216 584.864,166.888 584.793,167.549C584.712,168.311 584.644,168.289 583.561,170.537C583.136,171.419 580.952,173.379 580.699,173.677C580.276,174.175 579.906,174.687 579.841,174.777C579.689,174.988 579.642,175.273 579.455,175.453C579.254,175.648 578.949,175.699 578.719,175.86C577.753,176.535 577.707,176.432 576.517,176.539C574.862,176.688 574.254,177.435 575.579,178.423C575.803,178.59 576.143,178.488 576.395,178.608C576.586,178.7 576.682,178.929 576.864,179.037C577.817,179.609 577.859,179.496 578.759,180.151C578.902,180.256 579.675,180.53 580.02,181.676C580.074,181.855 579.899,182.058 579.962,182.234C580.082,182.565 581.643,183.525 582.002,184.637C582.069,184.843 581.928,185.077 581.983,185.287C582.168,185.988 584.559,187.673 585.004,189.619C585.055,189.843 584.922,190.084 584.973,190.309C584.978,190.33 585.856,192.127 585.933,192.285C587.18,194.837 588.384,196.08 588.657,196.362C589.927,197.673 589.521,197.948 590.676,199.361C590.816,199.532 591.11,199.537 591.566,200.456C592.537,202.413 593.072,201.882 594.235,202.827C594.82,203.301 595.136,204.464 597.561,203.98C600.402,203.413 602.017,200.388 602.048,197.494C602.073,195.116 602.065,157.019 602.064,153.499C602.063,151.531 602.284,149.451 600.75,147.349C598.32,144.02 597.166,145.603 595.765,144.247C594.209,142.74 595.299,142.043 597.458,142.042C602.986,142.04 602.97,142.161 608.501,142.159C631.659,142.149 631.673,142.157 632.529,142.419C637.124,143.823 639.139,143.979 640.238,144.831C640.404,144.96 640.48,145.18 640.642,145.313C641.498,146.018 643.765,146.771 644.566,148.458C646.385,152.287 646.784,152.188 646.871,154.476C647.263,164.767 646.725,165.481 646.157,166.233C645.725,166.807 645.683,166.741 645.252,167.347C644.399,168.544 643.827,170.214 642.429,170.405C642.111,170.449 641.785,170.39 641.466,170.43C639.43,170.685 639.425,172.396 641.454,172.603C643.064,172.767 643.069,172.754 644.544,173.428C644.906,173.594 645.13,173.696 648.212,176.784C649.297,177.871 649.154,177.964 649.9,179.3C650.096,179.65 650.389,179.525 650.805,181.419C651.26,183.484 651.808,183.357 651.845,185.487C651.971,192.762 651.505,192.835 651.217,193.366C650.145,195.339 650.291,195.389 649.565,197.529C648.98,199.256 647.205,200.355 646.842,200.791C646.678,200.987 646.636,201.273 646.452,201.449C646.373,201.526 646.365,201.477 645.341,202.256C644.451,202.933 644.444,202.889 643.65,203.669C642.147,205.145 641.87,204.576 639.566,204.878C638.426,205.028 635.054,206.798 632.512,206.838C617.101,207.082 602.658,206.563 600.414,207.244C597.358,208.171 597.287,208 594.582,207.255C591.233,206.332 579.038,207.59 576.634,206.22C574.681,205.107 574.631,205.275 572.469,204.571C571.473,204.246 571.571,204.07 571.274,203.863C571.045,203.702 570.74,203.653 570.539,203.458C570.458,203.379 570.584,203.305 569.637,202.361C568.652,201.379 568.591,201.455 567.748,200.337C565.428,197.26 565.817,197.04 563.782,193.364C563.324,192.536 563.229,191.697 563.212,191.546C563.129,190.813 563.469,190.756 562.173,186.574C561.985,185.967 561.281,184.235 561.207,183.542C560.916,180.828 561.263,180.58 559.346,178.645C558.835,178.129 558.854,178.141 558.383,177.615C558.238,177.453 557.731,177.357 557.682,176.369C557.673,176.174 557.694,176.198 557.727,173.933ZM631.057,181.554C631.444,192.865 630.665,192.816 630.411,193.459C629.67,195.328 629.338,195.137 628.828,195.764C628.106,196.652 627.712,199.33 624.583,199.982C623.516,200.205 621.524,200.552 621.495,200.55C620.681,200.501 620.775,200.296 620.263,199.646C620.176,199.536 619.979,199.504 619.946,199.366C619.825,198.858 619.825,184.769 619.825,183.5C619.825,168 619.782,168.017 619.831,152.501C619.832,152.274 619.839,149.89 619.955,149.661C620.033,149.508 620.276,149.523 620.407,149.412C620.541,149.297 620.569,149.059 620.734,148.996C620.761,148.986 622.347,148.86 622.487,148.849C622.813,148.823 624.894,148.657 626.105,150.738C626.25,150.988 626.31,151.279 626.438,151.539C626.907,152.496 627.468,152.656 627.741,153.382C628.055,154.214 628.323,154.926 628.155,164.483C628.107,167.152 627.183,167.013 626.435,168.458C624.829,171.562 622.241,170.343 622.256,172.509C622.268,174.183 623.068,173.614 624.615,174.266C625.671,174.71 625.42,175.079 626.449,175.58C627.759,176.218 627.79,176.251 628.425,177.548C628.502,177.704 628.611,177.927 629.804,179.229C630.714,180.221 630.551,180.314 631.057,181.554ZM494.499,186.145C494.111,186.145 489.854,186.145 489.649,186.039C489.514,185.97 488.598,183.67 488.961,182.66C488.969,182.64 490.51,179.752 490.579,179.532C490.899,178.519 490.668,177.978 491.229,176.389C491.919,174.438 492.388,174.58 492.519,172.507C492.594,171.318 492.308,170.803 493.508,170.815C494.739,170.827 494.291,171.432 494.859,173.287C495.859,176.55 495.491,176.674 497.071,179.688C497.719,180.924 498.348,183.648 498.121,184.469C498.107,184.517 497.356,186.025 497.343,186.03C497.133,186.118 497.116,185.948 494.499,186.145Z" style="fill:rgb(168,168,168);fill-opacity:0.96;"/>
            <path d="M208.56,102.888C202.36,105.041 202.204,106.561 200.791,105.197C200.077,104.508 199.919,102.142 200.782,100.639C201.352,99.646 201.481,99.723 201.771,98.61C201.956,97.898 202.046,97.165 202.201,96.446C202.582,94.675 203.133,94.952 203.739,93.617C204.627,91.664 205.28,87.501 205.841,86.764C205.965,86.601 206.181,86.527 206.307,86.366C207.105,85.35 207.126,82.782 207.781,81.637C208.122,81.041 208.166,81.083 208.416,80.46C209.008,78.979 208.942,78.984 209.436,77.474C209.595,76.988 210.505,75.597 211.192,73.415C211.312,73.031 212.578,69.011 212.786,68.639C214.808,65.017 213.649,64.577 214.776,62.635C215.114,62.052 215.153,62.098 215.417,61.459C215.552,61.133 216.583,59.315 216.77,58.607C216.957,57.896 217.055,57.165 217.208,56.446C217.67,54.268 218.243,54.469 219.188,51.422C219.67,49.87 219.801,49.949 220.409,48.457C221.279,46.321 221.182,44.658 221.773,43.633C222.113,43.044 222.148,43.091 222.412,42.457C222.537,42.157 223.589,40.297 223.771,39.609C223.958,38.898 224.055,38.166 224.206,37.447C224.54,35.862 224.817,35.975 225.416,34.46C226.001,32.982 225.938,32.976 226.433,31.473C226.58,31.029 227.527,29.553 228.196,27.417C228.316,27.033 229.574,23.015 229.786,22.64C230.886,20.693 230.747,20.648 231.202,18.447C231.637,16.341 232.157,16.55 232.769,14.614C233.645,11.837 233.722,11.889 235.073,9.306C236.018,7.5 235.77,7.43 236.205,5.441C237.08,1.44 240.29,2.156 246.5,2.16C277.88,2.179 278,2.094 278.46,2.541C279.838,3.885 277.43,9.752 277.238,10.393C276.742,12.044 276.993,12.15 276.162,13.24C276.039,13.401 275.829,13.48 275.704,13.639C274.934,14.617 273.627,19.614 273.213,20.359C271.12,24.124 272.376,24.657 271.161,26.239C271.037,26.4 270.822,26.475 270.696,26.635C269.969,27.551 269.748,30.472 269.229,31.367C269.155,31.496 268.984,31.55 268.913,31.68C268.474,32.487 268.692,32.567 268.218,33.358C266.216,36.704 267.257,37.837 266.166,39.24C265.474,40.129 265.179,39.978 264.807,41.583C264.175,44.304 262.316,47.964 261.812,49.579C261.008,52.153 260.614,51.988 259.811,54.58C259.333,56.125 259.197,56.044 258.588,57.542C257.727,59.659 257.828,61.368 257.236,62.369C257.159,62.499 256.985,62.552 256.909,62.683C256.756,62.949 256.697,63.26 256.563,63.537C256.062,64.57 255.68,64.316 255.266,65.387C255.106,65.801 254.713,68.489 254.218,69.362C253.624,70.408 253.498,70.339 253.227,71.387C253.044,72.1 252.951,72.832 252.806,73.554C252.535,74.901 252.383,74.838 251.565,76.538C251.066,77.575 250.669,77.31 250.26,78.385C250.115,78.767 249.7,81.528 249.22,82.362C248.879,82.956 248.832,82.912 248.584,83.541C248.001,85.022 248.065,85.027 247.569,86.528C247.294,87.358 245.749,89.616 244.826,92.583C244.347,94.12 244.218,94.049 243.599,95.548C242.781,97.527 242.82,99.346 242.156,100.237C242.114,100.294 241.11,100.73 240.845,103.534C240.708,104.977 241.078,105.112 240.176,106.245C239.714,106.825 239.366,106.63 238.587,108.542C237.807,110.46 237.807,112.384 237.159,113.237C237.036,113.399 236.822,113.476 236.696,113.636C235.882,114.672 235.871,117.247 235.224,118.365C234.881,118.956 234.842,118.911 234.582,119.541C234.338,120.134 233.56,121.186 232.819,123.58C231.924,126.468 231.453,128.377 230.533,128.589C228.194,129.125 228.043,125.774 228.004,125.67C227.718,124.911 226.322,122.83 226.197,121.547C226.008,119.604 226.496,119.445 224.786,116.362C223.628,114.276 224.835,113.816 222.783,110.359C222.315,109.57 222.534,109.486 222.085,108.674C222.015,108.547 221.68,108.417 221.403,107.539C221.078,106.506 221.465,103.607 219.743,101.345C218.178,99.288 217.69,100.45 215.552,100.793C213.337,101.148 213.329,101.129 211.361,102.213C210.259,102.82 210.199,102.615 208.56,102.888Z" style="fill:rgb(168,168,168);fill-opacity:0.97;"/>
            <path d="M898.049,170.488C898.119,166.208 898.065,163.641 898.434,162.474C898.927,160.91 899.538,161.159 900.192,158.415C900.728,156.168 901.516,156.565 902.415,154.454C902.485,154.291 902.949,153.203 903.557,152.553C904.261,151.8 904.601,152.089 905.435,150.455C905.913,149.518 906.132,149.584 906.351,149.353C907.577,148.06 907.441,147.9 908.453,147.426C908.721,147.301 909.022,147.251 909.281,147.109C909.426,147.029 909.499,146.85 909.646,146.773C910.157,146.504 910.734,146.367 911.236,146.08C911.749,145.786 912.203,144.531 913.424,144.219C914.146,144.034 914.894,143.964 915.613,143.772C917.391,143.298 917.353,142.283 920.476,142.155C923.239,142.041 923.193,141.818 924.477,141.433C926.398,140.856 937.95,140.984 939.52,141.444C941.488,142.02 941.469,142.097 943.523,142.157C946.765,142.253 946.418,143.514 949.587,144.184C949.725,144.214 950.755,144.432 951.233,144.821C952.264,145.663 951.894,146.13 954.537,147.442C955.466,147.903 955.461,148.184 955.64,148.33C957.212,149.608 957.33,149.423 957.454,149.546C957.532,149.624 957.486,149.634 958.257,150.66C959.452,152.249 959.479,152.304 959.559,152.463C960.198,153.75 960.208,153.741 961.202,154.775C963.121,156.77 962.686,157.177 963.584,159.459C963.831,160.086 963.878,160.043 964.224,160.635C965.089,162.114 964.654,164.528 965.229,166.597C965.693,168.265 965.866,168.237 965.899,172.493C965.974,182.163 965.631,182.144 965.227,183.4C964.987,184.144 965.055,184.14 964.791,186.547C964.579,188.489 963.398,188.783 962.807,191.584C962.407,193.481 962.123,193.353 961.865,193.715C961.701,193.945 961.645,194.249 961.451,194.455C961.283,194.634 961.005,194.672 960.817,194.83C960.198,195.351 959.644,196.393 959.565,196.543C959.481,196.7 959.449,196.76 958.251,198.334C957.418,199.429 957.423,199.422 956.334,200.251C955.751,200.694 955.784,200.705 955.22,201.16C954.353,201.858 954.184,201.596 953.373,202.361C952.394,203.284 952.539,203.374 952.456,203.452C952.25,203.645 951.946,203.701 951.716,203.865C951.439,204.061 951.507,204.257 950.532,204.573C945.804,206.108 945.937,206.435 945.526,206.565C944.893,206.765 944.802,206.334 937.404,208.231C936.884,208.364 936.943,208.968 929.494,208.837C926.911,208.792 927.038,208.04 924.474,207.868C922.548,207.739 922.51,207.523 921.6,207.229C920.877,206.996 920.882,207.062 918.453,206.789C917.278,206.657 917.348,206.47 916.316,205.918C915.503,205.483 915.433,205.676 914.617,205.229C913.608,204.677 913.528,204.955 912.475,204.549C910.839,203.917 911.43,203.038 908.463,201.558C907.522,201.089 907.546,200.824 907.357,200.671C906.843,200.255 905.461,199.712 904.988,198.313C904.932,198.149 905.097,197.943 905.01,197.793C904.126,196.259 903.201,197.138 902.429,195.546C901.94,194.538 902.02,194.502 901.314,193.645C901.18,193.481 900.952,193.41 900.821,193.244C899.614,191.721 900.902,191.17 898.785,187.362C897.624,185.274 898.331,178.655 897.764,176.417C897.276,174.496 897.235,174.475 897.762,172.581C898.12,171.292 898.025,170.663 898.049,170.488ZM946.058,162.554C946.286,170.166 946.127,186.098 946.068,186.449C945.809,187.988 944.512,190.217 944.412,190.458C943.795,191.955 943.506,191.836 943.185,193.417C942.891,194.869 942.656,194.747 941.83,195.766C940.882,196.937 941.302,197.185 940.324,198.346C939.319,199.539 937.715,200.312 937.46,200.435C936.51,200.893 936.365,201.466 935.619,201.743C934.762,202.061 928.558,202.819 926.636,201.313C926.482,201.192 926.432,200.881 925.537,200.441C922.37,198.882 923.15,198.1 922.247,196.638C922.156,196.49 921.978,196.413 921.878,196.271C921.716,196.039 921.665,195.732 921.47,195.528C921.391,195.445 921.288,195.587 920.361,194.622C918.853,193.051 919.4,191.759 918.229,188.607C916.532,184.04 916.867,183.924 916.839,170.503C916.832,166.966 916.548,166.928 917.553,163.519C917.903,162.333 917.637,162.135 918.23,160.399C918.704,159.014 918.577,158.999 918.889,157.565C919.412,155.166 920.93,154.911 921.581,153.549C921.657,153.391 922.213,152.227 922.679,151.647C922.85,151.434 923.076,151.523 923.566,150.546C923.637,150.405 924.251,149.181 924.763,148.986C924.939,148.918 925.146,149.056 925.33,149.01C927.844,148.386 927.395,146.828 931.501,146.825C934.507,146.823 934.463,147.124 935.46,147.584C937.446,148.501 937.983,148.746 938.628,149.363C938.792,149.521 939.011,149.62 939.159,149.794C939.323,149.989 939.368,150.272 939.548,150.452C939.73,150.632 940.015,150.676 940.21,150.841C940.856,151.387 941.363,152.39 941.438,152.54C941.731,153.12 942.988,154.544 943.029,154.701C943.084,154.919 942.951,155.156 942.999,155.376C943.23,156.445 945.27,159.964 945.751,161.407C945.876,161.783 945.933,162.179 946.058,162.554Z" style="fill:rgb(168,168,168);fill-opacity:0.96;"/>
            <path d="M463.948,158.499C464.16,165.533 463.533,165.542 462.251,167.347C461.424,168.512 460.873,170.1 459.464,170.458C459.175,170.532 458.871,170.535 458.58,170.6C458.326,170.657 457.991,170.617 457.831,170.822C457.685,171.009 457.861,171.296 457.853,171.534C457.845,171.77 457.638,172.053 457.783,172.24C457.904,172.397 460.646,172.242 463.213,174.792C466.266,177.825 466.396,178.1 466.567,178.459C466.697,178.731 466.75,179.037 466.897,179.3C467.09,179.645 467.373,179.501 467.802,181.42C468.266,183.495 468.8,183.371 468.842,185.487C469.019,194.349 468.28,194.252 468.218,194.362C467.333,195.923 467.28,195.874 466.587,197.545C466.316,198.198 466.265,198.14 465.85,198.726C465.691,198.951 465.635,199.248 465.444,199.447C465.366,199.529 465.294,199.41 464.358,200.359C463.374,201.355 463.446,201.411 462.339,202.253C461.457,202.923 461.447,202.878 460.647,203.667C459.423,204.873 459.296,204.725 457.559,204.858C456.064,204.973 456.195,205.428 454.572,205.799C452.507,206.271 452.634,206.811 450.513,206.84C433.436,207.079 418.722,206.548 416.425,207.274C414.922,207.749 414.92,208.111 413.435,207.621C412.652,207.362 411.418,205.796 413.277,205.101C415.285,204.351 415.294,204.318 416.786,202.772C419.318,200.148 418.996,199.742 418.995,187.5C418.991,154.814 418.987,154.832 419.056,151.506C419.131,147.89 416.339,145.57 415.608,145.283C414.543,144.866 414.492,145.08 413.423,144.633C413.247,144.56 411.487,143.824 412.453,142.463C412.845,141.911 413.052,142.192 445.504,142.158C447.997,142.155 448.046,141.898 450.399,142.767C453.74,144.002 456.506,144.272 457.237,144.834C457.403,144.962 457.479,145.182 457.64,145.314C458.254,145.819 459.382,146.359 459.542,146.435C460.252,146.775 461.232,147.77 461.563,148.459C462.808,151.052 463.066,151.361 463.216,151.64C464.075,153.242 463.918,155.811 463.948,158.499ZM439.601,170.933C439.24,171.131 438.879,171.328 438.518,171.526C438.643,172.792 438.274,173.115 439.434,173.618C440.492,174.077 440.545,173.852 441.612,174.267C442.683,174.684 442.408,175.079 443.448,175.582C444.75,176.211 444.784,176.236 445.423,177.55C445.806,178.337 447.172,179.507 447.288,179.654C448.135,180.728 448.212,181.431 448.142,190.491C448.116,193.813 447.655,193.716 446.846,194.771C446.391,195.365 445.103,198.991 441.417,200.181C438.607,201.088 437.641,201.448 437.012,198.571C436.559,196.499 436.901,180.952 436.785,175.501C436.731,172.974 436.281,172.987 436.646,170.494C437.029,167.877 436.588,150.241 436.91,149.651C436.999,149.489 437.266,149.527 437.408,149.41C437.543,149.299 437.554,149.049 437.718,148.988C437.927,148.909 438.164,149.058 438.387,149.041C440.366,148.883 441.775,148.126 443.436,151.54C443.869,152.429 444.198,152.489 444.314,152.635C445.428,154.043 444.949,157.047 445.405,158.532C445.85,159.98 445.856,160.008 445.409,161.469C444.961,162.934 445.176,162.955 445.158,164.481C445.129,166.906 444.218,167.294 443.839,167.771C443.137,168.653 443.423,168.832 442.628,169.63C441.428,170.833 440.257,170.722 439.601,170.933Z" style="fill:rgb(168,168,168);fill-opacity:0.97;"/>
            <path d="M233.051,151.508C232.628,148.547 232.899,148.317 230.775,146.22C229.524,144.985 228.694,144.823 226.44,145.051C225.162,145.18 225.236,145.376 224.234,146.169C223.276,146.927 221.727,146.684 220.811,150.586C220.295,152.787 219.335,152.366 218.815,154.584C218.452,156.135 218.156,156.02 217.803,157.582C217.77,157.728 217.516,158.857 217.224,159.363C216.722,160.234 216.355,160.298 215.807,162.582C215.38,164.363 214.939,164.325 214.695,164.638C214.329,165.108 213.054,168.546 212.808,169.584C212.444,171.123 212.138,171.018 211.813,172.579C211.485,174.16 211.203,174.031 210.585,175.542C209.869,177.293 209.383,177.08 208.813,179.58C208.372,181.511 208.033,181.444 207.904,181.686C207.821,181.84 207.315,182.787 206.98,183.671C206.926,183.813 207.127,183.851 206.569,185.529C206.086,186.981 205.338,187.063 204.805,189.58C204.471,191.157 204.207,191.048 203.586,192.542C202.85,194.315 202.387,194.108 201.816,196.582C201.396,198.404 200.275,199.908 200,200.677C199.912,200.922 199.824,202.757 199.581,203.532C199.293,204.447 198.998,204.511 198.913,204.668C198.765,204.941 198.704,205.252 198.591,205.541C198.179,206.596 198.24,206.594 197.854,207.657C197.499,208.634 197.546,208.873 196.509,208.877C195.544,208.881 195.642,208.623 195.103,207.803C193.956,206.055 193.293,203.937 193.182,203.583C192.015,199.856 190.863,199.279 190.832,199.24C190.48,198.791 190.03,196.647 189.982,196.416C189.65,194.833 189.397,194.966 188.841,194.236C188.496,193.783 188.033,191.645 187.983,191.414C187.64,189.83 187.403,189.949 186.844,189.23C185.925,188.049 184.896,184.787 184.77,184.385C184.427,183.298 184.346,183.348 183.781,182.361C183.134,181.229 183.459,181.106 182.414,178.542C181.535,176.388 180.675,176.814 180.195,174.558C179.833,172.858 180.049,172.838 180.016,172.691C179.962,172.455 179.372,171.715 179.309,171.636C179.18,171.475 178.962,171.402 178.836,171.239C178.072,170.25 178.144,167.717 177.303,166.639C177.178,166.478 176.966,166.398 176.844,166.235C176.37,165.606 176.507,165.56 176.19,164.584C175.317,161.898 174.711,161.262 174.414,160.543C173.802,159.058 173.671,159.136 173.193,157.58C172.399,154.996 171.985,155.166 171.186,152.584C169.977,148.679 168.803,148.248 167.775,147.226C166.357,145.815 166.508,145.538 164.386,144.912C164.148,144.841 161.269,143.991 162.465,142.473C162.93,141.883 165.254,141.984 165.499,141.995C169.295,142.161 173.198,142.3 191.515,142.09C191.738,142.087 193.923,142.062 193.912,143.498C193.905,144.476 193.62,144.353 192.802,144.907C192.565,145.068 190.481,146.48 190.258,147.428C189.898,148.96 192.176,152.55 192.224,152.634C192.55,153.204 192.627,153.34 194.812,160.421C195.735,163.414 196.337,163.294 196.795,165.445C196.948,166.164 197.044,166.896 197.233,167.607C197.683,169.306 199.404,171.028 199.569,171.467C199.861,172.242 199.738,172.244 199.843,174.441C199.889,175.391 200.822,178.077 200.869,178.114C200.933,178.166 202.137,178.199 202.201,178.151C202.604,177.848 202.34,175.587 202.799,174.661C202.867,174.526 203.037,174.462 203.107,174.327C203.249,174.055 203.308,173.747 203.423,173.462C203.684,172.814 204.414,171.872 205.18,169.419C205.802,167.427 206.077,167.558 206.769,165.609C207.309,164.088 207.115,163.453 207.426,162.47C207.726,161.524 208.001,161.499 208.098,161.322C209.048,159.58 209.116,158.686 209.135,158.442C209.16,158.109 209.13,157.772 209.178,157.442C209.488,155.299 210.636,155.816 211.77,152.609C212.336,151.011 212.156,150.164 212.425,149.471C212.575,149.085 212.9,148.774 213.011,148.375C213.09,148.092 213.018,147.785 212.978,147.494C212.676,145.314 211.564,145.214 210.401,144.641C210.23,144.557 208.483,143.698 209.455,142.465C210.257,141.447 210.53,142.059 214.507,142.15C225.553,142.403 225.542,141.96 226.502,141.985C247.245,142.525 254.45,141.85 255.623,142.107C257.16,142.443 256.921,144.062 256.502,144.502C256.379,144.632 256.362,144.593 254.389,145.052C254.254,145.084 253.305,145.305 252.842,145.828C252.679,146.012 252.634,146.286 252.459,146.459C252.285,146.632 252.012,146.675 251.827,146.835C251.174,147.399 250.934,148.402 250.898,148.554C250.769,149.091 250.798,198.736 250.846,199.486C251.156,204.305 255.726,204.43 256.511,205.492C257.128,206.327 257.041,208.662 253.47,207.592C250.965,206.841 250.946,206.916 245.5,206.911C233.074,206.902 233.042,206.829 230.527,207.582C226.767,208.708 225.895,206.168 226.459,205.469C226.872,204.957 229.277,204.92 230.619,203.624C231.594,202.684 231.256,202.472 231.775,201.639C231.853,201.514 232.026,201.464 232.096,201.334C232.803,200.033 232.991,198.702 233.025,198.463C233.029,198.432 232.91,158.982 233.051,151.508Z" style="fill:rgb(168,168,168);fill-opacity:0.96;"/>
            <path d="M832.046,154.5C831.924,151.043 831.843,150.734 831.759,150.418C831.101,147.911 830.879,147.592 830.733,147.382C829.563,145.696 829.35,145.48 827.375,144.897C827.135,144.827 824.236,143.972 825.438,142.451C825.9,141.866 828.253,141.981 828.5,141.993C838.64,142.491 853.778,141.925 854.622,142.11C856.167,142.448 855.913,144.072 855.504,144.504C855.382,144.633 855.37,144.593 853.389,145.052C853.254,145.083 852.303,145.303 851.843,145.821C851.678,146.007 851.632,146.282 851.456,146.456C851.282,146.629 851.009,146.669 850.823,146.829C850.638,146.989 850.478,147.184 850.361,147.4C849.592,148.819 849.846,148.892 849.821,150.506C849.799,151.945 849.587,165.59 849.794,168.496C849.822,168.877 849.986,169.24 850.014,169.621C850.031,169.858 849.841,170.106 849.927,170.328C849.992,170.497 850.259,170.483 850.395,170.603C850.529,170.722 850.559,170.954 850.721,171.03C851.224,171.267 868.929,171.154 869.283,171.021C869.448,170.958 869.465,170.712 869.597,170.595C869.731,170.477 869.98,170.489 870.063,170.331C870.233,170.007 870.201,167.8 870.204,160.5C870.207,151.154 870.834,145.794 866.416,144.962C866.074,144.898 865.714,144.951 865.376,144.871C864.093,144.566 864.089,143.655 864.089,143.504C864.082,141.878 866.279,141.975 866.507,141.985C877.047,142.45 889.56,142.034 892.542,142.044C894.233,142.051 894.991,141.884 894.699,143.556C894.473,144.854 891.213,144.995 890.422,145.402C889.352,145.953 887.914,150.821 887.949,152.505C888.004,155.09 888.009,155.072 888.007,184.5C888.006,199.198 887.841,199.361 889.222,201.64C890.18,203.222 889.77,203.76 892.403,204.725C894.443,205.472 895.813,205.745 894.236,207.246C892.724,208.686 889.617,206.964 887.492,206.917C886.293,206.891 879.106,206.731 872.502,206.919C868.89,207.021 867.233,208.19 865.398,207.846C863.074,207.41 864.373,205.657 864.493,205.495C865.238,204.491 866.932,205.066 868.732,202.652C868.858,202.484 869.576,201.521 870.014,200.366C870.374,199.42 870.217,179.155 870.046,178.704C869.982,178.536 869.743,178.509 869.613,178.387C868.943,177.755 868.852,177.846 866.5,177.846C862.284,177.846 851.229,177.8 850.725,177.99C850.562,178.052 850.516,178.27 850.39,178.391C849.673,179.084 849.811,179.229 849.806,185.5C849.794,200.789 849.58,201.093 851.206,202.776C851.368,202.944 852.827,204.453 853.409,204.686C855.419,205.491 856.805,205.726 855.231,207.239C853.972,208.45 851.016,207.064 850.465,206.975C849.783,206.865 832.618,206.916 832.509,206.92C830.664,206.999 827.235,208.65 825.76,207.249C824.504,206.056 824.97,205.493 826.62,204.927C828.881,204.151 829.333,204.581 830.401,202.446C831.327,200.596 831.184,200.556 831.76,198.583C832.072,197.513 832.051,197.498 832.046,154.5Z" style="fill:rgb(168,168,168);fill-opacity:0.97;"/>
            <path d="M755.444,176.408C755.127,176.457 754.801,176.418 754.485,176.467C754.352,176.489 753.137,176.68 753.111,177.454C753.078,178.446 753.52,178.193 754.418,178.626C754.697,178.76 754.568,178.906 754.841,179.023C755.306,179.223 755.341,179.022 755.807,179.222C756.702,180.099 756.69,180.1 756.774,180.169C756.972,180.334 757.266,180.367 757.447,180.551C757.57,180.675 757.396,180.786 758.674,182.356C758.807,182.52 759.106,182.565 759.558,183.464C759.637,183.621 760.244,184.826 760.679,185.363C760.804,185.517 761.123,185.579 761.553,186.468C764.966,193.506 765.223,193.81 765.684,194.353C765.708,194.38 767.187,195.632 767.575,196.454C769.048,199.577 770.244,201.813 770.799,202.029C770.96,202.092 771.153,201.927 771.317,201.982C772.552,202.4 773.142,203.729 773.739,204.084C774.26,204.394 774.848,204.582 775.371,204.888C775.382,204.893 776.899,206.429 776.922,206.572C777.177,208.133 774.694,207.832 774.477,207.806C772.965,207.623 773.067,207.228 771.553,207.048C768.658,206.705 758.266,207.118 756.473,206.575C756.082,206.456 756.106,206.402 751.619,205.003C749.422,204.318 748.937,203.234 748.356,202.648C746.418,200.69 744.691,199.726 744.187,197.595C743.659,195.358 743.251,195.542 742.413,193.542C741.646,191.707 741.335,191.822 741.207,190.545C740.981,188.291 741.071,188.283 740.776,187.396C740.122,185.43 740.445,185.357 739.77,183.399C738.732,180.39 739.69,179.796 737.237,177.834C736.958,177.61 736.267,177.555 736.229,175.5C736.156,171.564 738.948,174.156 740.614,172.646C740.79,172.486 741.017,172.381 741.172,172.2C741.334,172.009 741.371,171.726 741.548,171.549C741.728,171.369 742.012,171.326 742.207,171.162C744.54,169.199 745.44,161.518 745.449,161.484C745.851,160.017 745.859,159.989 745.445,158.518C745.081,157.227 745.36,157.115 744.77,155.398C743.875,152.791 743.865,152.158 742.352,150.648C740.156,148.455 738.205,148.84 736.505,148.844C735.111,148.847 735.05,148.78 734.392,149.397C734.267,149.514 734.031,149.529 733.97,149.689C733.754,150.249 733.869,170.201 733.83,171.5C733.763,173.658 733.776,173.657 733.837,198.498C733.841,200.117 733.59,200.189 734.359,201.604C734.475,201.817 734.63,202.015 734.815,202.174C735.002,202.334 735.283,202.368 735.456,202.543C735.93,203.021 735.668,203.594 737.557,204.39C737.723,204.46 739.316,205.132 739.514,205.491C739.938,206.259 739.359,208.387 736.472,207.588C733.977,206.897 733.954,206.903 720.5,206.907C714.953,206.909 714.539,206.926 713.429,207.283C711.842,207.793 711.858,207.862 711.453,207.837C710.454,207.775 708.976,206.152 711.628,204.741C712.774,204.132 714.948,204.043 715.154,200.487C715.375,196.654 715.162,196.672 715.158,152.5C715.157,148.183 715.476,147.93 713.77,146.226C712.003,144.462 711.422,145.403 710.502,144.498C710.086,144.089 709.811,142.44 711.386,142.109C712.726,141.827 712.737,142.16 728.5,142.16C750.063,142.159 750.161,142.058 751.368,142.775C751.956,143.125 751.916,143.164 752.54,143.414C754.027,144.01 754.026,143.94 755.529,144.433C756.512,144.755 756.425,144.931 756.718,145.138C756.947,145.301 757.249,145.358 757.453,145.551C757.535,145.629 757.42,145.715 758.363,146.642C758.873,147.142 758.937,147.045 759.448,147.552C759.528,147.632 759.432,147.691 760.359,148.638C760.519,148.801 760.631,149.012 760.806,149.16C760.996,149.321 761.271,149.373 761.441,149.555C762.527,150.714 763.626,154.962 764.23,156.603C765.348,159.638 764.837,159.733 763.8,164.551C763.73,164.874 763.613,164.825 762.79,168.559C762.332,170.639 761.493,170.71 760.899,171.731C760.752,171.983 760.684,172.274 760.555,172.535C760.159,173.337 758.244,175.232 757.537,175.56C757.266,175.685 756.964,175.735 756.7,175.874C756.461,175.998 756.559,176.096 756.312,176.201C755.898,176.376 755.871,176.226 755.444,176.408Z" style="fill:rgb(168,168,168);fill-opacity:0.97;"/>
            <path d="M1023.999,156.5C1023.849,156.935 1023.122,156.986 1022.972,157.42C1022.971,157.423 1022.968,165.56 1022.975,165.581C1023.125,166.015 1023.849,166.067 1023.999,166.5C1023.995,166.507 1023.019,167.209 1022.869,168.569C1022.636,170.676 1022.474,170.634 1021.558,172.536C1021.128,173.429 1020.797,173.485 1020.672,173.637C1019.375,175.216 1019.565,175.321 1019.444,175.447C1019.268,175.63 1018.984,175.674 1018.789,175.837C1018.617,175.982 1018.518,176.199 1018.359,176.358C1017.423,177.296 1017.532,177.368 1017.45,177.447C1017.253,177.636 1016.956,177.687 1016.735,177.848C1015.677,178.618 1015.465,179.376 1013.565,179.796C1009.694,180.652 1009.739,180.93 1006.503,180.937C1002.87,180.945 1002.857,180.937 999.411,179.816C998.268,179.444 998.282,179.433 997.358,178.679C995.798,177.405 995.732,177.479 995.674,177.315C995.589,177.076 995.789,176.819 995.819,176.567C995.9,175.896 995.832,175.885 996.187,175.302C997.332,173.418 997.869,174.034 999.65,172.74C1003.912,169.643 1003.976,166.979 1004.212,165.453C1004.469,163.796 1005.087,163.669 1005.133,161.491C1005.23,156.963 1004.752,157.033 1004.185,154.576C1003.567,151.895 1002.427,152.462 1001.434,150.547C1000.346,148.446 999.815,149.066 997.461,148.798C996.799,148.723 996.16,148.458 995.494,148.438C994.641,148.413 994.76,148.683 994.273,149.357C994.19,149.472 994.021,149.526 993.974,149.659C993.722,150.389 993.91,168.091 993.841,172.5C993.793,175.53 993.227,175.526 993.694,178.51C993.886,179.742 993.85,180.53 993.85,187.5C993.85,200.84 993.623,201.132 995.211,202.774C996.707,204.321 996.715,204.355 998.718,205.107C1000.578,205.806 999.332,207.366 998.565,207.622C997.08,208.118 997.077,207.751 995.576,207.273C994.241,206.848 994.215,206.902 980.501,206.918C976.956,206.922 976.912,206.572 973.526,207.579C973.249,207.661 970.125,208.59 970.069,206.532C970.022,204.771 974.27,204.238 974.984,200.569C975.038,200.292 975.176,200.289 975.157,157.501C975.153,148.085 975.405,147.81 973.78,146.216C972.884,145.336 972.806,145.468 971.628,145.029C971.464,144.968 970.068,144.448 970.057,143.505C970.042,142.049 972.262,142.075 972.487,142.078C1004.174,142.452 1005.313,141.749 1007.528,142.422C1009.509,143.024 1009.532,142.85 1011.52,143.449C1013.044,143.907 1013.044,143.812 1014.579,144.194C1015.74,144.482 1015.525,144.79 1016.375,145.636C1017.367,146.624 1017.904,146.474 1019.215,147.786C1020.284,148.855 1020.636,149.802 1021.251,150.655C1022.479,152.358 1022.635,152.33 1022.865,154.431C1023.015,155.79 1023.997,156.496 1023.999,156.5Z" style="fill:rgb(168,168,168);fill-opacity:0.96;"/>
            <path d="M661.511,206.925C661.325,206.954 660.713,206.853 659.418,207.256C657.926,207.721 657.923,208.089 656.445,207.605C654.661,207.019 655.4,205.655 655.488,205.492C655.692,205.116 657.275,204.456 657.44,204.387C659.589,203.49 659.038,202.727 659.824,201.759C659.954,201.598 660.17,201.522 660.298,201.36C661.253,200.153 661.141,199.977 661.149,174.5C661.158,149.506 661.177,149.462 660.735,148.395C660.453,147.713 658.281,145.548 657.608,145.286C657.293,145.163 656.942,145.153 656.625,145.036C654.017,144.071 654.699,142.054 657.475,142.071C660.434,142.089 693.389,142.287 694.455,142.1C695.328,141.947 696.651,141.067 699.517,141.126C702.551,141.19 701.864,142.46 701.876,145.499C701.881,146.927 701.741,148.152 702.241,149.592C702.542,150.46 702.961,150.421 702.861,157.507C702.857,157.777 702.821,160.323 701.543,160.613C699.048,161.179 699.19,157.716 698.755,156.406C698.291,155.014 698.274,155.026 698.125,153.556C697.956,151.882 696.701,151.091 695.778,150.204C693.628,148.136 693.111,149.361 690.474,148.576C688.627,148.026 688.639,147.86 683.505,147.909C679.608,147.946 679.118,150.001 679.023,150.4C678.649,151.967 678.856,167.049 678.876,168.496C678.929,172.353 681.322,172.21 685.494,172.138C687.701,172.101 687.747,171.455 689.451,171.201C690.888,170.987 692.206,171.281 693.406,168.451C693.909,167.264 694.567,166.725 694.947,164.574C694.977,164.405 695.278,162.702 695.496,162.496C695.966,162.052 697.55,161.89 697.883,163.381C697.937,163.623 697.726,180.951 697.91,184.499C698.176,189.62 695.722,187.713 695.499,187.501C695.101,187.121 695.08,184.692 694.29,183.642C693.969,183.215 693.63,183.402 693.187,181.603C693.073,181.142 693.25,181.056 692.625,180.39C691.721,179.428 691.517,179.747 690.645,179.221C688.373,177.85 687.559,177.813 682.505,177.869C678.259,177.916 678.89,179.87 678.884,191.5C678.88,198.508 678.356,200.378 681.43,200.987C681.985,201.097 682.798,201.258 688.492,201.132C690.717,201.082 690.776,200.461 692.453,200.206C695.571,199.734 695.406,199.238 698.776,195.764C699.483,195.035 699.519,195.094 700.126,194.258C700.289,194.033 700.339,193.729 700.531,193.529C700.7,193.352 700.981,193.324 701.17,193.168C703.3,191.418 703.093,186.587 704.503,185.504C704.664,185.381 706.379,184.064 706.871,186.382C707.445,189.091 706.399,191.941 706.232,192.395C703.117,200.884 706.378,202.337 703.867,205.737C703.416,206.347 703.474,206.807 701.532,206.877C699.832,206.939 670.777,206.869 661.511,206.925Z" style="fill:rgb(168,168,168);fill-opacity:0.96;"/>
            <path d="M811.51,142.063C814.148,142.161 815.933,141.124 816.002,145.49C816.013,146.212 815.907,146.206 815.855,154.51C815.853,154.778 815.838,157.306 814.539,157.601C812.519,158.059 812.41,156.129 811.392,153.55C810.977,152.499 810.823,152.599 810.401,151.553C809.266,148.738 807.839,148.935 806.643,148.22C806.078,147.882 803.646,146.429 798.537,146.857C798.236,146.883 797.926,146.887 797.64,146.987C797.448,147.054 797.031,147.468 795.579,147.799C795.3,147.863 793.411,148.294 792.376,149.387C792.246,149.525 792.037,149.61 791.97,149.788C791.906,149.958 792.062,150.154 792.022,150.331C791.552,152.391 789.189,153.466 790.695,155.373C790.82,155.532 791.042,155.595 791.168,155.753C792.157,156.996 791.281,157.451 792.374,158.612C793.244,159.537 793.446,159.228 794.225,159.842C795.317,160.702 795.243,160.857 796.594,161.192C798.928,161.772 798.688,162.904 801.386,163.768C803.542,164.458 803.6,164.337 804.237,164.833C804.402,164.961 804.472,165.187 804.636,165.317C804.716,165.381 805.458,165.97 805.691,166.03C805.914,166.086 806.155,165.943 806.378,165.994C808.265,166.423 808.186,167.45 810.544,168.415C810.71,168.483 810.669,168.539 812.537,169.44C813.123,169.723 814.517,170.984 814.726,171.104C816.201,171.957 816.332,171.785 817.171,172.787C818.131,173.933 817.73,174.171 818.703,175.332C819.487,176.266 820.334,176.395 820.803,178.418C821.283,180.485 821.741,180.365 821.829,182.483C822.125,189.587 821.758,190.826 821.553,191.519C820.966,193.503 821.088,193.512 820.814,195.554C820.547,197.537 818.666,198.392 817.894,199.736C817.75,199.988 817.692,200.281 817.567,200.543C817.195,201.316 815.28,203.228 814.545,203.572C811.619,204.942 811.562,205.094 811.353,205.217C811.199,205.307 811.159,205.219 809.362,206.216C808.207,206.857 807.185,206.63 805.395,207.225C803.427,207.88 803.352,207.563 801.401,208.231C799.451,208.899 799.428,208.86 793.497,208.842C791.262,208.836 791.298,208.618 787.452,207.783C785.431,207.343 785.478,207.219 783.449,206.792C781.84,206.453 781.951,206.216 780.455,205.589C780.174,205.472 779.882,205.371 779.618,205.219C779.497,205.15 779.44,204.993 779.314,204.935C779.221,204.892 778.514,204.877 777.791,204.095C777.644,203.936 777.575,203.709 777.411,203.566C777.27,203.443 777.036,203.457 776.903,203.325C776.691,203.112 776.61,202.795 776.412,202.569C776.412,202.568 775.812,202.219 775.506,201.497C775.225,200.833 775.035,200.383 775.158,192.488C775.2,189.779 776.103,189.612 776.763,187.611C777.463,185.491 777.486,184.557 779.567,185.37C780.511,185.739 780.74,187.269 780.768,187.46C780.818,187.791 780.804,188.13 780.84,188.463C781.015,190.045 781.573,189.878 781.802,191.447C782.278,194.7 782.898,194.442 785.229,196.768C786.249,197.786 786.499,198.293 786.576,198.448C787.653,200.632 789.077,200.659 791.525,201.439C793.04,201.921 793.03,202.217 800.484,202.159C803.086,202.138 803.077,201.149 804.46,200.438C806.384,199.448 805.896,198.956 806.838,197.77C807.195,197.32 807.649,197.408 807.987,195.568C808.436,193.127 807.183,192.448 806.405,190.551C805.183,187.57 804.172,188.469 801.777,186.2C800.754,185.23 800.775,185.162 799.406,184.813C797.207,184.252 797.616,183.346 795.41,182.809C792.965,182.214 793.146,180.989 791.611,180.285C791.156,180.077 789.121,179.48 788.645,179.215C787.658,178.665 787.616,178.798 786.644,178.222C784.94,177.213 784.907,177.27 784.773,177.162C784.2,176.703 784.243,176.676 783.656,176.251C782.329,175.293 781.177,175.045 780.439,173.539C779.814,172.264 779.725,172.344 778.842,171.225C778.757,171.118 778.87,171.067 778.093,169.692C777.518,168.675 777.401,168.72 777.215,167.553C776.967,165.991 776.893,166.031 776.448,164.518C776.02,163.061 775.997,158.021 776.446,156.481C777.028,154.483 776.933,154.487 777.216,152.451C777.312,151.755 777.328,151.76 778.441,149.464C778.812,148.698 780.669,147 781.103,146.246C781.251,145.99 781.433,144.869 782.473,144.452C782.768,144.334 783.092,144.304 783.388,144.191C785.591,143.349 785.101,142.435 786.429,142.22C787.092,142.113 787.776,142.196 788.441,142.102C789.266,141.985 790.368,141.23 792.479,141.144C795.787,141.009 806.695,141.138 807.53,141.247C807.852,141.289 807.8,141.534 811.51,142.063Z" style="fill:rgb(168,168,168);fill-opacity:0.96;"/>
            <path d="M307.947,186.5C307.96,187.211 308.079,193.811 307.217,195.362C307.113,195.547 305.98,197.583 305.956,197.694C305.906,197.915 306.075,198.155 306.011,198.373C305.662,199.553 304.131,200.195 302.656,201.659C301.647,202.66 301.662,202.651 300.635,203.65C300.508,203.774 300.371,204.169 299.536,204.56C296.29,206.078 295.901,206.632 294.55,206.79C292.09,207.078 292.082,207.019 291.404,207.238C289.421,207.876 289.368,207.595 287.406,208.233C285.266,208.929 285.236,208.852 280.497,208.839C278.255,208.833 278.29,208.616 274.453,207.791C273.225,207.527 272.303,207.043 270.468,206.849C269.029,206.698 268.91,207.033 267.763,206.159C267.167,205.705 267.232,205.661 266.625,205.258C266.046,204.875 264.555,204.811 263.769,204.182C262.379,203.072 262.237,201.8 262.21,201.557C261.85,198.352 262.08,198.362 262.161,190.483C262.177,189.001 262.181,188.988 263.433,186.458C263.874,185.569 266.779,183.392 266.937,187.47C267.094,191.53 268.905,192.012 269.589,193.446C270.679,195.729 271.424,197.749 274.374,199.736C274.496,199.818 274.567,199.986 274.71,200.023C274.925,200.078 275.159,199.944 275.375,199.995C275.658,200.061 277.08,200.708 277.24,200.833C277.802,201.271 277.614,201.633 279.424,201.988C281.098,202.316 287.916,202.167 288.347,202.011C289.1,201.739 290.15,201.178 290.302,201.096C290.44,201.023 290.509,200.854 290.646,200.78C291.601,200.265 292.914,200.541 294.19,196.427C294.933,194.033 295.066,193.945 294.173,191.596C293.303,189.309 292.53,189.956 290.78,188.216C289.981,187.422 289.538,186.452 287.456,185.584C285.859,184.917 283.714,183.305 283.622,183.263C282.973,182.969 281.072,182.468 280.64,182.221C280.036,181.874 280.078,181.849 279.467,181.555C278.886,181.277 277.566,180.09 277.305,179.993C276.418,179.666 276.369,179.889 275.481,179.537C274.885,179.3 273.511,178.034 273.284,177.908C272.503,177.477 272.42,177.687 271.644,177.223C270.117,176.309 270.036,176.445 268.785,175.21C267.03,173.475 267.037,173.47 265.779,171.352C265.688,171.199 265.802,171.151 264.785,169.356C264.697,169.2 264.784,169.186 263.79,167.359C262.614,165.198 263.128,155.479 263.44,154.478C263.569,154.067 263.756,154.154 265.429,149.469C265.49,149.299 265.534,149.322 266.439,147.461C266.812,146.694 268.708,144.794 269.46,144.436C269.619,144.36 270.766,143.814 271.364,143.32C271.526,143.187 271.597,142.962 271.763,142.833C272.634,142.151 273.825,142.37 275.607,141.776C277.06,141.292 277.056,140.914 290.508,141.152C293.032,141.196 293.034,141.15 295.416,141.764C298.041,142.44 302.287,141.25 302.807,143.409C302.819,143.46 303.074,150.846 302.578,152.527C302.075,154.233 302.059,154.219 302.042,154.44C301.857,156.785 302.137,156.901 301.513,157.514C300.542,158.468 299.611,157.619 299.491,157.51C299.413,157.439 298.405,154.706 298.18,153.578C297.887,152.108 297.642,152.23 296.831,151.229C296.186,150.433 296.496,150.23 295.623,149.371C294.04,147.814 288.646,146.841 288.492,146.831C285.075,146.625 283.777,147.09 283.391,147.228C281.803,147.798 281.349,148.247 280.549,148.591C278.425,149.504 278.935,150.291 278.169,151.235C277.835,151.647 277.343,151.578 277.012,153.438C276.589,155.811 277.947,156.179 278.573,157.452C279.511,159.359 280.01,158.87 281.227,159.841C281.798,160.296 281.751,160.331 282.374,160.743C282.495,160.823 282.567,160.986 282.707,161.022C282.993,161.095 283.766,160.502 286.226,162.802C288.205,164.654 288.736,163.743 290.23,164.849C290.395,164.97 290.483,165.176 290.645,165.301C291.515,165.973 293.817,166.469 294.36,166.779C294.962,167.123 294.918,167.162 295.544,167.415C295.711,167.482 295.67,167.559 297.537,168.438C298.127,168.715 299.499,169.967 299.724,170.092C300.715,170.642 300.786,170.484 301.723,171.145C301.95,171.305 302.248,171.363 302.45,171.554C302.533,171.632 302.416,171.727 303.367,172.639C304.435,173.664 304.94,173.127 305.577,174.451C307.423,178.29 307.822,178.238 307.912,182.483C307.919,182.804 307.915,182.78 307.947,186.5Z" style="fill:rgb(168,168,168);fill-opacity:0.96;"/>
            <path d="M314.508,206.936C314.328,206.963 313.706,206.863 312.419,207.252C312.185,207.323 310.136,207.943 309.425,207.831C307.912,207.593 308.005,205.978 308.455,205.463C308.912,204.94 311.22,204.474 313.347,202.349C313.364,202.333 314.955,200.511 315.005,200.298C315.038,200.152 314.825,200.149 315.19,198.441C315.787,195.646 317.361,196.384 317.979,193.587C318.401,191.679 318.226,191.637 318.785,190.64C320.892,186.878 319.599,186.326 320.831,184.758C320.959,184.596 321.181,184.526 321.31,184.366C321.374,184.286 321.968,183.547 322.021,183.315C322.054,183.168 321.854,183.15 322.193,181.446C322.513,179.84 322.713,179.934 323.429,178.459C323.933,177.42 324.335,177.689 324.741,176.617C324.889,176.228 325.294,173.448 325.772,172.635C325.849,172.504 326.027,172.451 326.1,172.318C326.368,171.824 327.393,168.27 327.769,167.633C327.846,167.503 328.02,167.448 328.095,167.316C328.247,167.051 328.306,166.74 328.439,166.465C328.942,165.424 329.323,165.678 329.734,164.613C329.887,164.217 330.305,161.459 330.778,160.638C331.122,160.04 331.169,160.083 331.413,159.457C332.106,157.684 332.347,156.361 332.774,155.636C332.851,155.504 333.025,155.449 333.101,155.316C333.253,155.052 333.312,154.743 333.444,154.467C333.945,153.426 334.326,153.679 334.735,152.613C334.884,152.224 335.305,149.477 335.782,148.639C336.351,147.64 336.442,147.694 336.77,146.607C337.257,144.992 336.755,142.421 338.756,140.812C341.054,138.964 341.759,142.135 341.819,142.404C342.429,145.145 343.033,144.888 343.567,146.473C343.874,147.386 343.88,148.794 345.25,150.648C346.507,152.349 346.677,152.322 346.862,154.435C347.05,156.593 348.421,156.082 348.802,158.441C349.053,160 348.718,160.132 349.689,161.366C349.816,161.527 350.035,161.601 350.159,161.765C350.938,162.785 350.709,165.081 351.696,166.36C351.783,166.474 352.15,166.626 352.556,167.467C353.415,169.246 353.548,169.18 353.81,170.419C354.372,173.078 355.209,172.775 355.816,175.416C356.728,179.387 358.446,179.041 358.805,181.442C359.037,183.001 358.715,183.136 359.692,184.364C359.734,184.417 360.528,184.828 360.796,186.442C361.054,188.002 360.733,188.127 361.696,189.361C361.728,189.402 362.505,189.837 362.792,191.44C363.069,192.984 362.741,193.112 363.699,194.358C363.781,194.465 364.156,194.637 364.557,195.467C364.69,195.741 364.751,196.049 364.902,196.314C365.086,196.636 365.389,196.497 365.811,198.415C366.139,199.906 366.374,199.787 367.163,200.771C367.863,201.643 367.582,201.832 368.374,202.626C369.175,203.429 369.343,203.157 370.231,203.839C371.263,204.631 371.249,204.645 371.402,204.702C371.714,204.818 372.062,204.815 372.374,204.931C373.517,205.354 373.872,205.335 373.67,206.55C373.598,206.985 372.343,208.415 369.475,207.574C367.016,206.853 366.984,206.872 352.501,206.899C348.381,206.907 347.861,206.817 346.413,207.236C346.136,207.316 344.228,207.87 342.82,207.009C342.71,206.942 341.954,206.48 342.41,205.449C342.457,205.344 342.51,205.422 343.629,204.686C344.585,204.057 345.872,203.007 345.402,200.525C345.283,199.898 345.209,199.258 345.012,198.651C344.976,198.54 344.493,197.945 344.189,196.58C343.95,195.509 343.892,195.552 343.414,194.544C343.347,194.403 342.754,193.152 342.238,192.982C341.881,192.864 341.781,193.546 337.592,192.243C334.824,191.382 332.799,192.104 332.408,192.243C328.417,193.665 328.171,192.365 326.743,192.98C326.581,193.05 326.532,193.268 326.4,193.385C325.854,193.867 325.863,193.873 325.588,194.547C325.446,194.896 324.478,196.446 323.805,198.577C322.694,202.097 322.481,202.774 325.887,205.091C326.653,205.612 326.823,205.632 326.675,206.555C326.674,206.56 326.172,207.884 324.481,207.604C323.484,207.439 323.571,207.19 322.553,207.054C321.39,206.898 315.152,206.932 314.508,206.936ZM335.299,171.687C335.653,174.113 335.814,174.067 336.114,174.675C337.05,176.575 337.225,179.424 337.841,180.238C337.964,180.4 338.175,180.478 338.3,180.638C339.987,182.791 338.537,185.938 338.348,186.033C338.017,186.199 330.949,186.191 330.645,186.035C330.498,185.96 328.999,182.803 330.699,180.637C330.722,180.608 331.531,180.141 331.796,178.556C332.13,176.549 331.981,176.516 332.885,174.678C333.383,173.665 333.382,173.673 333.569,172.547C333.615,172.267 333.499,171.874 333.731,171.711C333.784,171.674 333.756,171.892 334.518,171.881C334.931,171.874 334.883,171.693 335.299,171.687Z" style="fill:rgb(168,168,168);fill-opacity:0.94;"/>
            <path d="M1023.999,156.5L1023.999,166.5C1023.849,166.067 1023.125,166.015 1022.975,165.581C1022.968,165.56 1022.971,157.423 1022.972,157.42C1023.122,156.986 1023.849,156.935 1023.999,156.5Z" style="fill:rgb(168,168,168);fill-opacity:0.4;"/>
        </g>
    </g>
</svg>
